<svg xmlns="http://www.w3.org/2000/svg" width="260" height="74" viewBox="0 0 260 74" fill="none"><script xmlns=""/>
    <path d="M8.99977 24.91C12.5878 24.91 13.5491 22.5927 13.5491 20.926C13.5491 16.942 8.2931 13.9753 2.67043 13.6647V24.91H8.99977ZM2.67043 11.9687C6.4571 12.2233 9.08377 13.3247 10.6104 14.1167C11.5704 13.2127 12.2211 11.9407 12.2211 10.726C12.2211 9.65267 11.7971 8.40867 9.76243 8.40867H2.67043V11.9687ZM10.0731 6.77C13.2664 6.77 14.1984 8.80467 14.1984 10.8673C14.1984 11.8567 13.7744 13.2967 12.1078 14.9927C12.7011 15.3873 15.5264 17.3087 15.5264 20.8127C15.5264 24.1473 13.1531 26.5487 9.70643 26.5487H1.85177C1.45577 26.5487 0.7771 26.4353 0.7771 25.5033V7.81534C0.7771 6.88334 1.45577 6.77 1.85177 6.77H10.0731Z" fill="#442E93"/>
    <path d="M25.1601 24.8253C30.5281 24.8253 31.6308 19.5413 31.6308 16.66C31.6308 13.9187 30.5855 8.49333 25.0468 8.49333C20.4135 8.49333 18.6335 12.5907 18.6335 16.66C18.6335 20.6427 20.3281 24.8253 25.1601 24.8253ZM25.1321 6.572C30.8108 6.572 33.6081 11.5453 33.6081 16.5467C33.6081 21.9147 30.8961 26.7467 25.1321 26.7467C19.3681 26.7467 16.6548 21.9147 16.6548 16.5467C16.6548 11.5453 19.4521 6.572 25.1321 6.572" fill="#442E93"/>
    <path d="M46.548 6.7704C47.48 6.7704 47.5374 7.41973 47.5374 7.58907C47.5374 7.75973 47.48 8.40907 46.548 8.40907H39.6827C38.8347 8.40907 36.8854 8.35307 36.8854 10.4437C36.8854 12.1104 38.2414 12.2517 40.1054 12.5624L42.7054 12.9864C45.8987 13.4944 49.7974 14.3144 49.7974 19.0611C49.7974 22.6491 47.3107 26.5491 42.14 26.5491H35.528C34.596 26.5491 34.54 25.8984 34.54 25.7291C34.54 25.5597 34.596 24.9104 35.528 24.9104H41.7734C45.9827 24.9104 47.82 22.1971 47.82 19.2877C47.82 16.0664 45.248 15.3597 43.384 15.0211L40.0774 14.3997C36.9974 13.8051 34.9067 13.3531 34.9067 10.5277C34.9067 8.77707 35.896 6.7704 39.1174 6.7704H46.548Z" fill="#442E93"/>
    <path d="M64.3477 6.77041C65.2797 6.77041 65.337 7.41974 65.337 7.58907C65.337 7.75974 65.2797 8.40907 64.3477 8.40907H59.3743C57.933 8.40907 52.7063 8.21174 52.7063 14.7664C52.7063 20.1064 56.8317 24.9384 63.3303 24.8811C64.3757 24.8811 65.449 24.7117 65.449 25.7571C65.449 26.6904 64.545 26.7464 63.133 26.7464C56.3797 26.7464 50.729 21.8584 50.729 14.5971C50.729 9.51041 53.921 6.77041 58.5837 6.77041H64.3477Z" fill="#442E93"/>
    <path d="M74.8006 24.8253C80.17 24.8253 81.2713 19.5413 81.2713 16.66C81.2713 13.9187 80.226 8.49333 74.6873 8.49333C70.054 8.49333 68.274 12.5907 68.274 16.66C68.274 20.6427 69.97 24.8253 74.8006 24.8253ZM74.7726 6.572C80.4513 6.572 83.2486 11.5453 83.2486 16.5467C83.2486 21.9147 80.5366 26.7467 74.7726 26.7467C69.0086 26.7467 66.2966 21.9147 66.2966 16.5467C66.2966 11.5453 69.0926 6.572 74.7726 6.572" fill="#442E93"/>
    <path d="M93.448 6.75626C96.4427 6.75626 97.2347 9.1296 97.2347 11.8416C97.2347 12.5763 96.6414 14.3563 95.5107 14.3563C95.228 14.3563 94.9454 14.1029 94.72 14.1029C94.5787 14.1029 94.324 14.2443 94.2107 14.3563C94.4094 14.0736 94.832 12.6896 94.832 11.2776C94.832 9.83626 94.38 8.36693 92.7707 8.02826C92.8267 7.94293 92.8267 7.8296 92.8267 7.7456C92.8267 7.49093 92.6854 7.2936 92.6854 7.12293C92.6854 6.9816 92.7987 6.8696 93.1374 6.78426C93.2227 6.75626 93.3347 6.75626 93.448 6.75626ZM91.9507 6.8696C92.0347 6.9536 92.148 6.9816 92.2614 7.03893C92.2054 6.9816 92.148 6.8696 92.092 6.84026L91.9507 6.8696ZM90.8774 9.35626C90.9054 9.69493 91.3014 9.75093 91.3014 9.94826C91.3014 10.2883 90.396 10.8536 89.944 10.9376C90.312 11.3896 91.4707 11.7003 91.5267 12.1536C91.5267 12.6896 90.1147 13.0003 89.7467 13.0003C89.7467 13.1136 90.5374 13.8203 90.5374 13.8483C90.8774 14.1589 91.4707 14.4136 92.0067 14.4136C93.052 14.4136 93.1374 13.1989 93.1374 12.5203C93.1374 11.5029 92.996 10.5709 92.516 9.72293C92.4867 9.66693 92.064 9.04426 92.064 9.0736C91.8654 9.21493 91.0467 9.29893 90.8774 9.35626M94.5787 0.936264C94.6907 0.936264 94.776 0.992262 94.804 1.1336C94.748 1.24693 94.5494 1.38826 94.4374 1.50026C94.5787 1.5856 94.6347 1.6136 94.6907 1.86826C94.0974 2.5176 93.844 3.08293 92.7414 3.08293C91.1307 3.08293 91.3854 3.98693 90.764 5.0896C90.792 5.1456 90.8774 5.23093 90.9054 5.25893L90.9334 5.37226C90.708 5.5976 90.736 5.9656 90.4814 6.75626C90.6227 6.67093 90.792 6.64293 90.9894 6.64293C91.216 6.64293 91.4987 6.70026 91.7254 6.78426C91.612 6.55893 91.7534 6.64293 91.5547 6.30426C91.5827 6.24826 91.612 6.19093 91.612 6.13493C91.64 6.13493 91.668 6.16293 91.696 6.16293C91.7254 6.16293 91.7814 6.13493 91.7814 6.13493L91.3854 5.1176C91.3854 5.1176 91.4987 3.64826 91.4987 3.62026L91.9787 3.3096C91.9787 3.50693 92.0067 3.90293 92.0067 4.3256C92.0067 4.41093 92.3174 5.73893 92.3174 6.30426C92.3174 6.4176 92.544 6.70026 92.544 6.8976C92.544 7.01093 92.4307 7.09493 92.4307 7.09493C92.4307 7.12293 92.4587 7.15226 92.4867 7.15226C92.4587 7.18026 92.4027 7.23626 92.4027 7.2936C92.4027 7.4336 92.572 7.66026 92.572 7.91493C92.572 7.99893 92.544 8.08426 92.4867 8.1976C94.0974 8.50826 94.5494 10.0056 94.5494 11.4469C94.5494 12.8309 94.1547 14.1869 93.956 14.4976C94.0134 14.4416 94.0694 14.3856 94.1547 14.3563C93.9854 15.0349 93.7027 15.8536 93.448 15.9949C92.8827 16.3069 91.5547 17.1536 90.764 17.1536C90.1427 17.1536 90.0294 16.3069 89.5494 16.3069C89.3227 16.3069 89.068 16.4189 88.8707 16.4763C89.068 16.6736 89.408 16.8429 89.408 17.0416C89.408 17.0696 89.3227 17.2949 89.1814 17.2949C88.956 17.2949 88.0227 16.8709 87.8814 16.7869C86.1587 16.0243 85.876 15.0069 85.2547 13.7349C84.8867 13.0283 84.52 12.2376 84.52 11.4469C84.52 10.6549 85.6214 6.8976 87.3174 6.8976C87.9387 6.8976 88.4467 7.3496 88.8427 7.68826C89.0974 7.66026 89.2667 7.57626 89.464 7.46293L89.5494 7.3216C89.5494 6.75626 89.6907 6.24826 89.7187 5.6256C89.7187 5.42826 89.7187 5.23093 89.6907 5.03226C89.7467 5.00426 89.86 4.97626 89.888 4.89093C89.916 4.89093 89.972 4.92026 90.0014 4.92026H90.0854L90.256 4.6936C90.2267 4.60826 90.1987 4.52426 90.1427 4.46826C90.34 4.1856 90.5667 3.28026 90.5667 2.9136L90.424 2.74426L90.312 2.77226C90.256 2.77226 90.0574 2.99893 90.0574 2.99893C89.8027 2.99893 89.52 2.74426 89.408 2.5456L89.3507 2.23493C89.436 2.12293 89.888 2.0656 90.368 2.0656C90.848 2.0656 91.3574 2.12293 91.5267 2.23493C91.612 2.17893 91.7534 2.12293 91.8654 2.12293C91.9507 2.12293 92.0347 2.15093 92.092 2.17893C92.176 2.15093 92.2614 2.0096 92.2614 2.0096C92.3747 2.0376 92.4307 2.0096 92.4867 2.12293C92.572 1.95226 92.7134 1.78293 92.94 1.78293C93.1654 1.6416 94.1267 0.936264 94.5787 0.936264" fill="#442E93"/>
    <path d="M233.899 72.1057C232.668 72.1057 232.128 71.1044 232.128 69.6431C232.128 64.0991 239.365 52.5497 245.601 52.5497C247.219 52.5497 247.988 53.7817 247.988 55.3217C247.988 61.0177 238.364 72.1057 233.899 72.1057ZM259.076 61.6337C258.923 61.6337 258.844 61.7884 257.92 62.8671C253.455 68.1017 249.297 72.1057 246.988 72.1057C245.988 72.1057 245.679 71.6444 245.679 71.0271C245.679 68.3324 254.611 54.6297 256.767 52.0097L253.069 52.1644C251.453 52.2417 251.608 53.2417 248.835 57.6297L248.68 57.4777C248.835 57.0151 248.913 56.2444 248.913 55.3977C248.913 53.3191 247.912 51.6244 245.601 51.6244C240.289 51.6244 234.052 55.5524 229.895 60.6351C229.465 61.1617 229.185 61.4711 228.996 61.6831C228.727 61.8817 228.195 62.8324 224.587 66.6391C223.123 68.1777 219.273 72.1057 216.887 72.1057C216.271 72.1057 215.731 71.5657 215.731 70.9511C215.731 70.4124 217.427 67.1791 217.427 65.5617C217.427 63.8684 215.424 61.2497 213.343 60.8631V60.7084C215.809 60.2497 218.503 58.6311 219.812 56.5524C221.044 54.5511 221.661 53.6271 223.352 53.3191C223.431 55.0137 223.739 56.0911 225.355 56.0911C226.433 56.0911 227.512 55.3217 227.512 54.0111C227.512 52.6257 226.28 51.6244 224.587 51.6244C222.815 51.6244 221.661 52.2417 219.425 55.1671C217.272 58.0924 213.805 60.2497 212.652 60.2497C211.881 60.2497 211.573 60.0951 211.188 60.0951C208.955 60.0951 208.493 60.8631 208.493 61.3257C208.493 61.8644 208.879 62.2497 209.649 62.2497C211.035 62.2497 211.805 61.1711 212.652 61.1711C213.267 61.1711 214.037 61.7884 214.037 62.4044C214.037 63.7137 212.497 64.9471 212.497 67.2551C212.497 69.4884 213.728 73.0297 216.579 73.0297C219.117 73.0297 222.968 69.5644 225.664 66.6391C227.063 65.1177 228.697 63.2657 229.324 62.4391C229.36 62.4191 229.396 62.4044 229.433 62.4044C229.203 63.6364 229.048 64.7924 229.048 66.0231C229.048 69.4884 229.973 73.0297 233.899 73.0297C236.825 73.0297 241.137 68.6417 243.447 66.3311C243.447 66.7164 243.369 67.1791 243.369 67.7164C243.369 71.9511 244.679 73.0297 246.757 73.0297C248.835 73.0297 251.763 70.6431 255.304 66.9471C257.073 65.0231 259.539 62.2497 259.539 62.0964C259.539 61.9417 259.384 61.6337 259.076 61.6337M81.2306 61.7884L81.0759 61.6337C81.4599 59.4017 81.6919 57.0151 81.6919 54.5511C81.6919 51.4711 81.3065 48.2377 79.9972 45.1577C91.6999 32.6844 104.944 22.0604 108.485 21.5964L108.64 21.7511C96.8599 33.0697 87.6972 46.9284 81.2306 61.7884ZM78.3039 67.3324C73.3759 66.7164 67.5252 65.2537 63.2119 61.9417C68.9866 57.0151 73.8372 51.2404 79.2266 45.9284C80.1506 48.1604 80.7679 52.0097 80.7679 55.0924C80.7679 59.3244 79.6892 63.4057 78.3039 67.3324M62.2892 61.3257C58.2852 58.1697 57.1612 47.1324 63.6079 41.5884C67.9545 37.8511 76.0706 39.7684 78.8426 44.9271C73.3759 50.5471 68.2186 56.3217 62.2892 61.3257ZM193.532 52.5497C194.533 52.5497 195.072 53.0124 195.072 54.0111C195.072 59.5564 186.909 63.9444 181.829 64.5604C182.908 60.2497 189.452 52.5497 193.532 52.5497ZM207.968 51.9337C206.583 53.8577 196.381 64.5377 194.932 66.0231C190.235 70.6431 186.527 72.1817 184.448 72.1057C182.06 72.0284 181.213 71.0271 181.213 68.0244C181.213 67.1791 181.368 66.3311 181.523 65.4844C186.064 64.5604 197.381 61.0951 197.381 55.3217C197.381 53.1657 195.843 51.6244 193.532 51.6244C189.375 51.6244 184.448 54.6297 180.213 58.9391C179.753 59.3991 176.943 62.6511 172.671 67.1791C169.821 70.1044 167.049 72.1057 165.664 72.1057C164.816 72.1057 164.356 71.2577 164.432 70.4124C164.816 66.4857 172.285 60.5577 172.285 55.5524C172.285 52.7804 171.053 51.6244 169.591 51.6244C165.279 51.6244 157.58 61.8644 154.885 64.9471L154.731 64.7924C156.117 62.2497 158.504 58.4777 158.504 55.0924C158.504 52.6257 157.58 51.6244 155.885 51.6244C151.804 51.6244 144.26 62.1724 141.564 65.0991L141.412 64.9471C142.951 62.1724 145.799 57.9391 145.799 54.5511C145.799 52.6257 144.645 51.6244 142.72 51.6244C140.872 51.6244 138.331 52.9337 134.789 56.9364C132.713 59.2951 131.26 60.9057 130.619 61.7004C130.312 62.0057 129.676 62.9657 126.861 65.9457C123.705 69.3337 120.471 72.1057 118.699 72.1057C117.929 72.1057 117.468 71.3351 117.468 70.5644C117.468 69.3337 119.163 66.5617 122.627 61.8644C123.936 60.0951 125.475 57.8604 125.475 55.2444C125.475 53.6271 124.629 51.6244 122.703 51.6244C118.777 51.6244 109.923 62.4044 106.919 65.2537L106.764 65.0991C108.46 62.8671 111.616 58.4777 111.616 55.3977C111.616 53.0884 110.768 51.6244 108.768 51.6244C105.765 51.6244 102.627 54.1004 98.9319 58.4124C98.0279 59.4564 95.0332 62.6617 90.5652 65.3777C88.3159 66.7457 85.5399 67.6404 83.3839 67.6404C88.5425 57.4777 92.8559 47.5444 99.1679 37.3044C106.637 25.1391 111.719 20.2124 111.719 19.8271C111.719 19.5191 111.643 19.2871 111.335 19.2871C107.869 19.2871 95.7039 26.5244 79.6132 44.0804C76.6879 38.1511 67.6932 34.1124 61.6092 38.3724C53.0746 44.3471 56.2065 57.7844 61.5959 62.0191C53.2025 69.1804 44.8106 72.5671 34.4946 72.5671C25.7932 72.5671 21.2186 64.5457 21.3066 59.7271C21.3612 56.6284 22.4599 52.5697 25.6426 49.9137C27.6866 48.2084 31.4252 46.9351 34.0985 47.1537C37.4759 47.4324 39.4639 48.5857 40.8879 49.9137C42.8039 51.7031 44.1159 54.2524 44.3919 56.4844C44.8745 60.3844 41.3545 66.5937 33.4239 66.5937C32.1145 66.5937 31.4985 66.3631 31.1132 66.3631C30.7292 66.3631 30.6532 66.5177 30.6532 66.8257C30.6532 67.3644 31.0359 67.5191 34.1932 67.5191C41.4305 67.5191 46.5385 61.4351 45.3119 55.6524C44.7919 53.2017 43.8585 51.0191 41.7199 49.1244C39.9652 47.5724 37.8399 46.3257 34.0092 45.9711C30.6705 45.6617 27.4626 46.3684 24.8679 47.8644C20.7479 50.2377 17.9519 54.3791 17.7132 58.6764C17.2759 66.5604 24.0999 73.4911 34.7252 73.4911C46.1199 73.4911 55.5132 68.7191 62.4426 62.6351C66.8319 65.9457 72.4519 67.4857 77.9959 68.2564L75.8399 73.0297H81.3839L83.0772 68.5644C91.1666 68.1457 97.3999 61.3031 100.616 57.8111C104.565 53.5204 106.303 52.5497 108.46 52.5497C109.076 52.5497 109.615 52.9337 109.615 53.7044C109.615 56.0911 98.7572 70.1817 97.2945 73.0297L102.453 72.5671C104.764 68.9497 118.699 52.5497 122.395 52.5497C123.089 52.5497 123.473 52.9337 123.473 53.4737C123.473 55.5524 115.159 61.9417 115.159 68.1017C115.159 70.8737 116.235 73.0297 118.545 73.0297C120.316 73.0297 123.011 70.9511 126.399 67.5631C127.195 66.7684 129.783 63.9377 130.813 62.6124C131.243 62.2497 132.261 60.8164 135.328 57.5537C137.869 54.8591 140.487 52.5497 142.644 52.5497C143.412 52.5497 143.797 52.7804 143.797 53.6271C143.797 54.8591 139.487 61.1711 132.017 73.0297L137.023 72.5671C139.255 69.2577 152.268 52.1644 155.501 52.5497C156.193 52.6257 156.5 53.0124 156.5 53.7044C156.5 56.3977 147.031 70.1817 145.491 73.0297L150.341 72.5671C152.42 69.4124 164.893 52.5497 169.283 52.5497C170.053 52.5497 170.283 52.9337 170.283 53.2417C170.283 56.0911 162.123 61.6337 162.123 68.1017C162.123 71.0271 163.124 73.0297 165.432 73.0297C167.588 73.0297 170.053 71.0271 173.903 67.0244C175.499 65.3671 177.336 63.4177 178.016 62.5004C178.036 62.5177 178.056 62.5577 178.056 62.6351C178.056 62.8671 177.825 63.7137 177.825 64.8684C177.825 68.8711 179.675 73.1057 183.908 73.0297C187.527 72.9524 190.531 71.4897 194.38 67.9484C196.365 66.1591 205.876 55.4751 207.416 54.2431L207.571 54.3977L195.481 73.0297L200.717 72.7217L213.112 51.6244L207.968 51.9337Z" fill="#442E93"/>
    </svg>