<svg width="222" height="56" viewBox="0 0 222 56" fill="none" xmlns="http://www.w3.org/2000/svg">
<path fill-rule="evenodd" clip-rule="evenodd" d="M48.7977 40.5873V15.0827H51.4191H56.588C59.3772 15.0827 61.3675 15.6649 62.5585 16.824C63.7472 17.9786 64.3429 19.9122 64.3429 22.6258C64.3429 25.709 63.7397 27.7742 62.5408 28.8423C61.3343 29.9055 59.0032 30.4422 55.5448 30.4422H54.0534V40.5873H51.4369H48.7977ZM54.0534 26.5946H55.552C56.9598 26.5946 57.8986 26.3365 58.377 25.815C58.8505 25.304 59.0873 24.2609 59.0873 22.7017C59.0873 21.2437 58.8377 20.2564 58.3465 19.73C57.8578 19.1986 56.924 18.935 55.552 18.935H54.0534V26.5946ZM73.296 32.5128C73.296 34.2288 73.4943 35.4236 73.8965 36.0966C74.2962 36.7653 75.0035 37.1095 76.0293 37.1095C77.0601 37.1095 77.7753 36.7653 78.1746 36.0966C78.5742 35.4236 78.7752 34.2288 78.7752 32.5128C78.7752 29.0195 78.7752 25.5317 78.7752 22.0436C78.7752 20.8994 78.5388 20.0387 78.0732 19.4464C77.6072 18.8595 76.9251 18.5608 76.0293 18.5608C75.1286 18.5608 74.4511 18.8595 73.9829 19.4464C73.5248 20.0387 73.296 20.8994 73.296 22.0436C73.296 25.5317 73.296 29.0195 73.296 32.5128ZM76.0293 40.9569C73.1025 40.9569 71.041 40.3086 69.8398 39.0079C68.6409 37.7069 68.0377 35.469 68.0377 32.3104C68.0377 28.807 68.0377 25.3087 68.0377 21.8158C68.0377 19.4363 68.7024 17.6594 70.0332 16.4849C71.3566 15.3053 73.357 14.713 76.0293 14.713C78.6937 14.713 80.6942 15.3053 82.0303 16.4849C83.3665 17.6594 84.0308 19.4363 84.0308 21.8158C84.0308 25.3087 84.0308 28.807 84.0308 32.3104C84.0308 35.469 83.4302 37.7069 82.229 39.0079C81.0301 40.3086 78.9633 40.9569 76.0293 40.9569ZM104.057 31.89V32.6495C104.103 35.6364 103.546 37.7728 102.382 39.0431C101.217 40.319 99.2472 40.9569 96.4758 40.9569C93.5237 40.9569 91.4494 40.2632 90.2429 38.8914C89.0368 37.5094 88.4359 35.1401 88.4359 31.7838V23.9218C88.4359 20.54 89.0368 18.1659 90.2429 16.7785C91.4546 15.4016 93.5313 14.713 96.481 14.713C99.041 14.713 100.942 15.3559 102.179 16.6417C103.342 17.8519 103.92 19.644 103.907 22.0132V22.5041V23.2636H98.6493V22.5041C98.6745 21.183 98.5094 20.1957 98.1399 19.5426C97.7738 18.8896 97.2215 18.5608 96.4758 18.5608C95.4932 18.5608 94.786 18.9403 94.343 19.6895C93.9079 20.4389 93.6915 21.6589 93.6915 23.3545V31.1965C93.6915 33.4038 93.8924 34.9424 94.2947 35.8137C94.6993 36.6742 95.4197 37.1095 96.4501 37.1095C97.2596 37.1095 97.8575 36.735 98.2444 35.9956C98.6365 35.2568 98.8223 34.1375 98.7993 32.6495V31.89H104.057Z" fill="#154870"/>
<path fill-rule="evenodd" clip-rule="evenodd" d="M203.516 40.6532H197.311L190.47 29.0753V40.6532H185.271V15.0827H190.47V26.9136L197.599 15.0827H203.226L195.222 27.7996L203.516 40.6532ZM213.116 19.8514L210.99 31.2978H215.228L213.141 19.8514H213.116ZM204.163 40.5873L209.991 15.0827H216.18L222 40.5873H219.473H216.925L215.92 35.1047H210.283L209.239 40.5873H206.71H204.163ZM168.12 40.5873V15.0827H180.944V16.9912V18.8998H173.378V25.5923H180.685V27.5009V29.4095H173.378V36.7757H181.094V38.6787V40.5873H168.12ZM153.73 40.5873V18.8998H148.216V16.9912V15.0827H164.506V16.9912V18.8998H158.989V40.5873H156.372H153.73ZM134.266 40.5873H129.011V15.0827H144.553V40.5873H141.939H139.3V18.8998H134.266V40.5873ZM116.263 19.8514L114.138 31.2978H118.373L116.286 19.8514H116.263ZM107.31 40.5873L113.138 15.0827H119.327L125.146 40.5873H122.617H120.07L119.066 35.1047H113.428L112.385 40.5873H109.857H107.31Z" fill="#154870"/>
<path fill-rule="evenodd" clip-rule="evenodd" d="M17.0312 26.9491H0V12.369C0 11.063 1.06625 10 2.38213 10H17.0312V26.9491Z" fill="#154870"/>
<path fill-rule="evenodd" clip-rule="evenodd" d="M35.8947 26.9491H18.8635V10H33.5151C34.8285 10 35.8947 11.063 35.8947 12.369V26.9491Z" fill="#F14F4F"/>
<path fill-rule="evenodd" clip-rule="evenodd" d="M17.049 45.67H2.39483C1.0791 45.67 0.0126953 44.6069 0.0126953 43.3011V28.7208H17.049V45.67Z" fill="#154870"/>
<path fill-rule="evenodd" clip-rule="evenodd" d="M33.5151 45.67H18.861V28.7208H35.8948V43.3011C35.8948 44.6069 34.8285 45.67 33.5151 45.67Z" fill="#154870"/>
<path fill-rule="evenodd" clip-rule="evenodd" d="M7.94531 23.1421H5.73889V13.7157H8.4366C9.39125 13.7157 10.0909 13.8474 10.5338 14.1158C11.0553 14.4345 11.3177 14.971 11.3177 15.7406V17.4567C11.3177 18.1302 11.0553 18.6466 10.5338 19.0062C10.0655 19.3299 9.47253 19.4922 8.75737 19.4922H7.94531V23.1421ZM7.94531 15.0674V18.1455H8.29156C8.65282 18.1455 8.88714 18.029 8.99406 17.8013C9.07282 17.624 9.11376 17.229 9.11376 16.6113C9.11376 16.1355 9.09597 15.8166 9.06004 15.6445C8.97857 15.2599 8.72438 15.0674 8.29156 15.0674H7.94531Z" fill="white"/>
<path fill-rule="evenodd" clip-rule="evenodd" d="M11.3177 34.9074V39.0535C11.3177 40.0205 11.0402 40.7192 10.4803 41.1648C10.012 41.5339 9.3606 41.7163 8.52837 41.7163C7.69614 41.7163 7.04944 41.5391 6.58895 41.1795C6.02399 40.7342 5.73889 40.0257 5.73889 39.0535V34.9074C5.73889 33.9457 6.01898 33.2419 6.57644 32.7963C7.04711 32.4268 7.69614 32.2445 8.52837 32.2445C9.3606 32.2445 10.007 32.4268 10.4675 32.7861C11.0351 33.2265 11.3177 33.9355 11.3177 34.9074ZM7.94531 34.4215V39.5394C7.94531 39.7623 7.98595 39.9397 8.07022 40.0664C8.15399 40.1922 8.30687 40.2583 8.52837 40.2583C8.73957 40.2583 8.88948 40.1922 8.97857 40.0613C9.07033 39.9293 9.11376 39.7522 9.11376 39.5394V34.4215C9.11376 34.1984 9.07784 34.0367 9.00673 33.9201C8.90995 33.7784 8.74957 33.7077 8.52837 33.7077C8.31716 33.7077 8.16696 33.7733 8.07787 33.9C7.98878 34.0367 7.94531 34.2088 7.94531 34.4215Z" fill="white"/>
<path fill-rule="evenodd" clip-rule="evenodd" d="M27.7253 37.9805H29.8553V39.1802C29.8553 40.8557 28.9545 41.6962 27.1502 41.6962C26.3356 41.6962 25.7123 41.5138 25.277 41.1593C24.7373 40.7192 24.4651 40.0102 24.4651 39.0384V34.9023C24.4651 33.9405 24.7373 33.2369 25.277 32.7963C25.7197 32.4267 26.3458 32.2445 27.1502 32.2445C28.023 32.2445 28.6694 32.4062 29.0866 32.7204C29.6009 33.0998 29.8553 33.753 29.8553 34.6744V35.6719H27.7253V34.4163C27.7253 34.2035 27.6845 34.0314 27.598 33.9C27.5117 33.7684 27.364 33.7025 27.1502 33.7025C26.9515 33.7025 26.8116 33.7684 26.7276 33.9C26.641 34.0314 26.5979 34.2035 26.5979 34.4163V39.5242C26.5979 39.7469 26.6387 39.9191 26.7201 40.0458C26.7989 40.1775 26.9438 40.2383 27.1502 40.2383C27.364 40.2383 27.5117 40.1725 27.598 40.0406C27.6845 39.9092 27.7253 39.7366 27.7253 39.5242V37.9805Z" fill="white"/>
</svg>
