<svg xmlns="http://www.w3.org/2000/svg" width="283" height="32" viewBox="0 0 283 32" fill="none"><script xmlns=""/>
    <path d="M26.5507 1.27568C26.5507 1.36763 26.5047 1.4136 26.4129 1.4136H25.7754C24.3167 1.70091 23.2428 2.89615 22.5537 4.9993C22.3699 5.55095 22.1804 6.08536 21.9851 6.60253L15.2143 24.8931C15.1109 25.1804 14.9846 25.3528 14.8352 25.4102C14.6859 25.4677 14.4792 25.4964 14.215 25.4964H13.4053C13.1296 25.4964 12.9516 25.37 12.8712 25.1172L3.79172 3.10301C3.42418 2.1951 2.5168 1.6377 1.0696 1.43083C0.989203 1.41934 0.920288 1.4136 0.86286 1.4136C0.816917 1.4136 0.793945 1.36763 0.793945 1.27568V0.861949C0.793945 0.770007 0.839888 0.724037 0.931774 0.724037H11.0966C11.1885 0.724037 11.2345 0.770007 11.2345 0.861949V1.27568C11.2345 1.36763 11.1885 1.4136 11.0966 1.4136H10.8382C10.5511 1.45957 10.218 1.50554 9.83895 1.55151C8.36878 1.73539 7.6337 2.32151 7.6337 3.30988C7.6337 3.62018 7.71409 3.95347 7.8749 4.30974L14.4045 20.2041C14.5194 20.4339 14.64 20.4282 14.7663 20.1868L20.7619 3.94772C20.8423 3.71787 20.8825 3.44779 20.8825 3.13749C20.8825 2.8157 20.7504 2.51114 20.4862 2.22383C20.2221 1.92502 19.9521 1.75263 19.6765 1.70666C19.4123 1.66069 19.1998 1.62621 19.039 1.60322C18.8897 1.58024 18.66 1.54576 18.3499 1.49979C18.0398 1.44233 17.833 1.4136 17.7296 1.4136C17.6263 1.4136 17.5746 1.36763 17.5746 1.27568V0.861949C17.5746 0.770007 17.6205 0.724037 17.7124 0.724037H26.4129C26.5047 0.724037 26.5507 0.770007 26.5507 0.861949V1.27568Z" fill="#343434"/>
    <path d="M26.7747 24.8931V24.4104C26.7747 24.3184 26.8206 24.2725 26.9125 24.2725H27.2915C27.7739 24.238 28.2678 24.2208 28.7732 24.2208C29.2785 24.2093 29.738 24.1461 30.1515 24.0311C31.0933 23.7553 31.5642 23.0657 31.5642 21.9624V3.79257C31.5642 2.6548 30.8923 1.93076 29.5485 1.62046C29.1694 1.54001 28.7847 1.47106 28.3941 1.4136H28.0323C27.9405 1.4136 27.8945 1.36763 27.8945 1.27568V0.861949C27.8945 0.770007 27.9405 0.724037 28.0323 0.724037H44.4167C44.6235 0.724037 44.7728 0.764261 44.8647 0.84471C44.9566 0.913666 45.014 1.07456 45.037 1.3274L45.3471 6.3267C45.3471 6.44163 45.2609 6.49909 45.0886 6.49909C44.9164 6.49909 44.79 6.44738 44.7096 6.34394C44.6407 6.22901 44.5488 5.80953 44.434 5.0855C44.3306 4.36146 44.1353 3.7581 43.8482 3.2754C43.561 2.79271 43.0557 2.48816 42.3321 2.36174H35.1478C34.9984 2.36174 34.9238 2.43644 34.9238 2.58585V11.4984C34.9238 11.6133 34.9812 11.6708 35.0961 11.6708H41.0572C42.5962 11.6708 43.3658 10.7744 43.3658 8.9815C43.3658 8.88956 43.4117 8.84359 43.5036 8.84359H43.9171C44.009 8.84359 44.0549 8.88956 44.0549 8.9815V16.3598C44.0549 16.4517 44.009 16.4977 43.9171 16.4977H43.5036C43.4117 16.4977 43.3658 16.4517 43.3658 16.3598C43.3658 14.6589 42.8719 13.6763 41.8841 13.4119C41.6085 13.343 41.3156 13.3085 41.0055 13.3085H35.0961C34.9812 13.3085 34.9238 13.3659 34.9238 13.4809V21.8763C34.9238 22.7382 35.32 23.2266 36.1126 23.3416C36.3423 23.376 36.5835 23.3933 36.8362 23.3933H42.5733C43.7563 23.3933 44.6752 22.8704 45.3298 21.8245C45.8008 21.0775 46.0879 20.2213 46.1913 19.2559C46.2257 18.9341 46.398 18.7732 46.7081 18.7732C46.846 18.7732 46.9149 18.8479 46.9149 18.9973L46.3463 24.7896C46.2774 24.9505 46.197 25.031 46.1051 25.031H26.9125C26.8206 25.031 26.7747 24.985 26.7747 24.8931Z" fill="#343434"/>
    <path d="M49.3269 25.031C49.235 25.031 49.1891 24.9161 49.1891 24.6862V24.4793C49.1891 24.3874 49.235 24.3414 49.3269 24.3414C49.3958 24.3414 49.5049 24.3299 49.6542 24.3069C49.8035 24.284 49.9586 24.261 50.1194 24.238C50.2802 24.215 50.4295 24.192 50.5673 24.169C50.7052 24.1346 50.8028 24.1116 50.8602 24.1001C52.0318 23.8358 52.6175 23.1692 52.6175 22.1004V3.89601C52.6175 2.90764 52.2213 2.20659 51.4288 1.79285C50.9579 1.54001 50.4525 1.4136 49.9127 1.4136H49.258C49.1661 1.4136 49.1201 1.36763 49.1201 1.27568V0.861949C49.1201 0.770007 49.1891 0.724037 49.3269 0.724037L58.7854 0.465452H60.5255C62.5584 0.603364 64.2583 1.34464 65.6251 2.68928C67.0034 4.02243 67.6926 5.67162 67.6926 7.63686C67.6926 9.59061 66.8771 11.1134 65.2461 12.2052C64.7407 12.5385 64.1952 12.8373 63.6094 13.1016L68.8296 21.6349C69.737 23.129 77.4886 30.7186 79.0162 31.3277C79.1425 31.3622 79.2057 31.4426 79.2057 31.569C79.2057 31.8563 79.0162 32 78.6372 32C76.0529 32 68.3387 25.4707 66.8111 23.5054C65.831 22.1978 65.2691 21.5889 64.936 21.0488L60.4738 14.0498L56.3734 13.8601H56.2355C56.0633 13.8601 55.9771 13.9406 55.9771 14.1015V22.0486C55.9771 22.6807 56.1551 23.1519 56.5112 23.4622C56.8673 23.7725 57.4817 23.9852 58.3547 24.1001C58.5844 24.1346 58.8658 24.1863 59.1989 24.2552C59.5319 24.3127 59.7559 24.3414 59.8708 24.3414C59.9971 24.3414 60.0603 24.3874 60.0603 24.4793V24.8931C60.0603 24.985 60.0143 25.031 59.9225 25.031H49.3269ZM57.3726 1.37912C57.2348 1.37912 57.0855 1.38486 56.9247 1.39636C56.7754 1.39636 56.5801 1.4021 56.3389 1.4136C56.0977 1.4136 55.9771 1.50554 55.9771 1.68942V12.1362L56.0116 12.6534C56.046 12.8948 56.1551 13.0212 56.3389 13.0327L58.0962 13.1361C61.3237 13.1361 63.2705 11.9868 63.9367 9.6883C64.155 8.96426 64.2641 8.1368 64.2641 7.20589C64.2641 5.39005 63.6955 3.95922 62.5584 2.91339C61.4328 1.86756 59.9914 1.34464 58.2341 1.34464C58.0733 1.34464 57.9239 1.35039 57.7861 1.36188C57.6483 1.36188 57.5105 1.36762 57.3726 1.37912Z" fill="#343434"/>
    <path d="M87.4365 0.930904C87.5514 0.930904 87.6088 1.05732 87.6088 1.31016L88.0568 4.98206C88.1027 5.21192 88.1257 5.36132 88.1257 5.43028C88.1257 5.48774 88.0338 5.51647 87.85 5.51647C87.6777 5.51647 87.5686 5.49349 87.5227 5.44751C87.4767 5.40154 87.4308 5.32684 87.3848 5.22341C87.3389 5.10848 87.2815 4.98206 87.2126 4.84415C87.1551 4.70624 87.0919 4.56833 87.023 4.43042C86.7818 3.90175 86.4028 3.37884 85.8859 2.86167C84.6225 1.64345 83.1983 1.03434 81.6133 1.03434C80.6599 1.03434 79.7583 1.34464 78.9084 1.96524C78.0584 2.58585 77.6335 3.32138 77.6335 4.17183C77.6335 5.01079 77.7885 5.74058 78.0986 6.36118C78.4202 6.98178 78.8395 7.55642 79.3563 8.08508C79.8732 8.61374 80.4647 9.11942 81.1309 9.60211C81.797 10.0848 82.4747 10.5732 83.1638 11.0674C84.9901 12.3431 86.2879 13.4349 87.0575 14.3428C88.2635 15.7449 88.9182 17.3194 89.0216 19.0663C89.0216 21.0201 88.2692 22.5831 86.7646 23.7553C85.2715 24.9161 83.5314 25.4964 81.5443 25.4964C80.2694 25.4964 79.2529 25.3643 78.4949 25.0999C77.7483 24.8471 77.2315 24.6632 76.9443 24.5483C76.6572 24.4334 76.4447 24.3759 76.3068 24.3759C76.1805 24.3759 76.1001 24.3817 76.0657 24.3931L75.2215 24.5655C75.0721 24.5655 74.9803 24.4449 74.9458 24.2035C74.6127 21.3533 74.4462 19.8421 74.4462 19.6697C74.4462 19.4858 74.4576 19.3651 74.4806 19.3076C74.5151 19.2387 74.5955 19.2042 74.7218 19.2042C75.0434 19.2042 75.3363 19.6639 75.6005 20.5833C76.8065 23.1692 78.8107 24.4621 81.6133 24.4621C82.8997 24.4621 83.9965 24.0714 84.9039 23.2899C85.8228 22.5084 86.2822 21.4913 86.2822 20.2386C86.2822 18.2388 85.0877 16.377 82.6987 14.6531C82.021 14.1704 81.0447 13.4981 79.7698 12.6362C78.4949 11.7742 77.4784 10.9123 76.7203 10.0503C75.5373 8.71717 74.9458 7.23462 74.9458 5.60267C74.9458 3.95922 75.5947 2.61458 76.8926 1.56875C78.202 0.522915 79.7009 0 81.3893 0C82.2622 0 83.2213 0.149404 84.2665 0.448213C85.3231 0.747022 86.0582 0.948143 86.4717 1.05158L87.4365 0.930904Z" fill="#343434"/>
    <path d="M100.461 1.4136C98.5317 1.4136 97.5669 2.1836 97.5669 3.72362V16.0667C97.5669 18.3423 98.3192 20.2041 99.8239 21.6521C101.329 23.0887 103.258 23.807 105.613 23.807C108.059 23.807 110.063 23.1519 111.625 21.8418C113.199 20.5201 113.986 18.6928 113.986 16.3598V5.3958C113.986 4.304 113.888 3.54548 113.693 3.12025C113.199 1.98248 112.085 1.4136 110.351 1.4136C110.259 1.4136 110.213 1.36763 110.213 1.27568V0.861949C110.213 0.770007 110.259 0.724037 110.351 0.724037H118.827C118.919 0.724037 118.965 0.770007 118.965 0.861949V1.27568C118.965 1.36763 118.838 1.4136 118.586 1.4136C117.081 1.4136 116.162 1.99972 115.829 3.17197C115.772 3.36735 115.743 3.55123 115.743 3.72362V15.0151C115.743 20.0604 113.813 23.3071 109.954 24.7552C108.656 25.2493 107.364 25.4964 106.078 25.4964C101.472 25.4964 98.078 24.2897 95.8958 21.8763C94.7702 20.635 94.2074 19.1008 94.2074 17.2734V3.48227C94.2074 2.5054 93.6158 1.86181 92.4328 1.55151C92.0882 1.45957 91.7954 1.4136 91.5542 1.4136C91.313 1.4136 91.1924 1.36763 91.1924 1.27568V0.861949C91.1924 0.770007 91.2326 0.724037 91.313 0.724037H100.651C100.743 0.724037 100.789 0.770007 100.789 0.861949V1.27568C100.789 1.36763 100.68 1.4136 100.461 1.4136Z" fill="#343434"/>
    <path d="M128.544 24.8931C128.544 24.985 128.498 25.031 128.406 25.031H119.602C119.51 25.031 119.464 24.985 119.464 24.8931V24.4793C119.464 24.3874 119.539 24.3414 119.688 24.3414C121.262 24.2725 122.324 23.4335 122.876 21.8245L129.905 1.46531C129.916 1.44233 129.922 1.4136 129.922 1.37912L129.733 0.810232C129.733 0.752768 129.756 0.724037 129.802 0.724037H133.247C133.27 0.735529 133.299 0.747022 133.333 0.758515C133.379 0.770007 133.414 0.804485 133.437 0.861949L140.725 21.3246C140.885 21.6349 141.012 21.9165 141.104 22.1693C141.207 22.4222 141.322 22.652 141.448 22.8589C141.724 23.3301 142.177 23.6921 142.809 23.9449C143.338 24.2093 143.82 24.3414 144.256 24.3414C144.348 24.3414 144.394 24.3931 144.394 24.4966V24.8931C144.394 24.985 144.348 25.031 144.256 25.031H133.713C133.621 25.031 133.575 24.985 133.575 24.8931V24.4793C133.575 24.3874 133.787 24.3299 134.212 24.3069C134.637 24.284 134.987 24.261 135.263 24.238C136.86 24.0656 137.658 23.5254 137.658 22.6175C137.658 22.5486 137.646 22.4681 137.623 22.3762L135.022 15.0324C135.01 15.0094 134.987 14.9577 134.953 14.8772C134.815 14.4865 134.574 14.2911 134.229 14.2911H128.113C127.769 14.2911 127.499 14.4807 127.303 14.86C127.269 14.9404 127.252 14.9864 127.252 14.9979L124.668 22.5658V22.721C124.668 23.0198 124.823 23.2899 125.133 23.5312C125.833 24.0714 126.775 24.3414 127.958 24.3414H128.406C128.498 24.3414 128.544 24.3874 128.544 24.4793V24.8931ZM133.644 12.3776C133.85 12.3776 133.954 12.2914 133.954 12.119C133.954 12.0271 133.931 11.9236 133.885 11.8087L131.318 4.74072C131.203 4.43042 131.117 4.27526 131.059 4.27526C131.002 4.27526 130.91 4.43616 130.784 4.75796L128.372 11.8087C128.326 11.9236 128.303 12.05 128.303 12.188C128.303 12.3144 128.389 12.3776 128.561 12.3776H133.644Z" fill="#343434"/>
    <path d="M177.146 24.3759C177.088 24.4678 176.945 24.4908 176.715 24.4449C176.497 24.3874 176.238 24.3587 175.94 24.3587C175.641 24.3587 175.216 24.4219 174.665 24.5483C174.125 24.6632 173.269 24.8471 172.098 25.0999C170.926 25.3643 169.858 25.4964 168.893 25.4964C166.711 25.4964 164.592 24.985 162.536 23.9622C160.491 22.9278 158.855 21.4683 157.626 19.5835C156.397 17.6872 155.782 15.4921 155.782 12.9982C155.782 10.5043 156.397 8.24597 157.626 6.22327C159.418 3.25817 162.117 1.3274 165.723 0.430974C166.872 0.143658 168.02 0 169.169 0C170.742 0 172.609 0.264331 174.768 0.792993C175.423 0.95389 175.974 1.12053 176.422 1.29292C176.882 1.46531 177.163 1.55151 177.266 1.55151L177.783 1.4136H178.317C178.455 1.4136 178.524 1.51128 178.524 1.70666V7.06798C178.524 7.1829 178.421 7.24037 178.214 7.24037C178.007 7.24037 177.887 7.21738 177.852 7.17141C177.818 7.11395 177.783 7.05074 177.749 6.98178C177.714 6.90133 177.674 6.82089 177.628 6.74044C177.594 6.65999 177.554 6.58529 177.508 6.51633C177.473 6.44738 177.45 6.39566 177.439 6.36118C175.716 2.90189 173.103 1.17225 169.6 1.17225C166.441 1.17225 163.972 2.17786 162.191 4.18907C160.411 6.20028 159.521 8.86658 159.521 12.188C159.521 15.4978 160.497 18.3423 162.45 20.7212C164.414 23.1002 167.079 24.2897 170.444 24.2897C172.282 24.2897 173.953 23.7438 175.457 22.652C176.973 21.5602 178.162 20.2213 179.024 18.6353C179.047 18.5664 179.116 18.5319 179.23 18.5319H179.454C179.569 18.5319 179.627 18.6008 179.627 18.7388C179.627 18.8767 179.592 19.0088 179.523 19.1353L177.146 24.3759Z" fill="#343434"/>
    <path d="M181.78 25.031C181.688 25.031 181.642 24.985 181.642 24.8931V24.4793C181.642 24.3874 181.688 24.3414 181.78 24.3414H182.194C183.182 24.3414 184.043 24.1346 184.778 23.7208C185.077 23.5484 185.324 23.2841 185.519 22.9278C185.714 22.5601 185.812 22.1521 185.812 21.7039V3.46503C185.812 2.75249 185.352 2.20659 184.433 1.82733C183.79 1.55151 183.107 1.4136 182.383 1.4136H182.004C181.912 1.4136 181.866 1.36763 181.866 1.27568V0.861949C181.866 0.770007 181.912 0.724037 182.004 0.724037H193.668C193.76 0.724037 193.806 0.770007 193.806 0.861949V1.27568C193.806 1.36763 193.76 1.4136 193.668 1.4136H192.927C191.744 1.4136 190.699 1.58024 189.792 1.91353C189.527 2.00547 189.355 2.16062 189.275 2.37898C189.206 2.58585 189.171 2.94786 189.171 3.46503V22.5831C189.194 22.7784 189.298 22.9623 189.481 23.1347C189.665 23.3071 189.872 23.3933 190.102 23.3933H196.907C197.929 23.3933 198.934 22.7899 199.922 21.5832C200.186 21.2614 200.514 20.8362 200.904 20.3075C201.295 19.7674 201.536 19.4628 201.628 19.3938C201.995 19.118 202.179 19.1238 202.179 19.4111C202.179 19.48 202.162 19.549 202.127 19.6179L199.526 24.7207C199.422 24.9276 199.302 25.031 199.164 25.031H181.78Z" fill="#343434"/>
    <path d="M206.658 3.48227C206.658 2.10315 205.866 1.4136 204.281 1.4136C204.028 1.4136 203.902 1.36763 203.902 1.27568V0.861949C203.902 0.770007 203.948 0.724037 204.04 0.724037H212.671C212.763 0.724037 212.809 0.770007 212.809 0.861949V1.27568C212.809 1.36763 212.556 1.4136 212.051 1.4136C211.546 1.4136 211.08 1.57449 210.655 1.89629C210.23 2.21808 210.018 2.87891 210.018 3.87877V22.2728C210.018 23.6519 210.816 24.3414 212.413 24.3414C212.654 24.3414 212.775 24.3874 212.775 24.4793V24.8931C212.775 24.985 212.729 25.031 212.637 25.031H204.005C203.913 25.031 203.867 24.985 203.867 24.8931V24.4793C203.867 24.3874 204.12 24.3414 204.625 24.3414C205.131 24.3414 205.596 24.1805 206.021 23.8587C206.446 23.5369 206.658 22.8761 206.658 21.8763V3.48227Z" fill="#343434"/>
    <path d="M215.548 25.031C215.456 25.031 215.41 24.985 215.41 24.8931V24.4793C215.41 24.3874 215.468 24.3414 215.583 24.3414H215.979C216.611 24.3414 217.041 24.284 217.271 24.169C218.121 23.7553 218.546 22.6175 218.546 20.7557V2.84443C218.546 2.07442 217.799 1.61472 216.306 1.46531C215.973 1.43083 215.738 1.4136 215.6 1.4136C215.474 1.4136 215.41 1.36763 215.41 1.27568V0.861949C215.41 0.770007 215.456 0.724037 215.548 0.724037H221.854L238.204 18.8077C238.261 18.8652 238.302 18.9111 238.324 18.9456C238.347 18.9686 238.382 18.9801 238.428 18.9801C238.485 18.9801 238.514 18.9284 238.514 18.825V6.94731C238.514 4.66027 238.324 3.16622 237.945 2.46517C237.566 1.76412 236.803 1.4136 235.654 1.4136H234.775C234.684 1.4136 234.638 1.36763 234.638 1.27568V0.861949C234.638 0.770007 234.684 0.724037 234.775 0.724037H243.734C243.826 0.724037 243.872 0.770007 243.872 0.861949V1.27568C243.872 1.36763 243.7 1.4136 243.355 1.4136C243.022 1.4136 242.465 1.60897 241.684 1.99972C240.915 2.39047 240.53 2.87316 240.53 3.44779V24.5311C240.53 24.7839 240.495 24.962 240.426 25.0655C240.357 25.1804 240.191 25.2379 239.927 25.2379C239.674 25.2379 239.485 25.1861 239.358 25.0827C239.232 24.9793 239.083 24.8299 238.91 24.6345L221.148 4.93035C221.033 4.81542 220.929 4.75796 220.837 4.75796C220.78 4.75796 220.751 4.81542 220.751 4.93035V22.1348C220.751 23.1807 221.578 23.8702 223.232 24.2035C223.692 24.2955 224.042 24.3414 224.283 24.3414C224.524 24.3414 224.645 24.3874 224.645 24.4793V24.8931C224.645 24.985 224.599 25.031 224.507 25.031H215.548Z" fill="#343434"/>
    <path d="M248.834 3.48227C248.834 2.10315 248.041 1.4136 246.456 1.4136C246.204 1.4136 246.077 1.36763 246.077 1.27568V0.861949C246.077 0.770007 246.123 0.724037 246.215 0.724037H254.847C254.939 0.724037 254.985 0.770007 254.985 0.861949V1.27568C254.985 1.36763 254.732 1.4136 254.226 1.4136C253.721 1.4136 253.256 1.57449 252.831 1.89629C252.406 2.21808 252.194 2.87891 252.194 3.87877V22.2728C252.194 23.6519 252.992 24.3414 254.588 24.3414C254.829 24.3414 254.95 24.3874 254.95 24.4793V24.8931C254.95 24.985 254.904 25.031 254.812 25.031H246.181C246.089 25.031 246.043 24.985 246.043 24.8931V24.4793C246.043 24.3874 246.296 24.3414 246.801 24.3414C247.306 24.3414 247.771 24.1805 248.196 23.8587C248.621 23.5369 248.834 22.8761 248.834 21.8763V3.48227Z" fill="#343434"/>
    <path d="M279.725 24.3759C279.667 24.4678 279.524 24.4908 279.294 24.4449C279.076 24.3874 278.817 24.3587 278.519 24.3587C278.22 24.3587 277.795 24.4219 277.244 24.5483C276.704 24.6632 275.848 24.8471 274.677 25.0999C273.505 25.3643 272.437 25.4964 271.472 25.4964C269.29 25.4964 267.171 24.985 265.115 23.9622C263.07 22.9278 261.434 21.4683 260.205 19.5835C258.976 17.6872 258.361 15.4921 258.361 12.9982C258.361 10.5043 258.976 8.24597 260.205 6.22327C261.997 3.25817 264.696 1.3274 268.302 0.430974C269.451 0.143658 270.599 0 271.748 0C273.322 0 275.188 0.264331 277.347 0.792993C278.002 0.95389 278.553 1.12053 279.001 1.29292C279.461 1.46531 279.742 1.55151 279.845 1.55151L280.362 1.4136H280.896C281.034 1.4136 281.103 1.51128 281.103 1.70666V7.06798C281.103 7.1829 281 7.24037 280.793 7.24037C280.586 7.24037 280.466 7.21738 280.431 7.17141C280.397 7.11395 280.362 7.05074 280.328 6.98178C280.293 6.90133 280.253 6.82089 280.207 6.74044C280.173 6.65999 280.133 6.58529 280.087 6.51633C280.052 6.44738 280.029 6.39566 280.018 6.36118C278.295 2.90189 275.682 1.17225 272.179 1.17225C269.02 1.17225 266.551 2.17786 264.77 4.18907C262.99 6.20028 262.1 8.86658 262.1 12.188C262.1 15.4978 263.076 18.3423 265.029 20.7212C266.993 23.1002 269.658 24.2897 273.023 24.2897C274.861 24.2897 276.532 23.7438 278.036 22.652C279.552 21.5602 280.741 20.2213 281.603 18.6353C281.626 18.5664 281.695 18.5319 281.809 18.5319H282.033C282.148 18.5319 282.206 18.6008 282.206 18.7388C282.206 18.8767 282.171 19.0088 282.102 19.1353L279.725 24.3759Z" fill="#343434"/>
    </svg>