<svg width="164" height="49" viewBox="0 0 164 49" fill="none" xmlns="http://www.w3.org/2000/svg">
    <path d="M0.193848 45.3487H1.17976C1.17976 45.6162 1.22197 45.8565 1.30941 46.0699C1.39383 46.2802 1.50539 46.4545 1.64709 46.5897C1.78578 46.725 1.94859 46.8392 2.13548 46.9264C2.32247 47.0135 2.51238 47.0766 2.7023 47.1156C2.89231 47.1547 3.08525 47.1727 3.28727 47.1727C3.83906 47.1727 4.27012 47.0555 4.58066 46.8242C4.89131 46.5897 5.04501 46.2802 5.04501 45.8956C5.04501 45.559 4.90936 45.2946 4.63795 45.1022C4.36362 44.8949 3.89927 44.6725 3.24209 44.4291L2.67517 44.2218C1.89734 43.9513 1.32749 43.6568 0.962682 43.3413C0.61294 43.0378 0.438063 42.6021 0.438063 42.0311C0.438063 41.376 0.682279 40.8531 1.17373 40.4595C1.66518 40.0658 2.3255 39.8674 3.15757 39.8674C3.44703 39.8674 3.71844 39.8915 3.96866 39.9396C4.21889 39.9876 4.45409 40.0598 4.66508 40.1529C4.8792 40.2461 5.06911 40.3663 5.23492 40.5166C5.40084 40.6668 5.54254 40.8381 5.66004 41.0304C5.77764 41.2228 5.8681 41.4452 5.93144 41.6946C5.99176 41.944 6.02191 42.2174 6.02191 42.5149H5.03896C5.03896 42.2205 4.99075 41.962 4.89725 41.7366C4.80084 41.5112 4.66811 41.3279 4.49927 41.1867C4.33044 41.0454 4.13144 40.9373 3.9023 40.8681C3.67617 40.799 3.42292 40.7629 3.13951 40.7629C2.6209 40.7629 2.20184 40.8742 1.88829 41.0965C1.57171 41.3189 1.41494 41.6105 1.41494 41.965C1.41494 42.3016 1.53553 42.566 1.77673 42.7643C2.00889 42.9477 2.44007 43.152 3.07315 43.3744L3.60386 43.5577C4.05611 43.723 4.3968 43.8642 4.632 43.9724C4.8671 44.0835 5.09624 44.2248 5.32539 44.3931C5.82595 44.7446 6.07315 45.2314 6.07315 45.8505C6.07315 46.5176 5.82292 47.0525 5.31934 47.4582C4.81889 47.8639 4.12247 48.0682 3.23301 48.0682C2.3737 48.0682 1.65312 47.8369 1.0682 47.3741C0.489319 46.9142 0.193848 46.2382 0.193848 45.3487Z" fill="#212121"/>
    <path d="M9.875 40.3632V40.0356H10.8609L12.1121 46.3402L13.7192 42.2653H14.3403L15.9743 46.3612L17.2105 40.0356H18.109V40.3632L16.5713 47.9058H15.6457L14.0117 43.7528L12.3654 47.9058H11.4459L9.875 40.3632Z" fill="#212121"/>
    <path d="M22.2607 47.9028V40.0356H23.2466V47.9028H22.2607Z" fill="#212121"/>
    <path d="M27.4224 45.3487H28.4082C28.4082 45.6162 28.4505 45.8565 28.5379 46.0699C28.6224 46.2802 28.7339 46.4545 28.8756 46.5897C29.0143 46.725 29.1771 46.8392 29.3641 46.9264C29.551 47.0135 29.7409 47.0766 29.9309 47.1156C30.1208 47.1547 30.3137 47.1727 30.5158 47.1727C31.0675 47.1727 31.4986 47.0555 31.8093 46.8242C32.1198 46.5897 32.2735 46.2802 32.2735 45.8956C32.2735 45.559 32.1378 45.2946 31.8665 45.1022C31.5921 44.8949 31.1278 44.6725 30.4706 44.4291L29.9038 44.2218C29.1258 43.9513 28.556 43.6568 28.1912 43.3413C27.8414 43.0378 27.6665 42.6021 27.6665 42.0311C27.6665 41.376 27.9108 40.8531 28.4022 40.4595C28.8937 40.0658 29.554 39.8674 30.3862 39.8674C30.6755 39.8674 30.9469 39.8915 31.1971 39.9396C31.4474 39.9876 31.6826 40.0598 31.8937 40.1529C32.1077 40.2461 32.2976 40.3663 32.4634 40.5166C32.6293 40.6668 32.771 40.8381 32.8886 41.0304C33.0061 41.2228 33.0966 41.4452 33.1599 41.6946C33.2202 41.944 33.2504 42.2174 33.2504 42.5149H32.2674C32.2674 42.2205 32.2192 41.962 32.1257 41.7366C32.0293 41.5112 31.8966 41.3279 31.7278 41.1867C31.5589 41.0454 31.3599 40.9373 31.1308 40.8681C30.9047 40.799 30.6514 40.7629 30.368 40.7629C29.8494 40.7629 29.4303 40.8742 29.1168 41.0965C28.8002 41.3189 28.6434 41.6105 28.6434 41.965C28.6434 42.3016 28.7641 42.566 29.0052 42.7643C29.2374 42.9477 29.6686 43.152 30.3017 43.3744L30.8323 43.5577C31.2846 43.723 31.6253 43.8642 31.8605 43.9724C32.0956 44.0835 32.3247 44.2248 32.5539 44.3931C33.0544 44.7446 33.3016 45.2314 33.3016 45.8505C33.3016 46.5176 33.0514 47.0525 32.5479 47.4582C32.0474 47.8639 31.351 48.0682 30.4615 48.0682C29.6022 48.0682 28.8817 47.8369 28.2967 47.3741C27.7178 46.9142 27.4224 46.2382 27.4224 45.3487Z" fill="#212121"/>
    <path d="M37.2964 45.3487H38.2823C38.2823 45.6162 38.3245 45.8565 38.412 46.0699C38.4964 46.2802 38.6079 46.4545 38.7496 46.5897C38.8883 46.725 39.0511 46.8392 39.2381 46.9264C39.425 47.0135 39.615 47.0766 39.8049 47.1156C39.9948 47.1547 40.1879 47.1727 40.3898 47.1727C40.9416 47.1727 41.3727 47.0555 41.6833 46.8242C41.9938 46.5897 42.1476 46.2802 42.1476 45.8956C42.1476 45.559 42.0119 45.2946 41.7406 45.1022C41.4662 44.8949 41.0019 44.6725 40.3446 44.4291L39.7778 44.2218C38.9999 43.9513 38.43 43.6568 38.0652 43.3413C37.7154 43.0378 37.5407 42.6021 37.5407 42.0311C37.5407 41.376 37.7848 40.8531 38.2763 40.4595C38.7677 40.0658 39.428 39.8674 40.2602 39.8674C40.5496 39.8674 40.8209 39.8915 41.0713 39.9396C41.3215 39.9876 41.5566 40.0598 41.7677 40.1529C41.9818 40.2461 42.1717 40.3663 42.3375 40.5166C42.5033 40.6668 42.645 40.8381 42.7626 41.0304C42.8802 41.2228 42.9707 41.4452 43.0341 41.6946C43.0943 41.944 43.1244 42.2174 43.1244 42.5149H42.1416C42.1416 42.2205 42.0934 41.962 41.9999 41.7366C41.9033 41.5112 41.7707 41.3279 41.6019 41.1867C41.433 41.0454 41.2341 40.9373 41.0049 40.8681C40.7788 40.799 40.5255 40.7629 40.2421 40.7629C39.7235 40.7629 39.3045 40.8742 38.9909 41.0965C38.6743 41.3189 38.5175 41.6105 38.5175 41.965C38.5175 42.3016 38.6381 42.566 38.8792 42.7643C39.1114 42.9477 39.5426 43.152 40.1758 43.3744L40.7064 43.5577C41.1586 43.723 41.4993 43.8642 41.7345 43.9724C41.9697 44.0835 42.1989 44.2248 42.428 44.3931C42.9285 44.7446 43.1758 45.2314 43.1758 45.8505C43.1758 46.5176 42.9254 47.0525 42.422 47.4582C41.9215 47.8639 41.225 48.0682 40.3355 48.0682C39.4763 48.0682 38.7557 47.8369 38.1707 47.3741C37.5919 46.9142 37.2964 46.2382 37.2964 45.3487Z" fill="#212121"/>
    <path fill-rule="evenodd" clip-rule="evenodd" d="M52.2031 47.9028V40.0356H55.5317C55.978 40.0356 56.3609 40.1138 56.6775 40.27C56.994 40.4263 57.2352 40.6607 57.404 40.9702C57.5699 41.2827 57.6544 41.6584 57.6544 42.1061C57.6544 42.9596 57.3106 43.5335 56.6232 43.828C57.5096 44.0804 57.9528 44.7235 57.9528 45.7603C57.9528 46.4483 57.7659 46.9773 57.389 47.3469C57.0121 47.7165 56.4845 47.9028 55.8062 47.9028H52.2031ZM53.1891 43.5245H55.384C55.794 43.5245 56.1106 43.4103 56.3337 43.1819C56.5568 42.9535 56.6684 42.632 56.6684 42.2172C56.6684 41.7875 56.5568 41.46 56.3337 41.2346C56.1106 41.0092 55.788 40.8981 55.3599 40.8981H53.1891V43.5245ZM55.6313 47.0404H53.1891V44.3449H55.6313C56.0594 44.3449 56.388 44.4621 56.6202 44.6995C56.8523 44.9369 56.9669 45.2704 56.9669 45.7061C56.9669 46.1358 56.8493 46.4664 56.6202 46.6948C56.388 46.9261 56.0594 47.0404 55.6313 47.0404Z" fill="#212121"/>
    <path d="M62.1526 47.9028V40.0356H67.0702V40.8981H63.1386V43.5124H66.5425V44.3749H63.1386V47.0374H67.0792V47.8998H62.1526V47.9028Z" fill="#212121"/>
    <path fill-rule="evenodd" clip-rule="evenodd" d="M70.863 47.5754V47.9029H71.7706L72.5815 45.8054H75.9885L76.7725 47.9029H77.7433V47.5754L74.7946 40.0327H73.8117L70.863 47.5754ZM75.681 44.9881H72.874L74.285 41.34L75.681 44.9881Z" fill="#212121"/>
    <path d="M81.4607 45.3395V40.0356H82.4466V45.3696C82.4466 45.7362 82.522 46.0547 82.6757 46.3222C82.8265 46.5927 83.0496 46.8 83.3421 46.9503C83.6345 47.0975 83.9782 47.1726 84.3731 47.1726C84.9731 47.1726 85.4405 47.0133 85.7812 46.6918C86.1189 46.3732 86.2907 45.9315 86.2907 45.3696V40.0356H87.2766V45.3395C87.2766 46.1959 87.0083 46.866 86.4747 47.3559C85.947 47.8337 85.2476 48.0741 84.3731 48.0741C83.4868 48.0741 82.7812 47.8367 82.2567 47.3559C81.726 46.8691 81.4607 46.1989 81.4607 45.3395Z" fill="#212121"/>
    <path d="M91.2261 40.9013V40.0388H97.0061V40.9013H94.618V47.906H93.6291V40.9013H91.2261Z" fill="#212121"/>
    <path d="M100.534 40.3632V40.0356H101.504L103.829 43.8009L106.215 40.0356H107.104V40.3632L104.318 44.7476V47.9028H103.332V44.7776L100.534 40.3632Z" fill="#212121"/>
    <path d="M115.346 45.2405V42.7042C115.346 41.8087 115.611 41.1146 116.142 40.6157C116.672 40.1169 117.414 39.8674 118.37 39.8674C119.19 39.8674 119.875 40.0958 120.424 40.5556C120.973 41.0154 121.244 41.6765 121.244 42.5389V42.6531H120.258V42.5389C120.258 41.959 120.068 41.5173 119.688 41.2198C119.313 40.9162 118.871 40.7629 118.359 40.7629C117.924 40.7629 117.553 40.8352 117.252 40.9853C116.947 41.1326 116.718 41.3429 116.564 41.6225C116.411 41.8989 116.332 42.2355 116.332 42.6261V45.3066C116.332 45.9016 116.507 46.3614 116.854 46.689C117.204 47.0165 117.704 47.1788 118.356 47.1788C118.862 47.1788 119.305 47.0255 119.685 46.719C120.065 46.4185 120.255 45.9797 120.255 45.3967V45.2886H121.241V45.3967C121.241 46.2682 120.966 46.9323 120.421 47.3921C119.872 47.8489 119.187 48.0772 118.367 48.0772C117.411 48.0772 116.669 47.8278 116.139 47.332C115.611 46.8332 115.346 46.136 115.346 45.2405Z" fill="#212121"/>
    <path d="M125.508 47.9028V40.0356H126.494V47.0404H130.528V47.9028H125.508Z" fill="#212121"/>
    <path d="M134.549 47.9028V40.0356H135.535V47.9028H134.549Z" fill="#212121"/>
    <path d="M140.101 47.9028V40.0356H141.005L144.931 46.0938V40.0356H145.916V47.9028H145.006L141.087 41.8567V47.9028H140.101Z" fill="#212121"/>
    <path d="M150.475 47.9028V40.0356H151.461V47.9028H150.475Z" fill="#212121"/>
    <path d="M155.859 45.2405V42.7042C155.859 41.8087 156.125 41.1146 156.655 40.6157C157.186 40.1169 157.927 39.8674 158.883 39.8674C159.703 39.8674 160.388 40.0958 160.937 40.5556C161.486 41.0154 161.757 41.6765 161.757 42.5389V42.6531H160.771V42.5389C160.771 41.959 160.581 41.5173 160.201 41.2198C159.827 40.9162 159.384 40.7629 158.872 40.7629C158.438 40.7629 158.066 40.8352 157.765 40.9853C157.461 41.1326 157.231 41.3429 157.078 41.6225C156.923 41.8989 156.845 42.2355 156.845 42.6261V45.3066C156.845 45.9016 157.021 46.3614 157.367 46.689C157.717 47.0165 158.217 47.1788 158.869 47.1788C159.375 47.1788 159.818 47.0255 160.198 46.719C160.578 46.4185 160.768 45.9797 160.768 45.3967V45.2886H161.754V45.3967C161.754 46.2682 161.479 46.9323 160.934 47.3921C160.385 47.8489 159.7 48.0772 158.88 48.0772C157.924 48.0772 157.183 47.8278 156.652 47.332C156.125 46.8332 155.859 46.136 155.859 45.2405Z" fill="#212121"/>
    <path d="M162.884 1.81802C160.165 2.49419 157.243 2.18167 155.109 1.95023C154.147 1.84807 153.314 1.75792 152.712 1.78202C152.431 1.79402 151.575 1.8271 151.479 2.49117C151.415 2.92087 151.472 3.3536 151.524 3.77131C151.65 4.76595 151.761 5.62546 150.48 6.50292C149.696 7.04084 148.985 6.87858 148.156 6.46985C147.855 6.31958 147.475 6.17235 147.194 6.34964C146.907 6.52995 146.917 6.90863 146.926 7.2752C146.932 7.53659 146.941 7.86122 146.821 7.9664C146.739 8.03851 146.57 8.02943 146.441 8.01148C146.045 7.95138 145.774 8.00845 145.614 8.18877C145.376 8.45318 145.485 8.85586 145.578 9.21044C145.626 9.39075 145.705 9.68825 145.656 9.77235C145.648 9.78738 145.605 9.79938 145.593 9.8024C142.729 10.4305 141.092 11.4192 140.591 12.8255C140.232 13.8322 140.465 15.0492 141.3 16.5458C142.021 17.8379 143.112 19.2112 144.167 20.5395C145.325 21.9999 146.525 23.5084 147.17 24.8427C147.861 26.2701 147.836 27.3128 147.1 28.1182C146.326 28.7071 145.421 28.8724 144.408 28.611C142.747 28.1783 140.908 26.6427 138.942 24.0403C136.578 20.9121 134.088 16.3023 131.543 10.3373C130.928 8.89791 130.15 7.72891 129.231 6.86052C128.299 5.98004 127.187 5.37899 125.929 5.07252C122.546 4.25214 117.96 5.47823 111.904 8.82581C106.084 12.0412 98.7998 17.276 89.6374 24.8246C89.559 24.8456 89.2123 24.8307 87.7681 24.0493C86.6918 23.4694 85.2173 22.5828 83.5108 21.5581C80.3421 19.656 76.4014 17.291 71.8699 14.9381C66.4941 12.1464 61.6701 10.094 57.1264 8.66355C54.4159 7.81009 51.7989 7.18505 49.3537 6.80939C46.6583 6.39472 44.0895 6.26553 41.7166 6.42779C39.1358 6.60508 36.7147 7.13099 34.5228 7.99343C32.1832 8.91294 30.0364 10.2382 28.1461 11.936C27.4374 12.1224 26.7199 12.3206 25.9963 12.534C22.6165 13.5287 19.0527 14.8389 15.3985 16.4256C8.14132 19.5778 2.79871 22.8232 1.33643 23.7429L1.60778 24.1695C3.06407 23.256 8.37955 20.0286 15.6035 16.8883C19.2366 15.3107 22.7823 14.0065 26.141 13.0178C30.148 11.8369 33.9258 11.0916 37.372 10.8001C40.2815 10.5537 43.5105 10.7099 46.9718 11.2598C50.7738 11.8669 54.7506 12.9367 58.7937 14.4453C63.2529 16.107 67.7694 18.2977 72.2226 20.9511C77.116 23.869 81.9701 27.3729 86.6495 31.3726L86.743 31.4537L86.8636 31.4297C86.9268 31.4176 93.3399 30.0804 100.349 27.403C104.471 25.8284 107.993 24.1034 110.815 22.2764C114.363 19.9805 116.817 17.5104 118.108 14.9381L117.656 14.7127C116.407 17.2038 114.014 19.6048 110.543 21.8497C107.752 23.6556 104.263 25.3656 100.175 26.9282C93.7318 29.3922 87.7952 30.7145 86.8817 30.9098C82.2114 26.9282 77.3662 23.4333 72.4819 20.5214C68.0046 17.8529 63.461 15.6503 58.9715 13.9764C54.8983 12.4559 50.8883 11.3771 47.0533 10.7671C43.5498 10.2081 40.2785 10.0519 37.3298 10.3013C34.8002 10.5146 32.0927 10.9714 29.2526 11.6625C30.9077 10.3163 32.7379 9.24352 34.7128 8.46821C36.8564 7.62383 39.2262 7.10992 41.7558 6.93565C44.0895 6.77632 46.6221 6.90258 49.2813 7.31131C51.7024 7.68383 54.2923 8.30292 56.9787 9.14731C61.4922 10.5687 66.289 12.6091 71.6407 15.3888C76.1602 17.7358 80.0949 20.0977 83.2545 21.9939C86.5017 23.9441 88.2173 24.9538 89.1399 25.2423C88.0244 26.2189 87.4786 27.0935 87.4515 27.1355L87.8827 27.3999C88.1178 27.0213 88.8505 26.0837 89.951 25.2273L89.957 25.2243C99.0982 17.6907 106.362 12.4709 112.156 9.27054C118.096 5.98901 122.564 4.77805 125.817 5.56828C128.181 6.1423 129.903 7.76804 131.085 10.5387C135.834 21.6724 140.398 28.0911 144.288 29.1008C144.638 29.191 144.978 29.236 145.31 29.236C146.085 29.236 146.808 28.9896 147.432 28.5058L147.448 28.4938L147.462 28.4788C148.361 27.5112 148.418 26.252 147.631 24.6263C146.963 23.2409 145.747 21.7084 144.571 20.2299C142.509 17.6336 140.377 14.9501 141.073 12.9968C141.282 12.4138 141.725 11.921 142.428 11.4852C143.205 11.0045 144.309 10.6047 145.71 10.2952C145.927 10.2471 146.042 10.1269 146.096 10.0369C146.259 9.76932 146.166 9.4208 146.076 9.08418C146.034 8.92494 145.943 8.58842 146 8.52832C146.015 8.51026 146.115 8.47416 146.374 8.51329C146.715 8.56431 146.98 8.51026 147.164 8.348C147.462 8.08651 147.451 7.65085 147.441 7.26623C147.438 7.11597 147.429 6.84247 147.475 6.77934C147.496 6.77339 147.607 6.76129 147.939 6.92365C148.753 7.32633 149.724 7.64178 150.776 6.92063C152.31 5.86588 152.163 4.72087 152.033 3.70818C151.982 3.3055 151.934 2.92692 151.985 2.56327C152.048 2.13054 153.58 2.2928 155.06 2.45214C157.231 2.68651 160.204 3.00508 163.011 2.30783L162.884 1.81802Z" fill="#7B5F39" stroke="#7B5F39" stroke-width="1.4175"/>
</svg>