<?xml version="1.0" encoding="utf-8"?>
<!-- Generator: Adobe Illustrator 23.1.0, SVG Export Plug-In . SVG Version: 6.00 Build 0)  -->
<svg version="1.1" id="Слой_1" xmlns="http://www.w3.org/2000/svg" xmlns:xlink="http://www.w3.org/1999/xlink" x="0px" y="0px"
	 viewBox="0 0 369.87 145.3" style="enable-background:new 0 0 369.87 145.3;" xml:space="preserve">
<style type="text/css">
	.st0{fill:transparent;}
	.st1{fill:url(#SVGID_1_);}
	.st2{fill:url(#SVGID_2_);}
	.st3{fill:url(#SVGID_3_);}
	.st4{fill:#3B3B4F;}
	.st5{fill:#945FAD;}
</style>
<g>
	<rect class="st0" width="369.87" height="145.3"/>
	<g>
		<linearGradient id="SVGID_1_" gradientUnits="userSpaceOnUse" x1="30.7376" y1="46.4739" x2="140.9793" y2="96.5838">
			<stop  offset="0" style="stop-color:#4A6AB8"/>
			<stop  offset="0.5373" style="stop-color:#7264B2"/>
			<stop  offset="1" style="stop-color:#945FAD"/>
		</linearGradient>
		<path class="st1" d="M51.79,53.65c-15.18-1.6-20.41,18.6-5.13,23.09l28.22,0.32v-27.9C71.88,34.19,50.08,36.65,51.79,53.65z"/>
		<linearGradient id="SVGID_2_" gradientUnits="userSpaceOnUse" x1="37.8949" y1="30.7278" x2="148.1366" y2="80.8377">
			<stop  offset="0" style="stop-color:#4A6AB8"/>
			<stop  offset="0.5373" style="stop-color:#7264B2"/>
			<stop  offset="1" style="stop-color:#945FAD"/>
		</linearGradient>
		<path class="st2" d="M114.31,53.65c1.71-16.99-20.09-19.45-23.08-4.49v27.9l28.21-0.32C134.72,72.24,129.49,52.04,114.31,53.65z"
			/>
		<linearGradient id="SVGID_3_" gradientUnits="userSpaceOnUse" x1="31.1192" y1="45.6344" x2="141.3609" y2="95.7443">
			<stop  offset="0" style="stop-color:#4A6AB8"/>
			<stop  offset="0.5373" style="stop-color:#7264B2"/>
			<stop  offset="1" style="stop-color:#945FAD"/>
		</linearGradient>
		<path class="st3" d="M124.89,43.07c-6.31-18.38-30.99-21.59-41.36-4.81c-11.7-16.84-35.69-13.89-41.94,5.38
			c-16.15,3.21-27.63,35.72,3.71,45.43h33.74v31.62h8.34V89.07h33.9C140.31,85.91,152.2,55.78,124.89,43.07z M45.56,80.78h-0.01
			c-18.1-6.44-14.06-29.19,2.71-30.79c4.41-22.22,26.66-16.04,30.82-3.23l0.15,33.98L45.56,80.78z M121.05,80.78l-33.67-0.04V46.91
			c4-13.88,26.87-17.92,30.97,3.08c16.76,1.6,20.81,24.35,2.71,30.79H121.05z"/>
	</g>
	<g>
		<g>
			<path class="st4" d="M158.55,93.84v-11.2h1.57v11.2H158.55z M159.64,88.92v-1.41h3.63v1.41H159.64z M163.46,88.42l-1.47-0.22
				l4.02-5.55h1.71L163.46,88.42z M166.09,93.84l-4.06-5.52l1.3-0.8l4.59,6.32H166.09z"/>
			<path class="st4" d="M168.07,93.83l0.1-1.3c0.08,0.01,0.14,0.02,0.21,0.03c0.06,0.01,0.12,0.02,0.18,0.02
				c0.34,0,0.61-0.12,0.81-0.35c0.2-0.23,0.34-0.55,0.44-0.94c0.1-0.39,0.17-0.83,0.21-1.32c0.04-0.49,0.08-0.98,0.1-1.47l0.14-3.14
				h6.51v8.48h-1.54v-7.58l0.37,0.45h-4.35l0.35-0.46l-0.11,2.35c-0.03,0.75-0.09,1.45-0.18,2.1c-0.08,0.65-0.22,1.22-0.39,1.71
				c-0.18,0.49-0.42,0.88-0.72,1.15s-0.7,0.42-1.18,0.42c-0.14,0-0.29-0.01-0.44-0.04S168.25,93.87,168.07,93.83z"/>
			<path class="st4" d="M179.73,93.84v-8.48h1.54v6.18l5.2-6.18h1.39v8.48h-1.54v-6.18l-5.18,6.18H179.73z"/>
			<path class="st4" d="M190.84,93.84v-8.48h1.54v3.6h4.83v-3.6h1.54v8.48h-1.54v-3.55h-4.83v3.55H190.84z"/>
			<path class="st4" d="M201.73,93.84v-8.48h1.54v6.18l5.2-6.18h1.39v8.48h-1.54v-6.18l-5.18,6.18H201.73z"/>
			<path class="st4" d="M212.84,93.84v-8.48h1.54v8.48H212.84z M213.91,90.26v-1.31h2.8v1.31H213.91z M217.09,89.78l-1.42-0.19
				l3.25-4.22h1.65L217.09,89.78z M218.98,93.84l-3.28-4.13l1.26-0.77l3.82,4.9H218.98z"/>
			<path class="st4" d="M224.66,93.94c-0.63,0-1.18-0.11-1.66-0.32c-0.47-0.21-0.84-0.51-1.1-0.89c-0.26-0.38-0.38-0.81-0.38-1.29
				c0-0.46,0.11-0.87,0.33-1.25c0.22-0.37,0.58-0.67,1.07-0.9s1.17-0.34,2.01-0.34h2.69v1.1H225c-0.77,0-1.29,0.13-1.55,0.38
				c-0.27,0.26-0.4,0.57-0.4,0.93c0,0.42,0.17,0.75,0.5,1c0.33,0.25,0.79,0.38,1.38,0.38c0.58,0,1.08-0.13,1.51-0.38
				s0.74-0.63,0.94-1.12l0.3,1.06c-0.2,0.5-0.56,0.9-1.07,1.19C226.09,93.79,225.44,93.94,224.66,93.94z M227.45,93.84v-1.79
				l-0.08-0.34v-3.06c0-0.65-0.19-1.16-0.57-1.51s-0.95-0.54-1.7-0.54c-0.5,0-0.99,0.08-1.47,0.25c-0.48,0.17-0.89,0.39-1.22,0.66
				l-0.64-1.15c0.44-0.35,0.96-0.62,1.58-0.81c0.61-0.19,1.26-0.28,1.93-0.28c1.16,0,2.06,0.28,2.69,0.85
				c0.63,0.57,0.94,1.43,0.94,2.59v5.12H227.45z"/>
			<path class="st4" d="M238.42,85.27c0.88,0,1.66,0.19,2.35,0.56c0.69,0.37,1.24,0.88,1.63,1.54c0.39,0.65,0.59,1.4,0.59,2.24
				c0,0.83-0.2,1.58-0.59,2.24s-0.94,1.18-1.63,1.55c-0.69,0.37-1.48,0.56-2.35,0.56c-0.72,0-1.39-0.12-2.01-0.35
				c-0.61-0.23-1.13-0.58-1.54-1.02l0.9-0.9c0.35,0.34,0.74,0.59,1.18,0.76c0.43,0.17,0.9,0.25,1.42,0.25
				c0.62,0,1.17-0.13,1.65-0.39c0.48-0.26,0.86-0.63,1.14-1.1c0.28-0.47,0.42-1,0.42-1.6c0-0.6-0.14-1.13-0.42-1.59
				c-0.28-0.46-0.66-0.83-1.14-1.1c-0.48-0.27-1.03-0.4-1.65-0.4c-0.51,0-0.98,0.09-1.42,0.26c-0.43,0.17-0.82,0.43-1.18,0.77
				l-0.9-0.88c0.42-0.46,0.93-0.81,1.54-1.04C237.03,85.39,237.7,85.27,238.42,85.27z M237.28,90.12v-1.14h4.75v1.14H237.28z"/>
			<path class="st4" d="M248.87,93.94c-0.86,0-1.63-0.19-2.31-0.56c-0.68-0.37-1.21-0.89-1.59-1.54s-0.58-1.4-0.58-2.24
				c0-0.84,0.19-1.59,0.58-2.24c0.38-0.65,0.91-1.16,1.59-1.53c0.68-0.37,1.45-0.55,2.31-0.55c0.77,0,1.45,0.15,2.06,0.46
				c0.6,0.3,1.07,0.75,1.4,1.35l-1.17,0.75c-0.28-0.42-0.62-0.72-1.02-0.92s-0.83-0.3-1.29-0.3c-0.55,0-1.05,0.12-1.49,0.37
				s-0.78,0.59-1.04,1.03c-0.26,0.44-0.38,0.97-0.38,1.58c0,0.61,0.13,1.14,0.38,1.58c0.26,0.45,0.6,0.79,1.04,1.04
				c0.44,0.25,0.93,0.37,1.49,0.37c0.46,0,0.89-0.1,1.29-0.3s0.74-0.5,1.02-0.92l1.17,0.74c-0.33,0.59-0.8,1.04-1.4,1.35
				S249.64,93.94,248.87,93.94z"/>
			<path class="st4" d="M255.88,93.84v-7.54l0.38,0.4h-3.49v-1.34h7.74v1.34h-3.47l0.37-0.4v7.54H255.88z"/>
			<path class="st4" d="M265.49,93.94c-0.91,0-1.7-0.19-2.39-0.56c-0.69-0.37-1.22-0.89-1.6-1.54c-0.38-0.65-0.57-1.4-0.57-2.24
				c0-0.84,0.18-1.59,0.55-2.24c0.37-0.65,0.88-1.16,1.52-1.53c0.64-0.37,1.37-0.55,2.18-0.55c0.82,0,1.55,0.18,2.18,0.54
				c0.63,0.36,1.12,0.87,1.48,1.53c0.36,0.66,0.54,1.42,0.54,2.3c0,0.06,0,0.14-0.01,0.22c0,0.08-0.01,0.17-0.02,0.24h-7.22v-1.1
				h6.42l-0.62,0.38c0.01-0.54-0.1-1.03-0.34-1.46c-0.24-0.43-0.56-0.76-0.97-1c-0.41-0.24-0.89-0.36-1.43-0.36
				c-0.53,0-1.01,0.12-1.42,0.36c-0.42,0.24-0.74,0.58-0.98,1.01c-0.23,0.43-0.35,0.93-0.35,1.48v0.26c0,0.57,0.13,1.07,0.39,1.51
				c0.26,0.44,0.63,0.79,1.1,1.03c0.47,0.25,1.01,0.37,1.62,0.37c0.5,0,0.96-0.08,1.37-0.26c0.41-0.17,0.77-0.43,1.08-0.77
				l0.85,0.99c-0.38,0.45-0.86,0.79-1.43,1.02S266.2,93.94,265.49,93.94z"/>
			<path class="st4" d="M273.09,93.84v-7.54l0.38,0.4h-3.49v-1.34h7.74v1.34h-3.47l0.37-0.4v7.54H273.09z"/>
			<path class="st4" d="M279.3,93.84v-8.48h1.54v6.18l5.2-6.18h1.39v8.48h-1.54v-6.18l-5.18,6.18H279.3z"/>
			<path class="st4" d="M295.75,90.37c-0.45,0.21-0.91,0.38-1.38,0.5c-0.47,0.12-0.96,0.18-1.46,0.18c-1.02,0-1.83-0.24-2.42-0.72
				c-0.59-0.48-0.89-1.22-0.89-2.22v-2.75h1.54v2.66c0,0.61,0.19,1.06,0.57,1.34c0.38,0.29,0.89,0.43,1.53,0.43
				c0.41,0,0.82-0.05,1.26-0.16c0.43-0.11,0.86-0.26,1.27-0.45V90.37z M295.64,93.84v-8.48h1.54v8.48H295.64z"/>
			<path class="st4" d="M303.92,93.94c-0.91,0-1.7-0.19-2.39-0.56c-0.69-0.37-1.22-0.89-1.6-1.54c-0.38-0.65-0.57-1.4-0.57-2.24
				c0-0.84,0.18-1.59,0.55-2.24c0.37-0.65,0.88-1.16,1.52-1.53c0.64-0.37,1.37-0.55,2.18-0.55c0.82,0,1.55,0.18,2.18,0.54
				c0.63,0.36,1.12,0.87,1.48,1.53c0.36,0.66,0.54,1.42,0.54,2.3c0,0.06,0,0.14-0.01,0.22c0,0.08-0.01,0.17-0.02,0.24h-7.22v-1.1
				h6.42l-0.62,0.38c0.01-0.54-0.1-1.03-0.34-1.46c-0.24-0.43-0.56-0.76-0.97-1c-0.41-0.24-0.89-0.36-1.43-0.36
				c-0.53,0-1.01,0.12-1.42,0.36c-0.42,0.24-0.74,0.58-0.98,1.01c-0.23,0.43-0.35,0.93-0.35,1.48v0.26c0,0.57,0.13,1.07,0.39,1.51
				c0.26,0.44,0.63,0.79,1.1,1.03c0.47,0.25,1.01,0.37,1.62,0.37c0.5,0,0.96-0.08,1.37-0.26c0.41-0.17,0.77-0.43,1.08-0.77
				l0.85,0.99c-0.38,0.45-0.86,0.79-1.43,1.02S304.63,93.94,303.92,93.94z"/>
			<path class="st4" d="M313.89,93.94c-0.86,0-1.63-0.19-2.31-0.56c-0.68-0.37-1.21-0.89-1.59-1.54s-0.58-1.4-0.58-2.24
				c0-0.84,0.19-1.59,0.58-2.24c0.38-0.65,0.91-1.16,1.59-1.53c0.68-0.37,1.45-0.55,2.31-0.55c0.77,0,1.45,0.15,2.06,0.46
				c0.6,0.3,1.07,0.75,1.4,1.35l-1.17,0.75c-0.28-0.42-0.62-0.72-1.02-0.92s-0.83-0.3-1.29-0.3c-0.55,0-1.05,0.12-1.49,0.37
				s-0.78,0.59-1.04,1.03c-0.26,0.44-0.38,0.97-0.38,1.58c0,0.61,0.13,1.14,0.38,1.58c0.26,0.45,0.6,0.79,1.04,1.04
				c0.44,0.25,0.93,0.37,1.49,0.37c0.46,0,0.89-0.1,1.29-0.3s0.74-0.5,1.02-0.92l1.17,0.74c-0.33,0.59-0.8,1.04-1.4,1.35
				S314.66,93.94,313.89,93.94z"/>
			<path class="st4" d="M319.33,93.84v-8.48h1.54v8.48H319.33z M320.4,90.26v-1.31h2.8v1.31H320.4z M323.59,89.78l-1.42-0.19
				l3.25-4.22h1.65L323.59,89.78z M325.48,93.84l-3.28-4.13l1.26-0.77l3.82,4.9H325.48z"/>
			<path class="st4" d="M332.25,93.94c-0.85,0-1.61-0.19-2.27-0.56s-1.18-0.89-1.57-1.54s-0.58-1.4-0.58-2.23
				c0-0.84,0.19-1.59,0.58-2.24c0.38-0.65,0.91-1.16,1.57-1.53s1.42-0.55,2.27-0.55c0.84,0,1.6,0.18,2.26,0.55s1.19,0.88,1.57,1.52
				c0.38,0.65,0.57,1.4,0.57,2.25c0,0.84-0.19,1.59-0.57,2.24c-0.38,0.65-0.9,1.16-1.57,1.54S333.09,93.94,332.25,93.94z
				 M332.25,92.6c0.54,0,1.03-0.12,1.46-0.37c0.43-0.25,0.77-0.59,1.02-1.05c0.25-0.45,0.37-0.98,0.37-1.58
				c0-0.61-0.12-1.13-0.37-1.58c-0.25-0.44-0.58-0.79-1.02-1.03s-0.92-0.37-1.46-0.37s-1.03,0.12-1.46,0.37s-0.77,0.59-1.02,1.03
				c-0.26,0.44-0.38,0.97-0.38,1.58c0,0.6,0.13,1.12,0.38,1.58c0.26,0.45,0.6,0.8,1.02,1.05C331.22,92.47,331.7,92.6,332.25,92.6z"
				/>
			<path class="st4" d="M338.87,93.84v-8.48h1.54v6.18l5.2-6.18H347v8.48h-1.54v-6.18l-5.18,6.18H338.87z M342.84,84.26
				c-0.78,0-1.39-0.19-1.83-0.57c-0.44-0.38-0.67-0.92-0.68-1.64h1.04c0.01,0.41,0.15,0.73,0.41,0.96c0.26,0.23,0.61,0.35,1.05,0.35
				c0.44,0,0.79-0.12,1.06-0.35s0.41-0.55,0.42-0.96h1.07c-0.01,0.71-0.24,1.26-0.69,1.64C344.23,84.07,343.62,84.26,342.84,84.26z"
				/>
			<path class="st4" d="M158.29,113.04v-8.48h1.58l3.65,6.27h-0.64l3.74-6.27h1.44v8.48h-1.39v-6.75l0.26,0.14l-3.42,5.65h-0.67
				l-3.44-5.76l0.3-0.06v6.78H158.29z"/>
			<path class="st4" d="M174.84,113.14c-0.91,0-1.7-0.19-2.39-0.56c-0.69-0.37-1.22-0.89-1.6-1.54c-0.38-0.65-0.57-1.4-0.57-2.24
				c0-0.84,0.18-1.59,0.55-2.24c0.37-0.65,0.88-1.16,1.52-1.53c0.64-0.37,1.37-0.55,2.18-0.55c0.82,0,1.55,0.18,2.18,0.54
				c0.63,0.36,1.12,0.87,1.48,1.53c0.36,0.66,0.54,1.42,0.54,2.3c0,0.06,0,0.14-0.01,0.22c0,0.08-0.01,0.17-0.02,0.24h-7.22v-1.1
				h6.42l-0.62,0.38c0.01-0.54-0.1-1.03-0.34-1.46c-0.24-0.43-0.56-0.76-0.97-1c-0.41-0.24-0.89-0.36-1.43-0.36
				c-0.53,0-1.01,0.12-1.42,0.36c-0.42,0.24-0.74,0.58-0.98,1.01c-0.23,0.43-0.35,0.93-0.35,1.48v0.26c0,0.57,0.13,1.07,0.39,1.51
				c0.26,0.44,0.63,0.79,1.1,1.03c0.47,0.25,1.01,0.37,1.62,0.37c0.5,0,0.96-0.08,1.37-0.26c0.41-0.17,0.77-0.43,1.08-0.77
				l0.85,0.99c-0.38,0.45-0.86,0.79-1.43,1.02S175.54,113.14,174.84,113.14z"/>
			<path class="st4" d="M179.61,115.01v-3.31h9.98v3.31h-1.44v-1.97h-7.09v1.97H179.61z M186.76,112.33v-6.42h-3.68l-0.08,1.63
				c-0.02,0.53-0.06,1.05-0.1,1.54s-0.12,0.95-0.22,1.37c-0.1,0.42-0.25,0.76-0.44,1.02c-0.19,0.27-0.45,0.43-0.77,0.5l-1.52-0.27
				c0.33,0.01,0.6-0.1,0.8-0.33c0.2-0.23,0.36-0.55,0.47-0.95c0.11-0.41,0.19-0.87,0.25-1.38c0.05-0.52,0.1-1.05,0.13-1.61
				l0.13-2.86h6.58v7.76H186.76z"/>
			<path class="st4" d="M191.59,113.04v-8.48h1.54v6.18l5.2-6.18h1.39v8.48h-1.54v-6.18l-5.18,6.18H191.59z"/>
			<path class="st4" d="M202.69,113.04v-8.48h1.54v7.14h4.64v-7.14h1.54v8.48H202.69z M210.29,115.01v-2.05l0.38,0.08h-1.81v-1.34
				h2.88v3.31H210.29z"/>
			<path class="st4" d="M213.73,113.04v-8.48h1.54v6.18l5.2-6.18h1.39v8.48h-1.54v-6.18l-5.18,6.18H213.73z"/>
			<path class="st4" d="M224.84,113.04v-8.48h1.54v3.6h4.83v-3.6h1.54v8.48h-1.54v-3.55h-4.83v3.55H224.84z"/>
			<path class="st4" d="M239.56,107.45c1.08,0.01,1.9,0.26,2.46,0.74c0.56,0.48,0.84,1.16,0.84,2.03c0,0.92-0.31,1.62-0.92,2.12
				c-0.61,0.5-1.49,0.74-2.63,0.73l-3.57-0.02v-8.48h1.54v2.86L239.56,107.45z M239.19,111.89c0.68,0.01,1.21-0.13,1.57-0.42
				s0.54-0.71,0.54-1.28c0-0.55-0.18-0.96-0.54-1.22c-0.36-0.26-0.88-0.39-1.58-0.4l-1.92-0.03v3.33L239.19,111.89z M244.12,113.04
				v-8.48h1.54v8.48H244.12z"/>
		</g>
	</g>
	<g>
		<path class="st5" d="M176.91,67.21l-2.33-6.99h-9.66l-2.26,6.99h-4.25l8.81-25.83h5.25l8.81,25.83H176.91z M169.84,45.23h-0.19
			l-3.74,11.39h7.62L169.84,45.23z"/>
		<path class="st5" d="M194,41.38h4.18v10.84h4.48l4.59-8.04c0.57-1.01,1.17-1.73,1.79-2.16c0.63-0.43,1.4-0.65,2.31-0.65h1.96v3.7
			h-2.33l-3.7,6.5c-0.42,0.71-0.81,1.23-1.17,1.55c-0.36,0.32-0.8,0.57-1.31,0.74v0.19c0.59,0.12,1.1,0.33,1.52,0.63
			c0.42,0.3,0.85,0.84,1.29,1.63l4.11,7.19h2.26v3.7h-2.55c-0.81,0-1.52-0.2-2.11-0.61c-0.59-0.41-1.18-1.13-1.78-2.17l-4.88-8.51
			h-4.48v11.29H194V41.38z"/>
		<path class="st5" d="M216.05,63.95h2.52c0.3-0.39,0.55-0.87,0.78-1.43c0.22-0.55,0.41-1.24,0.55-2.06
			c0.15-0.81,0.26-1.77,0.35-2.87c0.09-1.1,0.13-2.39,0.13-3.88v-5.75h13.99v19.24h-4.03V51.26h-6.07v2.63
			c0,1.78-0.07,3.33-0.2,4.66c-0.14,1.33-0.32,2.48-0.56,3.44c-0.23,0.96-0.52,1.76-0.85,2.39s-0.68,1.13-1.05,1.5
			c-0.52,0.52-1.11,0.89-1.78,1.11c-0.67,0.22-1.47,0.33-2.4,0.33h-1.37V63.95z"/>
		<path class="st5" d="M240.18,47.97h3.96v9.4l-0.37,4.55h0.15l2.29-4.11l6.66-9.84h3.66v19.24h-3.96v-9.4l0.37-4.55h-0.15
			l-2.29,4.11l-6.66,9.84h-3.66V47.97z"/>
		<path class="st5" d="M262.3,47.97h4.03v7.73h8.29v-7.73h4.03v19.24h-4.03v-8.21h-8.29v8.21h-4.03V47.97z"/>
		<path class="st5" d="M284.43,47.97h3.96v9.4l-0.37,4.55h0.15l2.29-4.11l6.66-9.84h3.66v19.24h-3.96v-9.4l0.37-4.55h-0.15
			l-2.29,4.11l-6.66,9.84h-3.66V47.97z"/>
		<path class="st5" d="M306.56,47.97h4.03v7.77h3.4l3.18-5.37c0.54-0.91,1.08-1.54,1.63-1.89c0.54-0.35,1.23-0.52,2.07-0.52h1.96
			v3.29h-2.15l-2.44,4.07c-0.37,0.64-0.7,1.09-0.98,1.33c-0.28,0.25-0.66,0.43-1.13,0.55v0.15c0.49,0.1,0.92,0.28,1.29,0.54
			c0.37,0.26,0.73,0.71,1.07,1.35l2.59,4.66h2.11v3.29h-2.29c-0.81,0-1.51-0.18-2.09-0.55c-0.58-0.37-1.13-1.02-1.65-1.96l-3.18-5.7
			h-3.4v8.21h-4.03V47.97z"/>
		<path class="st5" d="M341.3,67.21c-1.06,0-1.88-0.3-2.44-0.91c-0.57-0.6-0.91-1.38-1.04-2.31h-0.18
			c-0.37,1.21-1.05,2.12-2.04,2.74c-0.99,0.62-2.18,0.93-3.59,0.93c-2,0-3.53-0.52-4.61-1.55c-1.07-1.04-1.61-2.43-1.61-4.18
			c0-1.92,0.7-3.37,2.09-4.33c1.39-0.96,3.43-1.44,6.12-1.44h3.48v-1.63c0-1.18-0.32-2.1-0.96-2.74c-0.64-0.64-1.64-0.96-3-0.96
			c-1.13,0-2.06,0.25-2.77,0.74c-0.72,0.49-1.32,1.12-1.81,1.89l-2.41-2.18c0.64-1.08,1.54-1.98,2.7-2.68s2.68-1.05,4.55-1.05
			c2.49,0,4.4,0.58,5.74,1.74c1.33,1.16,2,2.83,2,5v9.66h2.04v3.29H341.3z M333.16,64.58c1.26,0,2.29-0.28,3.11-0.83
			c0.81-0.55,1.22-1.3,1.22-2.24v-2.78h-3.4c-2.79,0-4.18,0.86-4.18,2.59v0.67c0,0.86,0.29,1.51,0.87,1.94
			C331.35,64.36,332.15,64.58,333.16,64.58z"/>
	</g>
</g>
</svg>
