<svg xmlns="http://www.w3.org/2000/svg" width="862" height="602" fill="none" viewBox="0 0 862 602">
  <path stroke="#000" stroke-width="1.5" d="M0 133h400" opacity=".1"/>
  <path fill="#1B1B1B" d="M3.64 119.036c.952 0 1.731.289 2.338.868.616.579.924 1.302.924 2.17 0 .887-.303 1.624-.91 2.212-.607.588-1.363.882-2.268.882-.896 0-1.643-.28-2.24-.84-.588-.56-.896-1.274-.924-2.142h1.512c.019.457.182.831.49 1.12.308.289.695.434 1.162.434.476 0 .868-.159 1.176-.476.317-.317.476-.714.476-1.19 0-.159-.023-.313-.07-.462a1.431 1.431 0 0 0-.168-.406 1.445 1.445 0 0 0-.28-.35 1.65 1.65 0 0 0-.784-.434 2.035 2.035 0 0 0-.49-.056H1.12l-.182-.21.504-4.466h4.816v1.372H2.66l-.21 1.974h1.19Zm7.52 6.132c-1.129 0-2.024-.434-2.687-1.302-.663-.868-.994-2.044-.994-3.528s.327-2.655.98-3.514c.663-.868 1.563-1.302 2.702-1.302 1.13 0 2.02.434 2.674 1.302.662.859.994 2.03.994 3.514s-.332 2.66-.994 3.528c-.663.868-1.554 1.302-2.674 1.302Zm0-1.428c.673 0 1.195-.299 1.569-.896.383-.597.574-1.433.574-2.506 0-.709-.089-1.316-.266-1.82-.168-.513-.416-.901-.742-1.162a1.689 1.689 0 0 0-1.134-.406c-.448 0-.835.135-1.162.406-.327.261-.574.649-.742 1.162-.168.504-.252 1.111-.252 1.82 0 1.073.187 1.909.56 2.506.383.597.915.896 1.596.896Zm8.078 1.428c-1.13 0-2.025-.434-2.688-1.302-.663-.868-.994-2.044-.994-3.528s.327-2.655.98-3.514c.663-.868 1.563-1.302 2.702-1.302 1.13 0 2.02.434 2.674 1.302.663.859.994 2.03.994 3.514s-.331 2.66-.994 3.528c-.662.868-1.554 1.302-2.674 1.302Zm0-1.428c.672 0 1.195-.299 1.568-.896.383-.597.574-1.433.574-2.506 0-.709-.088-1.316-.266-1.82-.168-.513-.415-.901-.742-1.162a1.689 1.689 0 0 0-1.134-.406c-.448 0-.835.135-1.162.406-.326.261-.574.649-.742 1.162-.168.504-.252 1.111-.252 1.82 0 1.073.187 1.909.56 2.506.383.597.915.896 1.596.896Z" opacity=".4"/>
  <path stroke="#000" stroke-width="1.5" d="M0 85h400" opacity=".1"/>
  <path fill="#1B1B1B" d="M3.64 71.036c.952 0 1.731.29 2.338.868.616.579.924 1.302.924 2.17 0 .887-.303 1.624-.91 2.212-.607.588-1.363.882-2.268.882-.896 0-1.643-.28-2.24-.84-.588-.56-.896-1.274-.924-2.142h1.512c.019.457.182.83.49 1.12.308.29.695.434 1.162.434.476 0 .868-.159 1.176-.476.317-.317.476-.714.476-1.19a1.54 1.54 0 0 0-.07-.462 1.431 1.431 0 0 0-.168-.406 1.445 1.445 0 0 0-.28-.35 1.65 1.65 0 0 0-.784-.434 2.02 2.02 0 0 0-.49-.056H1.12l-.182-.21.504-4.466h4.816v1.372H2.66l-.21 1.974h1.19Zm6.765 0c.952 0 1.731.29 2.338.868.616.579.924 1.302.924 2.17 0 .887-.303 1.624-.91 2.212-.607.588-1.363.882-2.268.882-.896 0-1.643-.28-2.24-.84-.588-.56-.896-1.274-.924-2.142h1.512c.019.457.182.83.49 1.12.308.29.695.434 1.162.434.476 0 .868-.159 1.176-.476.317-.317.476-.714.476-1.19 0-.159-.024-.313-.07-.462a1.43 1.43 0 0 0-.168-.406 1.443 1.443 0 0 0-.28-.35 1.647 1.647 0 0 0-.784-.434 2.02 2.02 0 0 0-.49-.056H7.885l-.182-.21.504-4.466h4.816v1.372H9.425l-.21 1.974h1.19Zm7.52 6.132c-1.129 0-2.025-.434-2.687-1.302-.663-.868-.994-2.044-.994-3.528s.326-2.655.98-3.514c.662-.868 1.563-1.302 2.702-1.302 1.129 0 2.02.434 2.674 1.302.662.859.994 2.03.994 3.514s-.332 2.66-.994 3.528c-.663.868-1.554 1.302-2.674 1.302Zm0-1.428c.673 0 1.195-.299 1.569-.896.382-.597.574-1.433.574-2.506 0-.71-.089-1.316-.266-1.82-.168-.513-.416-.9-.742-1.162a1.69 1.69 0 0 0-1.134-.406c-.448 0-.836.135-1.162.406-.327.261-.574.649-.742 1.162-.168.504-.252 1.11-.252 1.82 0 1.073.186 1.909.56 2.506.382.597.914.896 1.596.896Z" opacity=".4"/>
  <path stroke="#000" stroke-width="1.5" d="M0 182h400" opacity=".1"/>
  <path fill="#1B1B1B" d="M7.252 170.78v1.33h-.896V174H4.9v-1.89H.266v-.308l3.178-7.112h1.54l-2.716 6.09h2.66l.252-2.59h1.176v2.59h.896Zm3.344-2.744c.952 0 1.732.289 2.338.868.616.579.924 1.302.924 2.17 0 .887-.303 1.624-.91 2.212-.606.588-1.362.882-2.268.882-.896 0-1.642-.28-2.24-.84-.588-.56-.896-1.274-.924-2.142h1.512c.019.457.182.831.49 1.12.308.289.696.434 1.162.434.476 0 .868-.159 1.176-.476.318-.317.476-.714.476-1.19 0-.159-.023-.313-.07-.462a1.435 1.435 0 0 0-.168-.406 1.445 1.445 0 0 0-.28-.35 1.594 1.594 0 0 0-.784-.434 2.035 2.035 0 0 0-.49-.056H8.076l-.182-.21.504-4.466h4.816v1.372H9.616l-.21 1.974h1.19Zm7.521 6.132c-1.13 0-2.025-.434-2.688-1.302-.663-.868-.994-2.044-.994-3.528s.327-2.655.98-3.514c.663-.868 1.563-1.302 2.702-1.302 1.13 0 2.02.434 2.674 1.302.663.859.994 2.03.994 3.514s-.331 2.66-.994 3.528c-.663.868-1.554 1.302-2.674 1.302Zm0-1.428c.672 0 1.195-.299 1.568-.896.383-.597.574-1.433.574-2.506 0-.709-.089-1.316-.266-1.82-.168-.513-.415-.901-.742-1.162a1.689 1.689 0 0 0-1.134-.406c-.448 0-.835.135-1.162.406-.327.261-.574.649-.742 1.162-.168.504-.252 1.111-.252 1.82 0 1.073.187 1.909.56 2.506.383.597.915.896 1.596.896Z" opacity=".4"/>
  <path stroke="#000" stroke-width="1.5" d="M0 230h400" opacity=".1"/>
  <path fill="#1B1B1B" d="M7.252 218.78v1.33h-.896V222H4.9v-1.89H.266v-.308l3.178-7.112h1.54l-2.716 6.09h2.66l.252-2.59h1.176v2.59h.896Zm4.1 3.388c-1.13 0-2.025-.434-2.688-1.302-.662-.868-.994-2.044-.994-3.528s.327-2.655.98-3.514c.663-.868 1.564-1.302 2.702-1.302 1.13 0 2.02.434 2.674 1.302.663.859.994 2.03.994 3.514s-.331 2.66-.994 3.528c-.662.868-1.554 1.302-2.674 1.302Zm0-1.428c.672 0 1.195-.299 1.568-.896.383-.597.574-1.433.574-2.506 0-.709-.088-1.316-.266-1.82-.168-.513-.415-.901-.742-1.162a1.689 1.689 0 0 0-1.134-.406c-.448 0-.835.135-1.162.406-.326.261-.574.649-.742 1.162-.168.504-.252 1.111-.252 1.82 0 1.073.187 1.909.56 2.506.383.597.915.896 1.596.896Zm8.078 1.428c-1.13 0-2.026-.434-2.688-1.302-.663-.868-.994-2.044-.994-3.528s.326-2.655.98-3.514c.662-.868 1.563-1.302 2.702-1.302 1.129 0 2.02.434 2.674 1.302.662.859.994 2.03.994 3.514s-.332 2.66-.994 3.528c-.663.868-1.554 1.302-2.674 1.302Zm0-1.428c.672 0 1.194-.299 1.568-.896.382-.597.574-1.433.574-2.506 0-.709-.09-1.316-.266-1.82-.168-.513-.416-.901-.742-1.162a1.689 1.689 0 0 0-1.134-.406c-.448 0-.836.135-1.162.406-.327.261-.574.649-.742 1.162-.168.504-.252 1.111-.252 1.82 0 1.073.186 1.909.56 2.506.382.597.914.896 1.596.896Z" opacity=".4"/>
  <path stroke="#000" stroke-width="1.5" d="M0 277h400" opacity=".1"/>
  <path fill="#1B1B1B" d="M4.508 263.176c.728.131 1.311.462 1.75.994.448.532.672 1.167.672 1.904 0 .896-.308 1.638-.924 2.226-.607.579-1.367.868-2.282.868-.887 0-1.624-.275-2.212-.826-.579-.56-.887-1.279-.924-2.156H2.1c.028.467.191.845.49 1.134.299.28.677.42 1.134.42.485 0 .887-.159 1.204-.476.317-.327.476-.737.476-1.232 0-.243-.047-.467-.14-.672a1.54 1.54 0 0 0-.952-.882 2.057 2.057 0 0 0-.728-.126H2.408v-.294l1.932-2.996H.868v-1.372h5.698v.308l-2.058 3.178Zm6.02-.14c.952 0 1.731.289 2.338.868.616.579.924 1.302.924 2.17 0 .887-.303 1.624-.91 2.212-.607.588-1.363.882-2.268.882-.896 0-1.643-.28-2.24-.84-.588-.56-.896-1.274-.924-2.142H8.96c.019.457.182.831.49 1.12.308.289.695.434 1.162.434.476 0 .868-.159 1.176-.476.317-.317.476-.714.476-1.19 0-.159-.023-.313-.07-.462a1.43 1.43 0 0 0-.168-.406 1.445 1.445 0 0 0-.28-.35 1.65 1.65 0 0 0-.784-.434 2.035 2.035 0 0 0-.49-.056H8.008l-.182-.21.504-4.466h4.816v1.372H9.548l-.21 1.974h1.19Zm7.52 6.132c-1.129 0-2.025-.434-2.687-1.302-.663-.868-.994-2.044-.994-3.528s.326-2.655.98-3.514c.662-.868 1.563-1.302 2.702-1.302 1.13 0 2.02.434 2.674 1.302.662.859.994 2.03.994 3.514s-.332 2.66-.994 3.528c-.663.868-1.554 1.302-2.674 1.302Zm0-1.428c.673 0 1.195-.299 1.569-.896.382-.597.574-1.433.574-2.506 0-.709-.089-1.316-.266-1.82-.168-.513-.416-.901-.742-1.162a1.689 1.689 0 0 0-1.134-.406c-.448 0-.836.135-1.162.406-.327.261-.574.649-.742 1.162-.168.504-.252 1.111-.252 1.82 0 1.073.186 1.909.56 2.506.382.597.914.896 1.596.896Z" opacity=".4"/>
  <path stroke="#000" stroke-width="1.5" d="M0 325h400" opacity=".1"/>
  <path fill="#1B1B1B" d="M4.508 311.176c.728.131 1.311.462 1.75.994.448.532.672 1.167.672 1.904 0 .896-.308 1.638-.924 2.226-.607.579-1.367.868-2.282.868-.887 0-1.624-.275-2.212-.826-.579-.56-.887-1.279-.924-2.156H2.1c.028.467.191.845.49 1.134.299.28.677.42 1.134.42.485 0 .887-.159 1.204-.476.317-.327.476-.737.476-1.232 0-.243-.047-.467-.14-.672a1.54 1.54 0 0 0-.952-.882 2.057 2.057 0 0 0-.728-.126H2.408v-.294l1.932-2.996H.868v-1.372h5.698v.308l-2.058 3.178Zm6.776 5.992c-1.13 0-2.025-.434-2.688-1.302-.663-.868-.994-2.044-.994-3.528s.327-2.655.98-3.514c.663-.868 1.563-1.302 2.702-1.302 1.13 0 2.02.434 2.674 1.302.663.859.994 2.03.994 3.514s-.331 2.66-.994 3.528c-.663.868-1.554 1.302-2.674 1.302Zm0-1.428c.672 0 1.195-.299 1.568-.896.383-.597.574-1.433.574-2.506 0-.709-.089-1.316-.266-1.82-.168-.513-.415-.901-.742-1.162a1.689 1.689 0 0 0-1.134-.406c-.448 0-.835.135-1.162.406-.327.261-.574.649-.742 1.162-.168.504-.252 1.111-.252 1.82 0 1.073.187 1.909.56 2.506.383.597.915.896 1.596.896Zm8.077 1.428c-1.13 0-2.025-.434-2.688-1.302-.662-.868-.994-2.044-.994-3.528s.327-2.655.98-3.514c.663-.868 1.564-1.302 2.702-1.302 1.13 0 2.02.434 2.674 1.302.663.859.994 2.03.994 3.514s-.331 2.66-.994 3.528c-.662.868-1.554 1.302-2.674 1.302Zm0-1.428c.672 0 1.195-.299 1.568-.896.383-.597.574-1.433.574-2.506 0-.709-.088-1.316-.266-1.82-.168-.513-.415-.901-.742-1.162a1.689 1.689 0 0 0-1.134-.406c-.448 0-.835.135-1.162.406-.326.261-.574.649-.742 1.162-.168.504-.252 1.111-.252 1.82 0 1.073.187 1.909.56 2.506.383.597.915.896 1.596.896Z" opacity=".4"/>
  <path stroke="#000" stroke-width="1.5" d="M0 374h400" opacity=".1"/>
  <path fill="#1B1B1B" d="M3.388 364.572H6.86V366H.49v-.406c1.39-1.521 2.394-2.655 3.01-3.402.625-.756 1.04-1.33 1.246-1.722.205-.392.308-.779.308-1.162 0-.271-.06-.509-.182-.714a1.151 1.151 0 0 0-.49-.476 1.408 1.408 0 0 0-.728-.182c-.439 0-.793.131-1.064.392-.261.252-.392.583-.392.994v.21H.686v-.21c0-.84.27-1.517.812-2.03.541-.523 1.255-.784 2.142-.784.868 0 1.573.261 2.114.784.55.523.826 1.195.826 2.016 0 .429-.08.845-.238 1.246-.15.401-.457.919-.924 1.554-.457.625-1.134 1.447-2.03 2.464Zm7.044-4.536c.952 0 1.732.289 2.338.868.616.579.924 1.302.924 2.17 0 .887-.303 1.624-.91 2.212-.607.588-1.363.882-2.268.882-.896 0-1.642-.28-2.24-.84-.588-.56-.896-1.274-.924-2.142h1.512c.019.457.182.831.49 1.12.308.289.696.434 1.162.434.476 0 .868-.159 1.176-.476.317-.317.476-.714.476-1.19 0-.159-.023-.313-.07-.462a1.43 1.43 0 0 0-.168-.406 1.445 1.445 0 0 0-.28-.35 1.65 1.65 0 0 0-.784-.434 2.035 2.035 0 0 0-.49-.056H7.912l-.182-.21.504-4.466h4.816v1.372H9.452l-.21 1.974h1.19Zm7.521 6.132c-1.13 0-2.025-.434-2.688-1.302-.663-.868-.994-2.044-.994-3.528s.327-2.655.98-3.514c.663-.868 1.563-1.302 2.702-1.302 1.13 0 2.02.434 2.674 1.302.663.859.994 2.03.994 3.514s-.331 2.66-.994 3.528c-.663.868-1.554 1.302-2.674 1.302Zm0-1.428c.672 0 1.195-.299 1.568-.896.383-.597.574-1.433.574-2.506 0-.709-.089-1.316-.266-1.82-.168-.513-.415-.901-.742-1.162a1.689 1.689 0 0 0-1.134-.406c-.448 0-.835.135-1.162.406-.327.261-.574.649-.742 1.162-.168.504-.252 1.111-.252 1.82 0 1.073.187 1.909.56 2.506.383.597.915.896 1.596.896Z" opacity=".4"/>
  <path stroke="#000" stroke-width="1.5" d="M0 422h400" opacity=".1"/>
  <path fill="#1B1B1B" d="M3.388 412.572H6.86V414H.49v-.406c1.39-1.521 2.394-2.655 3.01-3.402.625-.756 1.04-1.33 1.246-1.722.205-.392.308-.779.308-1.162 0-.271-.06-.509-.182-.714a1.151 1.151 0 0 0-.49-.476 1.408 1.408 0 0 0-.728-.182c-.439 0-.793.131-1.064.392-.261.252-.392.583-.392.994v.21H.686v-.21c0-.84.27-1.517.812-2.03.541-.523 1.255-.784 2.142-.784.868 0 1.573.261 2.114.784.55.523.826 1.195.826 2.016 0 .429-.08.845-.238 1.246-.15.401-.457.919-.924 1.554-.457.625-1.134 1.447-2.03 2.464Zm7.8 1.596c-1.13 0-2.025-.434-2.688-1.302-.662-.868-.994-2.044-.994-3.528s.327-2.655.98-3.514c.663-.868 1.563-1.302 2.702-1.302 1.13 0 2.02.434 2.674 1.302.663.859.994 2.03.994 3.514s-.331 2.66-.994 3.528c-.662.868-1.554 1.302-2.674 1.302Zm0-1.428c.672 0 1.195-.299 1.568-.896.383-.597.574-1.433.574-2.506 0-.709-.088-1.316-.266-1.82-.168-.513-.415-.901-.742-1.162a1.689 1.689 0 0 0-1.134-.406c-.448 0-.835.135-1.162.406-.326.261-.574.649-.742 1.162-.168.504-.252 1.111-.252 1.82 0 1.073.187 1.909.56 2.506.383.597.915.896 1.596.896Zm8.077 1.428c-1.129 0-2.025-.434-2.688-1.302-.662-.868-.994-2.044-.994-3.528s.327-2.655.98-3.514c.663-.868 1.564-1.302 2.703-1.302 1.129 0 2.02.434 2.674 1.302.662.859.993 2.03.993 3.514s-.33 2.66-.994 3.528c-.662.868-1.553 1.302-2.674 1.302Zm0-1.428c.672 0 1.195-.299 1.569-.896.382-.597.573-1.433.573-2.506 0-.709-.088-1.316-.265-1.82-.168-.513-.416-.901-.742-1.162a1.689 1.689 0 0 0-1.134-.406c-.448 0-.836.135-1.162.406-.327.261-.575.649-.742 1.162-.168.504-.252 1.111-.252 1.82 0 1.073.186 1.909.56 2.506.382.597.914.896 1.595.896Z" opacity=".4"/>
  <path stroke="#000" stroke-width="1.5" d="M0 470h400" opacity=".1"/>
  <path fill="#1B1B1B" d="M.406 452.69h3.136V462H2.044v-7.952H.406v-1.358Zm7.333 3.346c.952 0 1.731.289 2.338.868.616.579.924 1.302.924 2.17 0 .887-.303 1.624-.91 2.212-.607.588-1.363.882-2.268.882-.896 0-1.643-.28-2.24-.84-.588-.56-.896-1.274-.924-2.142H6.17c.018.457.182.831.49 1.12.308.289.695.434 1.162.434.476 0 .868-.159 1.176-.476.317-.317.476-.714.476-1.19 0-.159-.024-.313-.07-.462a1.431 1.431 0 0 0-.168-.406 1.445 1.445 0 0 0-.28-.35 1.65 1.65 0 0 0-.784-.434 2.035 2.035 0 0 0-.49-.056H5.219l-.182-.21.504-4.466h4.816v1.372H6.759l-.21 1.974h1.19Zm7.52 6.132c-1.129 0-2.025-.434-2.687-1.302-.663-.868-.994-2.044-.994-3.528s.326-2.655.98-3.514c.662-.868 1.563-1.302 2.702-1.302 1.129 0 2.02.434 2.674 1.302.662.859.994 2.03.994 3.514s-.332 2.66-.994 3.528c-.663.868-1.554 1.302-2.674 1.302Zm0-1.428c.673 0 1.195-.299 1.569-.896.382-.597.574-1.433.574-2.506 0-.709-.089-1.316-.266-1.82-.168-.513-.416-.901-.742-1.162a1.689 1.689 0 0 0-1.134-.406c-.448 0-.836.135-1.162.406-.327.261-.574.649-.742 1.162-.168.504-.252 1.111-.252 1.82 0 1.073.186 1.909.56 2.506.382.597.914.896 1.596.896Z" opacity=".4"/>
  <path stroke="#000" stroke-width="1.5" d="M0 518h400" opacity=".1"/>
  <path fill="#1B1B1B" d="M.406 500.69h3.136V510H2.044v-7.952H.406v-1.358Zm8.089 9.478c-1.13 0-2.025-.434-2.688-1.302-.663-.868-.994-2.044-.994-3.528s.327-2.655.98-3.514c.662-.868 1.563-1.302 2.702-1.302 1.13 0 2.02.434 2.674 1.302.662.859.994 2.03.994 3.514s-.332 2.66-.994 3.528c-.663.868-1.554 1.302-2.674 1.302Zm0-1.428c.672 0 1.195-.299 1.568-.896.382-.597.574-1.433.574-2.506 0-.709-.089-1.316-.266-1.82-.168-.513-.415-.901-.742-1.162a1.689 1.689 0 0 0-1.134-.406c-.448 0-.835.135-1.162.406-.327.261-.574.649-.742 1.162-.168.504-.252 1.111-.252 1.82 0 1.073.186 1.909.56 2.506.383.597.915.896 1.596.896Zm8.077 1.428c-1.13 0-2.025-.434-2.688-1.302-.662-.868-.994-2.044-.994-3.528s.327-2.655.98-3.514c.663-.868 1.564-1.302 2.702-1.302 1.13 0 2.02.434 2.674 1.302.663.859.994 2.03.994 3.514s-.331 2.66-.994 3.528c-.662.868-1.554 1.302-2.674 1.302Zm0-1.428c.672 0 1.195-.299 1.568-.896.383-.597.574-1.433.574-2.506 0-.709-.088-1.316-.266-1.82-.168-.513-.415-.901-.742-1.162a1.689 1.689 0 0 0-1.134-.406c-.448 0-.835.135-1.162.406-.326.261-.574.649-.742 1.162-.168.504-.252 1.111-.252 1.82 0 1.073.187 1.909.56 2.506.383.597.915.896 1.596.896Z" opacity=".4"/>
  <path stroke="#000" stroke-width="1.5" d="M0 566h400" opacity=".1"/>
  <path fill="#1B1B1B" d="M3.64 552.036c.952 0 1.731.289 2.338.868.616.579.924 1.302.924 2.17 0 .887-.303 1.624-.91 2.212-.607.588-1.363.882-2.268.882-.896 0-1.643-.28-2.24-.84-.588-.56-.896-1.274-.924-2.142h1.512c.019.457.182.831.49 1.12.308.289.695.434 1.162.434.476 0 .868-.159 1.176-.476.317-.317.476-.714.476-1.19 0-.159-.023-.313-.07-.462a1.431 1.431 0 0 0-.168-.406 1.445 1.445 0 0 0-.28-.35 1.65 1.65 0 0 0-.784-.434 2.035 2.035 0 0 0-.49-.056H1.12l-.182-.21.504-4.466h4.816v1.372H2.66l-.21 1.974h1.19Zm7.52 6.132c-1.129 0-2.024-.434-2.687-1.302-.663-.868-.994-2.044-.994-3.528s.327-2.655.98-3.514c.663-.868 1.563-1.302 2.702-1.302 1.13 0 2.02.434 2.674 1.302.662.859.994 2.03.994 3.514s-.332 2.66-.994 3.528c-.663.868-1.554 1.302-2.674 1.302Zm0-1.428c.673 0 1.195-.299 1.569-.896.383-.597.574-1.433.574-2.506 0-.709-.089-1.316-.266-1.82-.168-.513-.416-.901-.742-1.162a1.689 1.689 0 0 0-1.134-.406c-.448 0-.835.135-1.162.406-.327.261-.574.649-.742 1.162-.168.504-.252 1.111-.252 1.82 0 1.073.187 1.909.56 2.506.383.597.915.896 1.596.896ZM3.388 596.572H6.86V598H.49v-.406c1.39-1.521 2.394-2.655 3.01-3.402.625-.756 1.04-1.33 1.246-1.722.205-.392.308-.779.308-1.162 0-.271-.06-.509-.182-.714a1.151 1.151 0 0 0-.49-.476 1.408 1.408 0 0 0-.728-.182c-.439 0-.793.131-1.064.392-.261.252-.392.583-.392.994v.21H.686v-.21c0-.84.27-1.517.812-2.03.541-.523 1.255-.784 2.142-.784.868 0 1.573.261 2.114.784.55.523.826 1.195.826 2.016 0 .429-.08.845-.238 1.246-.15.401-.457.919-.924 1.554-.457.625-1.134 1.447-2.03 2.464Zm7.8 1.596c-1.13 0-2.025-.434-2.688-1.302-.662-.868-.994-2.044-.994-3.528s.327-2.655.98-3.514c.663-.868 1.563-1.302 2.702-1.302 1.13 0 2.02.434 2.674 1.302.663.859.994 2.03.994 3.514s-.331 2.66-.994 3.528c-.662.868-1.554 1.302-2.674 1.302Zm0-1.428c.672 0 1.195-.299 1.568-.896.383-.597.574-1.433.574-2.506 0-.709-.088-1.316-.266-1.82-.168-.513-.415-.901-.742-1.162a1.689 1.689 0 0 0-1.134-.406c-.448 0-.835.135-1.162.406-.326.261-.574.649-.742 1.162-.168.504-.252 1.111-.252 1.82 0 1.073.187 1.909.56 2.506.383.597.915.896 1.596.896Zm7.07-.168h3.472V598h-6.37v-.406c1.39-1.521 2.393-2.655 3.01-3.402.625-.756 1.04-1.33 1.245-1.722.206-.392.309-.779.309-1.162 0-.271-.061-.509-.183-.714a1.15 1.15 0 0 0-.49-.476 1.408 1.408 0 0 0-.728-.182c-.438 0-.793.131-1.064.392-.26.252-.392.583-.392.994v.21h-1.511v-.21c0-.84.27-1.517.812-2.03.54-.523 1.255-.784 2.142-.784.867 0 1.572.261 2.113.784.551.523.826 1.195.826 2.016 0 .429-.079.845-.238 1.246-.149.401-.457.919-.923 1.554-.458.625-1.134 1.447-2.03 2.464Zm7.8 1.596c-1.13 0-2.026-.434-2.688-1.302-.663-.868-.994-2.044-.994-3.528s.326-2.655.98-3.514c.662-.868 1.563-1.302 2.702-1.302 1.13 0 2.02.434 2.674 1.302.662.859.994 2.03.994 3.514s-.332 2.66-.994 3.528c-.663.868-1.554 1.302-2.674 1.302Zm0-1.428c.672 0 1.194-.299 1.568-.896.382-.597.574-1.433.574-2.506 0-.709-.089-1.316-.266-1.82-.168-.513-.416-.901-.742-1.162a1.689 1.689 0 0 0-1.134-.406c-.448 0-.836.135-1.162.406-.327.261-.574.649-.742 1.162-.168.504-.252 1.111-.252 1.82 0 1.073.186 1.909.56 2.506.382.597.914.896 1.596.896ZM376.927 596.572h3.472V598h-6.37v-.406c1.391-1.521 2.394-2.655 3.01-3.402.626-.756 1.041-1.33 1.246-1.722a2.48 2.48 0 0 0 .308-1.162c0-.271-.06-.509-.182-.714a1.15 1.15 0 0 0-.49-.476 1.407 1.407 0 0 0-.728-.182c-.438 0-.793.131-1.064.392-.261.252-.392.583-.392.994v.21h-1.512v-.21c0-.84.271-1.517.812-2.03.542-.523 1.256-.784 2.142-.784.868 0 1.573.261 2.114.784.551.523.826 1.195.826 2.016 0 .429-.079.845-.238 1.246-.149.401-.457.919-.924 1.554-.457.625-1.134 1.447-2.03 2.464Zm7.801 1.596c-1.13 0-2.026-.434-2.688-1.302-.663-.868-.994-2.044-.994-3.528s.326-2.655.98-3.514c.662-.868 1.563-1.302 2.702-1.302 1.129 0 2.02.434 2.674 1.302.662.859.994 2.03.994 3.514s-.332 2.66-.994 3.528c-.663.868-1.554 1.302-2.674 1.302Zm0-1.428c.672 0 1.194-.299 1.568-.896.382-.597.574-1.433.574-2.506 0-.709-.089-1.316-.266-1.82-.168-.513-.416-.901-.742-1.162a1.691 1.691 0 0 0-1.134-.406 1.76 1.76 0 0 0-1.162.406c-.327.261-.574.649-.742 1.162-.168.504-.252 1.111-.252 1.82 0 1.073.186 1.909.56 2.506.382.597.914.896 1.596.896Zm7.069-.168h3.472V598h-6.37v-.406c1.391-1.521 2.394-2.655 3.01-3.402.625-.756 1.041-1.33 1.246-1.722.205-.392.308-.779.308-1.162 0-.271-.061-.509-.182-.714a1.15 1.15 0 0 0-.49-.476 1.407 1.407 0 0 0-.728-.182c-.439 0-.793.131-1.064.392-.261.252-.392.583-.392.994v.21h-1.512v-.21c0-.84.271-1.517.812-2.03.541-.523 1.255-.784 2.142-.784.868 0 1.573.261 2.114.784.551.523.826 1.195.826 2.016 0 .429-.079.845-.238 1.246-.149.401-.457.919-.924 1.554-.457.625-1.134 1.447-2.03 2.464Zm3.81-7.882h3.136V598h-1.498v-7.952h-1.638v-1.358Z" opacity=".4"/>
  <path fill="#1B1B1B" d="M27.044 11.502h.98v3.402H26.54V13h-6.706v1.904H18.35v-3.402h.77a1.76 1.76 0 0 0 .308-.266c.084-.093.168-.224.252-.392a3.32 3.32 0 0 0 .21-.532c.056-.187.112-.443.168-.77.065-.336.121-.677.168-1.022.047-.355.098-.817.154-1.386.065-.579.121-1.157.168-1.736.056-.588.121-1.32.196-2.198h6.3v8.302Zm-4.858-6.804c-.168 2.277-.34 3.887-.518 4.83-.177.933-.448 1.591-.812 1.974h4.564V4.698h-3.234ZM35.889 13l-.854-2.128h-4.368L29.827 13h-1.708l3.948-9.8h1.512l4.046 9.8h-1.736Zm-3.052-7.7-1.61 4.13h3.248L32.837 5.3ZM40.2 1.828V.61h4.075v1.218H40.2ZM45.06 3.2h1.163V13h-1.596V6.21L39.486 13h-1.12V3.2h1.61v6.72L45.06 3.2Zm8.362 0v1.498h-3.78V13h-1.61V3.2h5.39Zm4.94 9.982c-1.484 0-2.716-.48-3.696-1.442-.98-.97-1.47-2.184-1.47-3.64s.49-2.665 1.47-3.626c.98-.97 2.212-1.456 3.696-1.456s2.716.485 3.696 1.456c.98.961 1.47 2.17 1.47 3.626 0 .952-.224 1.82-.672 2.604a4.685 4.685 0 0 1-1.848 1.82c-.784.439-1.666.658-2.646.658Zm-2.52-2.548c.672.672 1.512 1.008 2.52 1.008 1.017 0 1.857-.336 2.52-1.008.672-.681 1.008-1.526 1.008-2.534 0-1.008-.336-1.848-1.008-2.52-.663-.681-1.503-1.022-2.52-1.022-1.008 0-1.848.34-2.52 1.022-.672.672-1.008 1.512-1.008 2.52s.336 1.853 1.008 2.534Z"/>
  <circle cx="6" cy="9" r="6" fill="#466639"/>
  <path stroke="#466639" stroke-width="1.5" d="M31 552.5 395 119"/>
  <circle cx="395" cy="119" r="6" fill="#466639"/>
  <circle cx="31" cy="552" r="6" fill="#466639"/>
  <path stroke="#000" stroke-width="1.5" d="M440 86h400" opacity=".1"/>
  <path fill="#1B1B1B" d="M440.406 68.69h3.136V78h-1.498v-7.952h-1.638V68.69Zm8.089 9.478c-1.13 0-2.026-.434-2.688-1.302-.663-.868-.994-2.044-.994-3.528s.326-2.655.98-3.514c.662-.868 1.563-1.302 2.702-1.302 1.129 0 2.02.434 2.674 1.302.662.859.994 2.03.994 3.514s-.332 2.66-.994 3.528c-.663.868-1.554 1.302-2.674 1.302Zm0-1.428c.672 0 1.194-.299 1.568-.896.382-.597.574-1.433.574-2.506 0-.71-.089-1.316-.266-1.82-.168-.513-.416-.9-.742-1.162a1.693 1.693 0 0 0-1.134-.406c-.448 0-.836.135-1.162.406-.327.261-.574.649-.742 1.162-.168.504-.252 1.11-.252 1.82 0 1.073.186 1.909.56 2.506.382.597.914.896 1.596.896Zm8.077 1.428c-1.129 0-2.025-.434-2.688-1.302-.662-.868-.994-2.044-.994-3.528s.327-2.655.98-3.514c.663-.868 1.564-1.302 2.702-1.302 1.13 0 2.021.434 2.674 1.302.663.859.994 2.03.994 3.514s-.331 2.66-.994 3.528c-.662.868-1.554 1.302-2.674 1.302Zm0-1.428c.672 0 1.195-.299 1.568-.896.383-.597.574-1.433.574-2.506 0-.71-.088-1.316-.266-1.82-.168-.513-.415-.9-.742-1.162a1.689 1.689 0 0 0-1.134-.406c-.448 0-.835.135-1.162.406-.326.261-.574.649-.742 1.162-.168.504-.252 1.11-.252 1.82 0 1.073.187 1.909.56 2.506.383.597.915.896 1.596.896Z" opacity=".4"/>
  <path stroke="#000" stroke-width="1.5" d="M440 182h400" opacity=".1"/>
  <path fill="#1B1B1B" d="M446.216 169.03c.383.233.681.546.896.938.224.383.336.812.336 1.288 0 .849-.317 1.549-.952 2.1-.635.541-1.447.812-2.436.812-.663 0-1.251-.121-1.764-.364a2.784 2.784 0 0 1-1.19-1.022 2.82 2.82 0 0 1-.42-1.526c0-.467.107-.891.322-1.274.224-.392.532-.709.924-.952a2.6 2.6 0 0 1-.406-.378 3.453 3.453 0 0 1-.294-.462 3.234 3.234 0 0 1-.182-.532 2.948 2.948 0 0 1-.056-.574c0-.756.285-1.372.854-1.848.569-.485 1.307-.728 2.212-.728.915 0 1.652.238 2.212.714.569.476.854 1.097.854 1.862 0 .392-.084.761-.252 1.106a2.196 2.196 0 0 1-.658.84Zm-2.156-3.248c-.467 0-.849.126-1.148.378a1.17 1.17 0 0 0-.434.938c0 .392.145.714.434.966.299.252.681.378 1.148.378.467 0 .845-.126 1.134-.378.299-.252.448-.574.448-.966a1.18 1.18 0 0 0-.196-.672 1.282 1.282 0 0 0-.56-.476 1.95 1.95 0 0 0-.826-.168Zm0 7.07c.56 0 1.008-.145 1.344-.434a1.45 1.45 0 0 0 .518-1.148 1.45 1.45 0 0 0-.518-1.148c-.336-.299-.784-.448-1.344-.448-.551 0-.999.149-1.344.448a1.467 1.467 0 0 0-.504 1.148c0 .467.168.849.504 1.148.345.289.793.434 1.344.434Zm7.771 1.316c-1.13 0-2.026-.434-2.688-1.302-.663-.868-.994-2.044-.994-3.528s.326-2.655.98-3.514c.662-.868 1.563-1.302 2.702-1.302 1.129 0 2.02.434 2.674 1.302.662.859.994 2.03.994 3.514s-.332 2.66-.994 3.528c-.663.868-1.554 1.302-2.674 1.302Zm0-1.428c.672 0 1.194-.299 1.568-.896.382-.597.574-1.433.574-2.506 0-.709-.089-1.316-.266-1.82-.168-.513-.416-.901-.742-1.162a1.691 1.691 0 0 0-1.134-.406 1.76 1.76 0 0 0-1.162.406c-.327.261-.574.649-.742 1.162-.168.504-.252 1.111-.252 1.82 0 1.073.186 1.909.56 2.506.382.597.914.896 1.596.896Z" opacity=".4"/>
  <path stroke="#000" stroke-width="1.5" d="M440 277h400" opacity=".1"/>
  <path fill="#1B1B1B" d="M444.326 262.882c.868 0 1.605.285 2.212.854.616.56.924 1.288.924 2.184a3.27 3.27 0 0 1-.434 1.68 3.038 3.038 0 0 1-1.218 1.162c-.513.271-1.097.406-1.75.406-1.008 0-1.834-.303-2.478-.91-.635-.607-.952-1.386-.952-2.338 0-.859.336-1.871 1.008-3.038l1.862-3.248h1.652a292.759 292.759 0 0 0-1.932 3.458 3.06 3.06 0 0 1 1.106-.21Zm-.28 4.858c.551 0 1.003-.168 1.358-.504.355-.345.532-.784.532-1.316 0-.541-.177-.98-.532-1.316-.355-.345-.807-.518-1.358-.518a1.97 1.97 0 0 0-.966.238 1.793 1.793 0 0 0-.686.658 1.817 1.817 0 0 0-.238.938c0 .532.177.971.532 1.316.364.336.817.504 1.358.504Zm7.511 1.428c-1.129 0-2.025-.434-2.688-1.302-.662-.868-.994-2.044-.994-3.528s.327-2.655.98-3.514c.663-.868 1.564-1.302 2.702-1.302 1.13 0 2.021.434 2.674 1.302.663.859.994 2.03.994 3.514s-.331 2.66-.994 3.528c-.662.868-1.554 1.302-2.674 1.302Zm0-1.428c.672 0 1.195-.299 1.568-.896.383-.597.574-1.433.574-2.506 0-.709-.088-1.316-.266-1.82-.168-.513-.415-.901-.742-1.162a1.688 1.688 0 0 0-1.134-.406c-.448 0-.835.135-1.162.406-.326.261-.574.649-.742 1.162-.168.504-.252 1.111-.252 1.82 0 1.073.187 1.909.56 2.506.383.597.915.896 1.596.896Z" opacity=".4"/>
  <path stroke="#000" stroke-width="1.5" d="M440 374h400" opacity=".1"/>
  <path fill="#1B1B1B" d="M447.252 362.78v1.33h-.896V366H444.9v-1.89h-4.634v-.308l3.178-7.112h1.54l-2.716 6.09h2.66l.252-2.59h1.176v2.59h.896Zm4.1 3.388c-1.129 0-2.025-.434-2.688-1.302-.662-.868-.994-2.044-.994-3.528s.327-2.655.98-3.514c.663-.868 1.564-1.302 2.702-1.302 1.13 0 2.021.434 2.674 1.302.663.859.994 2.03.994 3.514s-.331 2.66-.994 3.528c-.662.868-1.554 1.302-2.674 1.302Zm0-1.428c.672 0 1.195-.299 1.568-.896.383-.597.574-1.433.574-2.506 0-.709-.088-1.316-.266-1.82-.168-.513-.415-.901-.742-1.162a1.688 1.688 0 0 0-1.134-.406c-.448 0-.835.135-1.162.406-.326.261-.574.649-.742 1.162-.168.504-.252 1.111-.252 1.82 0 1.073.187 1.909.56 2.506.383.597.915.896 1.596.896Z" opacity=".4"/>
  <path stroke="#000" stroke-width="1.5" d="M440 470h400" opacity=".1"/>
  <path fill="#1B1B1B" d="M443.388 460.572h3.472V462h-6.37v-.406c1.391-1.521 2.394-2.655 3.01-3.402.625-.756 1.041-1.33 1.246-1.722.205-.392.308-.779.308-1.162 0-.271-.061-.509-.182-.714a1.15 1.15 0 0 0-.49-.476 1.407 1.407 0 0 0-.728-.182c-.439 0-.793.131-1.064.392-.261.252-.392.583-.392.994v.21h-1.512v-.21c0-.84.271-1.517.812-2.03.541-.523 1.255-.784 2.142-.784.868 0 1.573.261 2.114.784.551.523.826 1.195.826 2.016 0 .429-.079.845-.238 1.246-.149.401-.457.919-.924 1.554-.457.625-1.134 1.447-2.03 2.464Zm7.8 1.596c-1.129 0-2.025-.434-2.688-1.302-.662-.868-.994-2.044-.994-3.528s.327-2.655.98-3.514c.663-.868 1.564-1.302 2.702-1.302 1.13 0 2.021.434 2.674 1.302.663.859.994 2.03.994 3.514s-.331 2.66-.994 3.528c-.662.868-1.554 1.302-2.674 1.302Zm0-1.428c.672 0 1.195-.299 1.568-.896.383-.597.574-1.433.574-2.506 0-.709-.088-1.316-.266-1.82-.168-.513-.415-.901-.742-1.162a1.688 1.688 0 0 0-1.134-.406c-.448 0-.835.135-1.162.406-.326.261-.574.649-.742 1.162-.168.504-.252 1.111-.252 1.82 0 1.073.187 1.909.56 2.506.383.597.915.896 1.596.896Z" opacity=".4"/>
  <path stroke="#000" stroke-width="1.5" d="M440 566h400" opacity=".1"/>
  <path fill="#1B1B1B" d="M444.396 558.168c-1.129 0-2.025-.434-2.688-1.302-.663-.868-.994-2.044-.994-3.528s.327-2.655.98-3.514c.663-.868 1.563-1.302 2.702-1.302 1.129 0 2.021.434 2.674 1.302.663.859.994 2.03.994 3.514s-.331 2.66-.994 3.528c-.663.868-1.554 1.302-2.674 1.302Zm0-1.428c.672 0 1.195-.299 1.568-.896.383-.597.574-1.433.574-2.506 0-.709-.089-1.316-.266-1.82-.168-.513-.415-.901-.742-1.162a1.688 1.688 0 0 0-1.134-.406c-.448 0-.835.135-1.162.406-.327.261-.574.649-.742 1.162-.168.504-.252 1.111-.252 1.82 0 1.073.187 1.909.56 2.506.383.597.915.896 1.596.896ZM443.388 596.572h3.472V598h-6.37v-.406c1.391-1.521 2.394-2.655 3.01-3.402.625-.756 1.041-1.33 1.246-1.722.205-.392.308-.779.308-1.162 0-.271-.061-.509-.182-.714a1.15 1.15 0 0 0-.49-.476 1.407 1.407 0 0 0-.728-.182c-.439 0-.793.131-1.064.392-.261.252-.392.583-.392.994v.21h-1.512v-.21c0-.84.271-1.517.812-2.03.541-.523 1.255-.784 2.142-.784.868 0 1.573.261 2.114.784.551.523.826 1.195.826 2.016 0 .429-.079.845-.238 1.246-.149.401-.457.919-.924 1.554-.457.625-1.134 1.447-2.03 2.464Zm7.8 1.596c-1.129 0-2.025-.434-2.688-1.302-.662-.868-.994-2.044-.994-3.528s.327-2.655.98-3.514c.663-.868 1.564-1.302 2.702-1.302 1.13 0 2.021.434 2.674 1.302.663.859.994 2.03.994 3.514s-.331 2.66-.994 3.528c-.662.868-1.554 1.302-2.674 1.302Zm0-1.428c.672 0 1.195-.299 1.568-.896.383-.597.574-1.433.574-2.506 0-.709-.088-1.316-.266-1.82-.168-.513-.415-.901-.742-1.162a1.688 1.688 0 0 0-1.134-.406c-.448 0-.835.135-1.162.406-.326.261-.574.649-.742 1.162-.168.504-.252 1.111-.252 1.82 0 1.073.187 1.909.56 2.506.383.597.915.896 1.596.896Zm7.07-.168h3.472V598h-6.37v-.406c1.39-1.521 2.394-2.655 3.01-3.402.625-.756 1.04-1.33 1.246-1.722.205-.392.308-.779.308-1.162 0-.271-.061-.509-.182-.714a1.155 1.155 0 0 0-.49-.476 1.41 1.41 0 0 0-.728-.182c-.439 0-.794.131-1.064.392-.262.252-.392.583-.392.994v.21h-1.512v-.21c0-.84.27-1.517.812-2.03.541-.523 1.255-.784 2.142-.784.868 0 1.572.261 2.114.784.55.523.826 1.195.826 2.016 0 .429-.08.845-.238 1.246-.15.401-.458.919-.924 1.554-.458.625-1.134 1.447-2.03 2.464Zm7.8 1.596c-1.13 0-2.026-.434-2.688-1.302-.663-.868-.994-2.044-.994-3.528s.326-2.655.98-3.514c.662-.868 1.563-1.302 2.702-1.302 1.129 0 2.02.434 2.674 1.302.662.859.994 2.03.994 3.514s-.332 2.66-.994 3.528c-.663.868-1.554 1.302-2.674 1.302Zm0-1.428c.672 0 1.194-.299 1.568-.896.382-.597.574-1.433.574-2.506 0-.709-.089-1.316-.266-1.82-.168-.513-.416-.901-.742-1.162a1.691 1.691 0 0 0-1.134-.406 1.76 1.76 0 0 0-1.162.406c-.327.261-.574.649-.742 1.162-.168.504-.252 1.111-.252 1.82 0 1.073.186 1.909.56 2.506.382.597.914.896 1.596.896ZM816.927 596.572h3.472V598h-6.37v-.406c1.391-1.521 2.394-2.655 3.01-3.402.626-.756 1.041-1.33 1.246-1.722a2.48 2.48 0 0 0 .308-1.162c0-.271-.06-.509-.182-.714a1.15 1.15 0 0 0-.49-.476 1.407 1.407 0 0 0-.728-.182c-.438 0-.793.131-1.064.392-.261.252-.392.583-.392.994v.21h-1.512v-.21c0-.84.271-1.517.812-2.03.542-.523 1.256-.784 2.142-.784.868 0 1.573.261 2.114.784.551.523.826 1.195.826 2.016 0 .429-.079.845-.238 1.246-.149.401-.457.919-.924 1.554-.457.625-1.134 1.447-2.03 2.464Zm7.801 1.596c-1.13 0-2.026-.434-2.688-1.302-.663-.868-.994-2.044-.994-3.528s.326-2.655.98-3.514c.662-.868 1.563-1.302 2.702-1.302 1.129 0 2.02.434 2.674 1.302.662.859.994 2.03.994 3.514s-.332 2.66-.994 3.528c-.663.868-1.554 1.302-2.674 1.302Zm0-1.428c.672 0 1.194-.299 1.568-.896.382-.597.574-1.433.574-2.506 0-.709-.089-1.316-.266-1.82-.168-.513-.416-.901-.742-1.162a1.691 1.691 0 0 0-1.134-.406 1.76 1.76 0 0 0-1.162.406c-.327.261-.574.649-.742 1.162-.168.504-.252 1.111-.252 1.82 0 1.073.186 1.909.56 2.506.382.597.914.896 1.596.896Zm7.069-.168h3.472V598h-6.37v-.406c1.391-1.521 2.394-2.655 3.01-3.402.625-.756 1.041-1.33 1.246-1.722.205-.392.308-.779.308-1.162 0-.271-.061-.509-.182-.714a1.15 1.15 0 0 0-.49-.476 1.407 1.407 0 0 0-.728-.182c-.439 0-.793.131-1.064.392-.261.252-.392.583-.392.994v.21h-1.512v-.21c0-.84.271-1.517.812-2.03.541-.523 1.255-.784 2.142-.784.868 0 1.573.261 2.114.784.551.523.826 1.195.826 2.016 0 .429-.079.845-.238 1.246-.149.401-.457.919-.924 1.554-.457.625-1.134 1.447-2.03 2.464Zm3.81-7.882h3.136V598h-1.498v-7.952h-1.638v-1.358Z" opacity=".4"/>
  <path fill="#1B1B1B" d="M467.044 12.502h.98v3.402h-1.484V14h-6.706v1.904h-1.484v-3.402h.77c.121-.084.224-.173.308-.266.084-.093.168-.224.252-.392a3.32 3.32 0 0 0 .21-.532c.056-.187.112-.443.168-.77.065-.336.121-.677.168-1.022.047-.355.098-.817.154-1.386.065-.579.121-1.157.168-1.736.056-.588.121-1.32.196-2.198h6.3v8.302Zm-4.858-6.804c-.168 2.277-.341 3.887-.518 4.83-.177.933-.448 1.591-.812 1.974h4.564V5.698h-3.234ZM475.889 14l-.854-2.128h-4.368l-.84 2.128h-1.708l3.948-9.8h1.512l4.046 9.8h-1.736Zm-3.052-7.7-1.61 4.13h3.248l-1.638-4.13Zm7.364-3.472V1.61h4.074v1.218h-4.074Zm4.858 1.372h1.162V14h-1.596V7.21L479.487 14h-1.12V4.2h1.61v6.72l5.082-6.72Zm8.362 0v1.498h-3.78V14h-1.61V4.2h5.39Zm4.94 9.982c-1.484 0-2.716-.48-3.696-1.442-.98-.97-1.47-2.184-1.47-3.64s.49-2.665 1.47-3.626c.98-.97 2.212-1.456 3.696-1.456s2.716.485 3.696 1.456c.98.961 1.47 2.17 1.47 3.626 0 .952-.224 1.82-.672 2.604a4.689 4.689 0 0 1-1.848 1.82c-.784.439-1.666.658-2.646.658Zm-2.52-2.548c.672.672 1.512 1.008 2.52 1.008 1.017 0 1.857-.336 2.52-1.008.672-.681 1.008-1.526 1.008-2.534 0-1.008-.336-1.848-1.008-2.52-.663-.681-1.503-1.022-2.52-1.022-1.008 0-1.848.34-2.52 1.022-.672.672-1.008 1.512-1.008 2.52s.336 1.853 1.008 2.534Zm19.476.868h.98v3.402h-1.484V14h-6.706v1.904h-1.484v-3.402h.77c.121-.084.224-.173.308-.266.084-.093.168-.224.252-.392a3.32 3.32 0 0 0 .21-.532c.056-.187.112-.443.168-.77.065-.336.121-.677.168-1.022.046-.355.098-.817.154-1.386.065-.579.121-1.157.168-1.736.056-.588.121-1.32.196-2.198h6.3v8.302Zm-4.858-6.804c-.168 2.277-.341 3.887-.518 4.83-.178.933-.448 1.591-.812 1.974h4.564V5.698h-3.234Zm8.606 6.776h4.242V14h-5.852V4.2h5.698v1.512h-4.088V8.26h3.724v1.484h-3.724v2.73Zm11.56-8.274h1.61V14h-1.61V9.73h-4.48V14h-1.61V4.2h1.61v4.004h4.48V4.2Zm9.807 0v1.498h-2.884V14h-1.596V5.698h-2.884V4.2h7.364Z"/>
  <circle cx="446" cy="10" r="6" fill="#BE8E66"/>
  <path fill="#1B1B1B" d="M607.044 12.502h.98v3.402h-1.484V14h-6.706v1.904h-1.484v-3.402h.77c.121-.084.224-.173.308-.266.084-.093.168-.224.252-.392a3.32 3.32 0 0 0 .21-.532c.056-.187.112-.443.168-.77.065-.336.121-.677.168-1.022.047-.355.098-.817.154-1.386.065-.579.121-1.157.168-1.736.056-.588.121-1.32.196-2.198h6.3v8.302Zm-4.858-6.804c-.168 2.277-.341 3.887-.518 4.83-.177.933-.448 1.591-.812 1.974h4.564V5.698h-3.234ZM615.889 14l-.854-2.128h-4.368l-.84 2.128h-1.708l3.948-9.8h1.512l4.046 9.8h-1.736Zm-3.052-7.7-1.61 4.13h3.248l-1.638-4.13Zm7.364-3.472V1.61h4.074v1.218h-4.074Zm4.858 1.372h1.162V14h-1.596V7.21L619.487 14h-1.12V4.2h1.61v6.72l5.082-6.72Zm8.362 0v1.498h-3.78V14h-1.61V4.2h5.39Zm4.94 9.982c-1.484 0-2.716-.48-3.696-1.442-.98-.97-1.47-2.184-1.47-3.64s.49-2.665 1.47-3.626c.98-.97 2.212-1.456 3.696-1.456s2.716.485 3.696 1.456c.98.961 1.47 2.17 1.47 3.626 0 .952-.224 1.82-.672 2.604a4.689 4.689 0 0 1-1.848 1.82c-.784.439-1.666.658-2.646.658Zm-2.52-2.548c.672.672 1.512 1.008 2.52 1.008 1.017 0 1.857-.336 2.52-1.008.672-.681 1.008-1.526 1.008-2.534 0-1.008-.336-1.848-1.008-2.52-.663-.681-1.503-1.022-2.52-1.022-1.008 0-1.848.34-2.52 1.022-.672.672-1.008 1.512-1.008 2.52s.336 1.853 1.008 2.534ZM649.213 4.2h6.258V14h-1.61V5.698h-3.206l-.462 4.998c-.215 2.212-1.27 3.318-3.164 3.318h-.462v-1.582h.462c.914 0 1.423-.56 1.526-1.68l.658-6.552Zm15.947-.182c1.437 0 2.623.48 3.556 1.442.943.952 1.414 2.165 1.414 3.64 0 .97-.215 1.843-.644 2.618a4.596 4.596 0 0 1-1.764 1.82c-.756.43-1.61.644-2.562.644-1.297 0-2.399-.401-3.304-1.204-.905-.812-1.442-1.857-1.61-3.136h-1.372V14h-1.61V4.2h1.61v4.144h1.372c.168-1.279.705-2.32 1.61-3.122.905-.803 2.007-1.204 3.304-1.204Zm-.042 8.61c.989 0 1.801-.331 2.436-.994.635-.672.952-1.517.952-2.534s-.322-1.857-.966-2.52c-.635-.672-1.442-1.008-2.422-1.008-.971 0-1.783.336-2.436 1.008-.644.663-.966 1.503-.966 2.52 0 1.017.322 1.862.966 2.534.644.663 1.456.994 2.436.994ZM677.126 14l-3.066-4.298h-1.148V14h-1.61V4.2h1.61v4.004h1.134l2.8-4.004h1.974l-3.346 4.732L679.128 14h-2.002Zm6.404.168c-1.447 0-2.651-.476-3.612-1.428-.952-.961-1.428-2.175-1.428-3.64 0-1.465.476-2.674 1.428-3.626.961-.961 2.165-1.442 3.612-1.442.765 0 1.474.15 2.128.448a4.407 4.407 0 0 1 1.638 1.274c.448.55.756 1.19.924 1.918h-1.624c-.234-.653-.621-1.162-1.162-1.526-.542-.373-1.176-.56-1.904-.56-.98 0-1.792.331-2.436.994-.644.663-.966 1.507-.966 2.534 0 1.017.322 1.857.966 2.52.644.653 1.456.98 2.436.98.746 0 1.395-.196 1.946-.588.55-.401.933-.947 1.148-1.638h1.638c-.252 1.148-.808 2.067-1.666 2.758-.859.681-1.881 1.022-3.066 1.022Z"/>
  <circle cx="586" cy="10" r="6" fill="#EDC19E"/>
  <path fill="#1B1B1B" d="M755.658 4.2v1.498h-2.884V14h-1.596V5.698h-2.884V4.2h7.364Zm6.621 9.8-.854-2.128h-4.368l-.84 2.128h-1.708l3.948-9.8h1.512l4.046 9.8h-1.736Zm-3.052-7.7-1.61 4.13h3.248l-1.638-4.13Zm17.207 7.7h-1.638l-1.148-7.098-3.178 6.944h-.406l-3.192-6.944L765.724 14h-1.638l1.596-9.8h1.582l2.996 6.664 2.996-6.664h1.596l1.582 9.8Zm5.572.182c-1.484 0-2.716-.48-3.696-1.442-.98-.97-1.47-2.184-1.47-3.64s.49-2.665 1.47-3.626c.98-.97 2.212-1.456 3.696-1.456s2.716.485 3.696 1.456c.98.961 1.47 2.17 1.47 3.626 0 .952-.224 1.82-.672 2.604a4.676 4.676 0 0 1-1.848 1.82c-.784.439-1.666.658-2.646.658Zm-2.52-2.548c.672.672 1.512 1.008 2.52 1.008 1.018 0 1.858-.336 2.52-1.008.672-.681 1.008-1.526 1.008-2.534 0-1.008-.336-1.848-1.008-2.52-.662-.681-1.502-1.022-2.52-1.022-1.008 0-1.848.34-2.52 1.022-.672.672-1.008 1.512-1.008 2.52s.336 1.853 1.008 2.534Zm16.103.868h.966v3.402h-1.484V14h-6.734V4.2h1.61v8.302h4.046V4.2h1.596v8.302Zm7.696-8.302h1.708l-2.926 6.706c-.513 1.204-1.045 2.025-1.596 2.464-.541.439-1.297.658-2.268.658h-.42V12.53h.574c.495 0 .873-.089 1.134-.266.261-.187.527-.55.798-1.092l-3.71-6.972h1.834l2.702 5.11 2.17-5.11Z"/>
  <circle cx="736" cy="10" r="6" fill="#C7C2E6"/>
  <path stroke="#C7C2E6" stroke-width="1.5" d="m467.5 550.5 356.5-310"/>
  <circle cx="824" cy="240" r="6" fill="#C7C2E6"/>
  <circle cx="467" cy="551" r="6" fill="#C7C2E6"/>
  <path stroke="#EDC19E" stroke-width="1.5" d="M467 457.5 831 344"/>
  <circle cx="831" cy="344" r="6" fill="#EDC19E"/>
  <circle cx="467" cy="457" r="6" fill="#EDC19E"/>
  <path stroke="#BE8E66" stroke-width="1.5" d="m467 437.5 364-364"/>
  <circle cx="831" cy="74" r="6" fill="#BE8E66"/>
  <circle cx="467" cy="437" r="6" fill="#BE8E66"/>
</svg>
