<svg xmlns="http://www.w3.org/2000/svg" fill="#000" viewBox="0 0 166 50"><path d="M35.145 16.33c3.836-1.683 9.701-1.231 12.364 1.394 2.846 2.797 3.27 9.316 1.202 13.124-4.144-1.202-8.48-6-8.509-9.98a4.635 4.635 0 0 0-1.365-3.24 4.596 4.596 0 0 0-3.692-1.299ZM26.038 11.695c1.519-3.904 5.99-7.73 9.72-7.76 4-.038 8.894 4.28 10.134 8.433-3.779 2.087-10.24 1.75-13.066-1.038a4.617 4.617 0 0 0-3.26-1.327 4.588 4.588 0 0 0-3.528 1.692Z" clip-rule="evenodd"></path><path d="M26.038 11.695c.99-2.529 3.201-5.019 5.663-6.47.461.365.884.807 1.298 1.25.529.557 1.057 1.115 1.625 1.441.298.174.634.299.99.395.356.105.76.192 1.163.279.548.115 1.096.24 1.606.423.538.192 1.038.451 1.442.846.808.788 1.077 1.923 1.337 3.048.057.25.115.5.182.74-3.211.288-6.653-.48-8.528-2.327a4.617 4.617 0 0 0-3.26-1.327 4.623 4.623 0 0 0-3.518 1.702ZM16.331 14.858c-1.683-3.836-1.23-9.701 1.394-12.364 2.798-2.846 9.317-3.27 13.124-1.202-1.202 4.144-6 8.48-9.98 8.509a4.634 4.634 0 0 0-3.24 1.365 4.596 4.596 0 0 0-1.298 3.692ZM11.695 23.964c-3.903-1.52-7.73-5.99-7.759-9.721-.038-4 4.279-8.894 8.432-10.134 2.087 3.779 1.75 10.24-1.038 13.067a4.617 4.617 0 0 0-1.327 3.259 4.588 4.588 0 0 0 1.692 3.529ZM14.858 33.675c-3.836 1.682-9.701 1.23-12.364-1.394-2.846-2.798-3.27-9.317-1.202-13.125 4.144 1.202 8.48 6 8.509 9.98a4.634 4.634 0 0 0 1.365 3.24 4.595 4.595 0 0 0 3.692 1.299ZM23.961 38.309c-1.528 3.904-5.99 7.73-9.72 7.76-4 .038-8.894-4.28-10.134-8.433 3.778-2.087 10.24-1.75 13.066 1.038a4.616 4.616 0 0 0 3.26 1.327 4.588 4.588 0 0 0 3.528-1.692ZM19.167 48.712c1.202-4.144 6-8.48 9.98-8.509a4.634 4.634 0 0 0 3.24-1.365 4.617 4.617 0 0 0 1.298-3.692c1.683 3.836 1.23 9.701-1.394 12.364-2.808 2.846-9.317 3.26-13.124 1.202ZM37.638 45.895c-2.087-3.779-1.75-10.24 1.038-13.067a4.616 4.616 0 0 0 1.327-3.259 4.634 4.634 0 0 0-1.692-3.529c3.903 1.52 7.73 5.99 7.759 9.721.029 4-4.279 8.903-8.432 10.134Z" clip-rule="evenodd"></path><path d="M42.173 15.454c.337.414.77.808 1.202 1.202.865.78 1.721 1.558 2.029 2.644.298 1.068-.029 2.173-.356 3.28-.221.759-.452 1.518-.442 2.21.01.654.24 1.385.48 2.125.26.798.52 1.606.539 2.414-2.961-2.048-5.404-5.48-5.423-8.461a4.635 4.635 0 0 0-1.365-3.24 4.617 4.617 0 0 0-3.692-1.299c2.029-.894 4.634-1.182 7.028-.875ZM44.779 31.694c-.366.462-.817.884-1.26 1.298-.557.529-1.115 1.058-1.442 1.625-.336.606-.51 1.384-.673 2.154-.25 1.134-.49 2.26-1.27 3.047-.788.808-1.922 1.077-3.047 1.337-.25.058-.49.115-.73.183-.29-3.212.48-6.654 2.326-8.529a4.617 4.617 0 0 0 1.327-3.26 4.634 4.634 0 0 0-1.692-3.528c2.519 1.01 5.009 3.221 6.46 5.673ZM34.545 42.174c-.413.337-.808.77-1.202 1.202-.779.865-1.557 1.721-2.644 2.029-1.067.298-2.173-.03-3.278-.356-.76-.221-1.52-.452-2.212-.442-.654.01-1.384.24-2.115.48-.798.26-1.606.52-2.413.539 2.048-2.962 5.49-5.404 8.46-5.423a4.634 4.634 0 0 0 3.24-1.365 4.617 4.617 0 0 0 1.299-3.692c.884 2.028 1.173 4.634.865 7.028ZM18.302 44.78c-.462-.366-.885-.808-1.298-1.26-.53-.557-1.058-1.115-1.625-1.442a4.092 4.092 0 0 0-.99-.394c-.356-.106-.76-.192-1.154-.279h-.01c-1.134-.24-2.25-.49-3.048-1.27-.807-.788-1.077-1.922-1.336-3.047-.058-.25-.125-.49-.183-.73 3.211-.29 6.663.48 8.528 2.326a4.617 4.617 0 0 0 3.26 1.327 4.634 4.634 0 0 0 3.528-1.692c-1 2.519-3.211 5.009-5.672 6.46ZM7.832 34.55c-.337-.414-.77-.808-1.202-1.202-.865-.78-1.73-1.558-2.029-2.644-.298-1.068.03-2.173.356-3.279.221-.76.452-1.52.442-2.211-.01-.654-.24-1.385-.48-2.116-.26-.798-.52-1.605-.539-2.413 2.962 2.048 5.404 5.49 5.423 8.461a4.634 4.634 0 0 0 1.365 3.24 4.617 4.617 0 0 0 3.692 1.298c-2.028.885-4.634 1.173-7.028.866ZM5.225 18.31c.365-.461.808-.884 1.25-1.298.558-.529 1.115-1.058 1.442-1.625.337-.606.51-1.384.673-2.154.24-1.134.49-2.259 1.27-3.047.788-.808 1.922-1.077 3.047-1.347.25-.057.5-.115.74-.182.29 3.211-.48 6.663-2.326 8.528a4.617 4.617 0 0 0-1.327 3.26 4.634 4.634 0 0 0 1.692 3.528c-2.519-1-5.01-3.211-6.46-5.663ZM15.452 7.83c.414-.337.808-.77 1.202-1.202.78-.865 1.558-1.73 2.644-2.029 1.068-.298 2.173.03 3.279.356.394.115.788.23 1.154.317a5.23 5.23 0 0 0 1.067.135c.654-.01 1.385-.24 2.115-.48.798-.26 1.606-.52 2.413-.54-2.047 2.962-5.49 5.404-8.46 5.424a4.634 4.634 0 0 0-3.24 1.365 4.617 4.617 0 0 0-1.299 3.692c-.894-2.038-1.182-4.644-.875-7.038ZM31.705 5.224c.462.366.885.808 1.298 1.25.53.558 1.058 1.116 1.625 1.442.298.174.635.299.99.395.356.105.76.192 1.164.279.548.115 1.096.24 1.606.423.538.192 1.038.451 1.442.846.808.788 1.077 1.923 1.336 3.048.058.25.116.5.183.74-3.211.288-6.653-.48-8.528-2.327a4.617 4.617 0 0 0-3.26-1.327 4.634 4.634 0 0 0-3.528 1.692c1-2.519 3.211-5.009 5.672-6.46ZM159.688 27c3.288 0 5.76 2.4 5.76 5.616 0 3.192-2.472 5.592-5.76 5.592-3.24 0-5.688-2.424-5.688-5.592C154 29.4 156.448 27 159.688 27Zm0 10.032c2.568 0 4.512-1.776 4.512-4.416 0-2.544-1.944-4.464-4.512-4.464-2.496 0-4.44 1.8-4.44 4.464 0 2.52 1.944 4.416 4.44 4.416Zm2.592-5.76c0 1.464-1.224 1.92-2.088 1.944l2.184 2.424h-1.488l-2.136-2.544v2.544h-1.2v-6.288h2.52c1.344 0 2.208.744 2.208 1.92Zm-2.304-.792h-1.224v1.872h1.224c.672 0 1.08-.384 1.08-.96 0-.624-.408-.912-1.08-.912ZM65.006 1.196h7.316c4.07 0 7.095 2.256 7.095 6.436 0 4.153-3.025 6.6-7.26 6.6h-3.933v6.491h-3.218V1.196Zm3.218 10.121h4.098c2.227 0 3.878-1.21 3.878-3.602 0-2.366-1.65-3.576-3.878-3.576h-4.098v7.178ZM87.512 20.998c-4.4 0-7.646-3.135-7.646-7.425 0-4.263 3.246-7.426 7.646-7.426 4.428 0 7.673 3.163 7.673 7.426 0 4.29-3.245 7.425-7.673 7.425Zm0-2.832c2.64 0 4.62-1.98 4.62-4.593 0-2.64-1.98-4.593-4.62-4.593-2.613 0-4.565 1.952-4.565 4.593 0 2.612 1.952 4.593 4.565 4.593ZM101.294 6.45h6.765v14.273h-2.998c0-4.675.028-6.05.248-6.298h-.028l-5.858 6.298h-3.685c3.438-3.465 4.868-4.813 5.721-5.39h-.633c-2.035 0-4.813-1.155-4.813-4.456 0-2.805 2.008-4.428 5.281-4.428Zm-2.256 4.702c0 1.21.88 2.036 2.476 2.036h3.547V9.172h-3.547c-1.596 0-2.476.77-2.476 1.98ZM109.418 20.806l.027-2.806c1.1-.055 2.255-.66 2.255-2.942V6.449h11.579v14.274h-3.108V9.255h-5.418v5.858c0 3.96-2.338 5.748-5.335 5.693ZM74.825 35.987l6.765-9.79h3.025v19.526h-3.217c0-9.433 0-12.926.22-14.549l-6.821 9.984-6.766-9.929c.193 1.65.193 5.226.193 14.494h-3.218V26.196h3.025l6.793 9.791ZM94.004 31.147c4.346 0 7.453 3.025 7.316 8.47H89.851c.193 2.228 2.035 3.769 4.4 3.769 2.036 0 3.356-1.046 3.96-2.283l2.779.302c-.77 2.558-3.41 4.593-6.766 4.593-4.345 0-7.536-2.942-7.536-7.398 0-4.235 3.053-7.453 7.316-7.453Zm0 2.558c-2.255 0-3.988 1.485-4.153 3.52h8.223c-.082-2.008-1.732-3.52-4.07-3.52ZM116.218 31.45v11.358h1.953v5.996h-2.861v-3.08h-10.918v3.08h-2.86v-5.996h1.842c.495 0 .963-.66.99-2.475l.22-8.884h11.634Zm-9.516 11.358h6.408v-8.553h-5.583l-.165 5.885c-.055 1.678-.385 2.448-.66 2.668ZM122.407 41.35l7.784-9.9h2.86v14.273h-3.108v-9.736l-7.756 9.736H119.3V31.45h3.107v9.901ZM141.498 38.105l7.096 7.618h-3.741l-6.38-6.958c.137 1.733.192 3.85.192 6.958h-3.163V31.45h3.163c0 3.163 0 4.758-.165 5.941l6.326-5.94h3.74l-7.068 6.655Z"></path></svg>