<svg xmlns="http://www.w3.org/2000/svg" width="79" height="85" viewBox="0 0 79 85" fill="none">
    <path fill-rule="evenodd" clip-rule="evenodd" d="M37.1097 81.3567L38.7932 79.5765H37.9808L36.5974 81.1743V79.5765H35.9972V83.3339H36.5974V81.5683L38.0613 83.3339H38.7932L37.139 81.3567H37.1097ZM42.731 84.669H42.1309V79.7297C42.5884 79.602 43.061 79.5358 43.5362 79.5327C44.5536 79.5327 45.0001 80.1966 45.0001 81.2181V81.7069C45.0001 82.7794 44.5023 83.3776 43.5362 83.3776C43.2662 83.3761 42.9969 83.3517 42.731 83.3047V84.669ZM44.4218 81.7069C44.4218 82.4365 44.2022 82.8742 43.5362 82.8742C43.2665 82.8738 42.9972 82.8519 42.731 82.8086V80.1018C42.9975 80.0611 43.2666 80.0392 43.5362 80.0361C44.2096 80.0361 44.4218 80.5031 44.4218 81.2181V81.7069ZM51.1996 83.3339H50.7238L50.614 83.0493C50.2984 83.2505 49.9345 83.3638 49.56 83.3776C49.4095 83.3976 49.2564 83.383 49.1124 83.335C48.9684 83.2869 48.8374 83.2066 48.7293 83.1003C48.6212 82.994 48.539 82.8644 48.4889 82.7215C48.4388 82.5787 48.4221 82.4262 48.4402 82.276V82.1957C48.4402 81.4661 48.872 81.0867 50.0944 81.0867H50.5994V80.8168C50.5994 80.2404 50.4018 80.0434 49.8675 80.0434C49.5177 80.0431 49.1683 80.0626 48.8208 80.1018H48.6598V79.6421C49.0554 79.55 49.4612 79.5084 49.8675 79.5181C50.819 79.5181 51.1996 79.9923 51.1996 80.8022V83.3339ZM50.5994 82.6043C50.3204 82.7717 50.0027 82.8647 49.6772 82.8742C49.2746 82.8742 49.0477 82.7429 49.0477 82.2541V82.1738C49.0477 81.685 49.2673 81.5026 50.0944 81.5026H50.5994V82.6043ZM57.1869 82.7867C56.8502 82.7867 56.5427 82.8377 56.1987 82.8377C55.6425 82.8377 55.3424 82.4729 55.3424 81.7069V81.1743C55.3424 80.4009 55.6498 80.0434 56.1987 80.0434C56.5315 80.0471 56.8638 80.069 57.1942 80.1091V79.613C56.8653 79.5561 56.5325 79.5244 56.1987 79.5181C55.2619 79.5181 54.7349 80.1747 54.7349 81.1743V81.7069C54.7349 82.7137 55.2619 83.363 56.1987 83.363C56.5303 83.3611 56.861 83.3294 57.1869 83.2682V82.7867ZM63.6279 81.6996V81.1816C63.6488 80.9698 63.6249 80.756 63.5579 80.5539C63.4909 80.3519 63.3822 80.1661 63.2388 80.0084C63.0954 79.8507 62.9205 79.7247 62.7253 79.6385C62.5301 79.5523 62.319 79.5078 62.1055 79.5078C61.892 79.5078 61.6809 79.5523 61.4857 79.6385C61.2905 79.7247 61.1156 79.8507 60.9722 80.0084C60.8288 80.1661 60.7201 80.3519 60.6531 80.5539C60.586 80.756 60.5622 80.9698 60.5831 81.1816V81.6996C60.5831 82.7064 61.0954 83.363 62.0982 83.363C62.3118 83.3723 62.5248 83.3349 62.7224 83.2533C62.9199 83.1717 63.0971 83.048 63.2415 82.8908C63.3859 82.7337 63.4941 82.5469 63.5583 82.3436C63.6225 82.1403 63.6413 81.9255 63.6133 81.7142L63.6279 81.6996ZM63.0277 81.6996C63.0277 82.4292 62.735 82.8377 62.0982 82.8377C61.4614 82.8377 61.1832 82.4 61.1832 81.6996V81.1816C61.1832 80.452 61.4614 80.0434 62.0982 80.0434C62.735 80.0434 63.0277 80.4885 63.0277 81.1816V81.6996ZM69.8714 79.9267V79.5619H66.724V80.0653H67.9903V83.3193H68.5905V80.0799H69.8567L69.8714 79.9267ZM76.8394 83.3193H77.4396V79.5692H76.8541L76.8394 83.3193ZM73.2163 83.3193V79.5619H73.8165V81.0211H74.4606C75.4561 81.0211 76.1953 81.3129 76.1953 82.1665V82.2176C76.1953 83.0712 75.4634 83.363 74.4606 83.363H74.1532C73.8238 83.3703 73.4213 83.3557 73.1944 83.3339L73.2163 83.3193ZM75.5878 82.2176C75.5878 82.6772 75.1779 82.845 74.4387 82.845H73.8165V81.5756H74.4387C75.1706 81.5756 75.5878 81.7434 75.5878 82.203V82.2176ZM23.4225 79.9413V79.5765H20.2971V80.0799H21.5707V83.3339H22.1709V80.0799H23.4225V79.9413ZM27.4774 84.669H26.8699V79.7297C27.3277 79.603 27.8002 79.5367 28.2752 79.5327C29.3 79.5327 29.7391 80.1966 29.7391 81.2181V81.7069C29.7391 82.7794 29.2487 83.3776 28.2752 83.3776C28.0077 83.3764 27.7407 83.352 27.4774 83.3047V84.669ZM29.1682 81.7069C29.1682 82.4365 28.9486 82.8742 28.2752 82.8742C28.008 82.8738 27.7411 82.8519 27.4774 82.8086V80.1018C27.7415 80.0614 28.0081 80.0395 28.2752 80.0361C28.9559 80.0361 29.1682 80.5031 29.1682 81.2181V81.7069ZM3.03064 82.8159H1.22274V79.5765H0.615234V83.3339H3.41856V84.0634H4.01143V82.8013H3.6601V79.5619H3.03064V82.8159ZM10.2622 81.6485H7.83948V81.7434C7.83948 82.5532 8.16153 82.8523 8.791 82.8523C8.98131 82.8523 9.19357 82.8523 9.39851 82.8523C9.60345 82.8523 9.83035 82.8523 10.0426 82.7867V83.2755C9.63025 83.3551 9.21103 83.3942 8.791 83.3922C8.5758 83.4067 8.36005 83.3737 8.15917 83.2954C7.95828 83.2171 7.77724 83.0955 7.62898 82.9394C7.48072 82.7832 7.3689 82.5964 7.30154 82.3921C7.23417 82.1879 7.21291 81.9713 7.23929 81.7579V81.1451C7.21654 80.9341 7.24025 80.7206 7.30876 80.5197C7.37728 80.3187 7.48895 80.1351 7.63599 79.9815C7.78303 79.828 7.9619 79.7083 8.16012 79.6308C8.35834 79.5533 8.57114 79.5198 8.78368 79.5327C8.99025 79.5246 9.19611 79.5615 9.38687 79.641C9.57763 79.7204 9.74869 79.8404 9.8881 79.9925C10.0275 80.1447 10.1319 80.3254 10.194 80.5219C10.2561 80.7185 10.2744 80.9262 10.2476 81.1305L10.2622 81.6485ZM9.65469 81.1889H7.83948V81.1305C7.83948 80.4009 8.16885 80.058 8.7544 80.058C9.33996 80.058 9.65469 80.3571 9.65469 81.1305V81.1889ZM16.835 79.5765H16.2495V81.1597H14.4343V79.5765H13.8341V83.3339H14.4343V81.6777H16.2495V83.3339H16.835V79.5765Z" fill="#000"/>
    <path fill-rule="evenodd" clip-rule="evenodd" d="M44.9925 12.1188C44.3205 12.2627 43.6618 12.4628 43.0235 12.717C43.612 10.6551 43.9366 8.52729 43.9897 6.38421L44.4142 6.60309C44.8701 8.40471 45.0648 10.2621 44.9925 12.1188ZM41.4206 13.4174C40.658 13.7701 39.876 14.0795 39.0784 14.344C40.4101 10.5812 41.2131 6.65282 41.4645 2.67061L41.8524 2.8749C42.2586 6.39011 42.1129 9.94692 41.4206 13.4174ZM48.579 29.7821L48.2716 29.9499C49.6549 26.8199 51.7263 23.3836 53.2048 20.3485C52.8386 19.3039 52.2319 18.3594 51.4335 17.5907C49.3841 21.9682 47.0931 26.7762 45.4536 31.3288L45.234 31.4309C46.7564 25.9955 49.0401 21.669 50.9065 17.1164C50.2416 16.6097 49.5005 16.2108 48.7107 15.9345C46.2682 21.2823 44.2492 26.8124 42.6722 32.4742L42.438 32.5691C43.653 26.4697 46.0172 20.9978 48.03 15.7302C47.2418 15.5573 46.4418 15.4427 45.6366 15.3873C43.0721 21.203 41.1883 27.2939 40.0226 33.5394L39.7737 33.6416C40.3778 28.7712 41.5217 23.9826 43.1846 19.3636C43.6237 18.043 44.0556 16.7662 44.4435 15.3362C43.7116 15.3362 42.9796 15.2925 42.1672 15.3362C41.4352 17.525 40.5423 19.6189 39.8177 21.7931C38.3923 25.9771 37.5548 30.3376 37.3291 34.7505L37.1388 34.8454C36.9485 27.7027 39.2467 21.7128 41.0034 15.3144C40.2715 15.3144 39.481 15.3581 38.7197 15.3946C38.4855 16.0877 38.244 16.7808 37.9878 17.4666C36.3922 22.0411 34.8917 26.6083 34.6282 32.0584C34.5627 33.4477 34.597 34.8399 34.7307 36.2243L34.533 36.3556C33.318 29.4318 35.8139 22.2235 37.3803 15.4603L34.8039 15.6135C33.7758 18.3454 32.9082 21.1347 32.2055 23.9672C32.1469 24.2372 32.081 24.5071 32.0298 24.7771C31.2393 29.0014 30.9905 33.8386 32.2714 38.289L32.103 38.4714C31.5899 36.9719 31.2438 35.4208 31.071 33.8458C30.2146 26.0466 31.8029 20.7133 33.523 14.9131C34.0719 13.0818 34.6282 11.1995 35.1332 9.17123C35.4699 7.8215 35.8139 6.42799 36.0482 5.05636L35.6676 5.1585L35.4041 5.85161C34.4233 8.36139 33.4425 10.5939 32.5275 12.6732C31.4735 15.0809 30.5001 17.2842 29.7169 19.4876C27.0892 26.8856 26.9355 33.7364 30.3098 40.7769L30.1926 40.9666C25.3033 33.2768 26.4012 23.8505 29.7315 15.8105C29.9731 15.2268 30.2439 14.5921 30.4635 14.0595L30.0097 14.1981C28.0808 17.061 26.5655 20.1802 25.5082 23.4638C24.5282 26.6545 24.1924 30.0071 24.5201 33.3278C24.8178 36.7629 26.0699 40.0472 28.1359 42.8125C30.1742 45.4764 32.8769 47.5617 35.975 48.8607L36.297 48.4522C34.4745 43.6369 37.1314 40.0911 40.9156 37.3479C44.4874 34.7286 49.4573 32.3283 51.9678 28.4469C52.6877 27.3896 53.188 26.1994 53.4394 24.9464C53.6908 23.6934 53.6882 22.403 53.4317 21.151C51.9678 23.9672 49.9916 26.9075 48.579 29.7821ZM38.7344 0.335938L39.1223 0.430784C39.1223 1.00716 39.1955 1.57623 39.2028 2.15261C39.2687 6.53013 38.6026 10.127 37.5706 14.6212L35.0015 15.0517C36.9459 10.3498 38.203 5.39398 38.7344 0.335938V0.335938Z" fill="#000"/>
    <path fill-rule="evenodd" clip-rule="evenodd" d="M15.6855 72.149C13.7092 72.149 12.3844 71.6091 12.3844 69.5006V58.5568H15.0048V69.1285C15.0048 69.7122 15.0706 70.2448 16.0222 70.2667H20.4504V71.0328C19.6799 71.7037 18.7054 72.0968 17.6837 72.149H15.6855ZM70.2662 62.7665V68.7491C70.2955 69.3785 70.1907 70.007 69.9585 70.593C69.7264 71.179 69.3722 71.7094 68.9194 72.149H67.7191V58.5349H70.0393L75.5289 67.8663V61.9348C75.4967 61.307 75.5981 60.6796 75.8265 60.0936C76.0548 59.5077 76.4048 58.9765 76.8537 58.5349H78.0174V72.149H75.6972L70.2662 62.7665ZM45.168 68.3625C45.168 69.5079 45.6364 71.4559 46.5587 72.149H47.7737V58.5349H45.168V68.3625ZM41.5083 59.3375C41.178 59.6569 40.7853 59.9053 40.3547 60.0672C39.9241 60.2291 39.4647 60.301 39.0051 60.2787H37.4826C35.9456 60.2787 35.4625 61.6722 36.3115 62.5841L39.9273 65.9475C42.4745 68.7491 40.9593 72.149 36.758 72.149C35.4398 72.1801 34.1383 71.8495 32.9958 71.1933V70.2667H36.597C38.9099 70.2667 38.7928 68.4354 37.5778 67.2827L34.4451 64.3643C32.037 61.8473 33.4936 58.5276 37.102 58.5276H41.4937L41.5083 59.3375ZM25.6691 66.1591L28.3114 58.5349H30.9245L27.0305 68.844V72.149H24.315V68.844L20.2528 58.5349H21.6727C22.6337 59.1856 23.394 60.0899 23.8686 61.1469L25.6691 66.1591ZM4.55998 66.1591H2.58375V69.2088C2.58375 69.9384 2.80333 70.1208 3.63042 70.1354H9.23708V71.1276C8.32554 71.7147 7.27592 72.0542 6.19221 72.1125H3.26445C2.81263 72.1217 2.36113 72.0826 1.91768 71.9958C0.534316 71.7478 0 70.8431 0 69.5006V58.5568H8.78328V59.3667C8.00805 60.0589 7.00608 60.4454 5.96531 60.4538H2.58375V64.2476H7.65609V65.269C6.74134 65.8819 5.66212 66.2049 4.55998 66.1956V66.1591ZM54.3904 65.1961C54.3904 67.2681 54.9614 70.9014 57.6988 70.9014C60.4363 70.9014 61.0072 67.2535 61.0072 65.1961C61.0072 63.1386 60.4143 59.7971 57.6988 59.7825C54.9833 59.7679 54.4051 63.0803 54.3904 65.1961ZM57.6988 72.3387C53.4462 72.3387 51.7115 69.0702 51.7115 65.2325C51.7115 61.3949 53.6073 58.3452 57.7061 58.3452C61.805 58.3452 63.6788 61.4387 63.6788 65.269C63.6788 69.0993 61.9367 72.3752 57.6915 72.3752L57.6988 72.3387Z" fill="#000"/>
    </svg>