<?xml version="1.0" encoding="UTF-8"?> <svg xmlns="http://www.w3.org/2000/svg" viewBox="0 0 312 47.99"> <path d="M3.83,2.44H.35A.33.33,0,0,1,0,2.09v-.9C0,1,.14.91.35.91H10.64a.47.47,0,0,1,.49.49V24L33.25,1.4a1.61,1.61,0,0,1,1-.49h4.32c.21,0,.34.07.34.28v.9a.32.32,0,0,1-.34.35H35.61L17.11,21.36a215.76,215.76,0,0,0,17.6,19c2.71,2.37,4.8,4,7.23,4a5.61,5.61,0,0,0,2.51-.7c.14,0,.21.14.35.35a1.69,1.69,0,0,1,.27.63c0,.14-.14.34-.55.62a12.58,12.58,0,0,1-6.82,2.09,12.84,12.84,0,0,1-9.25-3.62C23.31,39.51,16.07,31,11.13,24.7V45.42h3.62a.33.33,0,0,1,.35.35v.91c0,.21-.14.27-.35.27H4.32a.48.48,0,0,1-.49-.48Z" fill="#0085a1"></path> <path d="M89.28,25C84.9,17.88,79.68,9.6,74.61,2.44h-3.2a.33.33,0,0,1-.35-.35v-.9c0-.21.14-.28.35-.28H82.25a1.08,1.08,0,0,1,.77.48C86.91,7,91.85,15.1,95.88,21.85c4-6.75,8.91-15.17,12.59-20.32a1.11,1.11,0,0,1,.91-.62h5.29c.21,0,.35.07.35.28v.9a.33.33,0,0,1-.35.35h-3.55c-4.66,6.4-9.67,14.25-14.47,22.26V45.42h3.83a.33.33,0,0,1,.35.35v.91c0,.2-.14.27-.35.27H89.76a.47.47,0,0,1-.48-.48Z" fill="#0085a1"></path> <path d="M154.43,45.07h4.73a.33.33,0,0,1,.35.35v1.26c0,.2-.14.27-.35.27h-6.89a.48.48,0,0,1-.49-.48v-44h-3.54a.33.33,0,0,1-.35-.35v-1c0-.21.14-.28.35-.28h5.63a1.56,1.56,0,0,1,1,.55c10.37,10.92,26.78,26.71,36.8,35.54V1.53a.55.55,0,0,1,.63-.62h5.56c.21,0,.35.07.35.28v.9a.33.33,0,0,1-.35.35h-3.55V47.16a.43.43,0,0,1-.48.48h-.56a1.33,1.33,0,0,1-.91-.48,463.33,463.33,0,0,1-38-35.75Z" fill="#0085a1"></path> <path d="M238.25,8.56c0,4.24,4.17,6.89,11.54,10.36s13.08,7.79,13.08,15.65S256.54,48,246.73,48a23.51,23.51,0,0,1-14.33-4.94c-.76-.63-1.11-1-1.11-1.4a1.67,1.67,0,0,1,.42-.9c.28-.35.42-.48.76-.48s.7.34,1.05.55c2.29,1.53,6.95,4.52,13.15,4.52,6,0,10.43-2.78,10.43-7.65,0-5.28-5.29-8.7-12.73-12.31-8.28-4-11.48-7.79-11.48-14.19,0-7,6-11.2,14.33-11.2a19.85,19.85,0,0,1,9.39,2.44c2.16,1.18,3.83,2.64,3.83,4.66A2.84,2.84,0,0,1,257.52,10a2.78,2.78,0,0,1-2.86-2.85,3,3,0,0,1,2-2.72A17.77,17.77,0,0,0,247.85,2c-5.29,0-9.6,2.09-9.6,6.54" fill="#0085a1"></path> <path d="M300.73,2.44h-3.48a.33.33,0,0,1-.35-.35v-.9c0-.21.14-.28.35-.28h10.37a.48.48,0,0,1,.48.49v44h3.55a.33.33,0,0,1,.35.35v.91c0,.21-.14.27-.35.27H301.22a.48.48,0,0,1-.49-.48Z" fill="#0085a1"></path> </svg> 