<svg width="18" height="16" viewBox="0 0 18 16" fill="none" xmlns="http://www.w3.org/2000/svg">
<g clip-path="url(#clip0_99_10119)">
<g clip-path="url(#clip1_99_10119)">
<path fill-rule="evenodd" clip-rule="evenodd" d="M13.4989 1.38197C13.3574 1.4466 13.1205 1.68501 13.042 1.8418C12.9944 1.93677 12.9751 2.03586 12.9742 2.18847C12.9729 2.44447 13.005 2.50979 13.3585 2.96847C14.2294 4.09863 14.7856 5.43114 15.0117 6.92922C15.0882 7.4355 15.0889 8.6849 15.0131 9.21466C14.807 10.6559 14.3195 11.8747 13.4813 13.045C13.1625 13.49 13.1136 13.5952 13.1146 13.8336C13.1154 14.0528 13.196 14.2414 13.3642 14.4182C13.5351 14.5978 13.7115 14.6797 13.9273 14.6797C14.2493 14.6797 14.3922 14.5648 14.8263 13.9573C15.4582 13.0729 15.9629 12.0146 16.2845 10.8992C17.205 7.70751 16.4897 4.22109 14.3883 1.65733C14.2055 1.43424 14.0099 1.33311 13.7651 1.33499C13.6737 1.33571 13.5538 1.35682 13.4989 1.38197ZM7.62494 2.25534C7.55721 2.29459 6.60435 3.10855 5.50749 4.06421L3.51321 5.80175L2.34297 5.81148L1.17277 5.82121L1.01968 5.92069C0.92488 5.9823 0.830518 6.08149 0.771886 6.1811L0.67721 6.34196L0.6682 8.03768C0.660222 9.54285 0.664977 9.74924 0.710375 9.8744C0.782867 10.0742 0.900351 10.2075 1.08266 10.2967C1.23894 10.3731 1.25061 10.3738 2.37057 10.3741L3.50073 10.3745L5.48365 12.1026C6.57423 13.053 7.52989 13.8703 7.60733 13.9188C7.97139 14.1468 8.47912 13.9388 8.6282 13.5006C8.68793 13.3251 8.68715 2.85196 8.62742 2.67621C8.57589 2.52465 8.46792 2.38447 8.32694 2.28611C8.16446 2.17272 7.79552 2.15658 7.62494 2.25534ZM11.1663 3.96759C10.8754 4.01372 10.5869 4.29082 10.499 4.60863C10.4225 4.88505 10.4665 5.04525 10.7263 5.4368C10.841 5.60969 10.9899 5.8557 11.0572 5.98345C11.7898 7.37468 11.716 9.21281 10.8749 10.5266C10.6467 10.8829 10.6109 10.9738 10.6109 11.1964C10.6109 11.4346 10.6809 11.5987 10.8653 11.7924C11.1154 12.0553 11.4636 12.1279 11.7402 11.9748C12.0611 11.7971 12.5876 10.8777 12.8606 10.0182C13.0419 9.44731 13.1172 8.977 13.1362 8.29677C13.1597 7.45253 13.0887 6.89881 12.8631 6.1664C12.616 5.36434 11.9549 4.21524 11.6431 4.04577C11.506 3.97127 11.3276 3.94205 11.1663 3.96759Z" fill="white"/>
</g>
</g>
<defs>
<clipPath id="clip0_99_10119">
<rect width="16.6667" height="16" fill="white" transform="translate(0.665039 0.000488281)"/>
</clipPath>
<clipPath id="clip1_99_10119">
<rect width="16.0137" height="16.0137" fill="white" transform="translate(0.665039 0.000488281)"/>
</clipPath>
</defs>
</svg>
