<svg width="8" height="8" viewBox="0 0 8 8" fill="none" xmlns="http://www.w3.org/2000/svg">
<path d="M7.42205 0.577194C7.67602 0.83116 7.67602 1.24292 7.42205 1.49689L4.91946 3.99962L7.42205 6.50236C7.65485 6.73516 7.67425 7.10055 7.48025 7.35545L7.42205 7.42205C7.16808 7.67602 6.75632 7.67602 6.50236 7.42205L3.99962 4.91946L1.49689 7.42205C1.24292 7.67602 0.83116 7.67602 0.577194 7.42205C0.323227 7.16808 0.323227 6.75632 0.577194 6.50236L3.07977 3.99962L0.577194 1.49689C0.344391 1.26408 0.324991 0.898691 0.518993 0.64379L0.577194 0.577194C0.83116 0.323227 1.24292 0.323227 1.49689 0.577194L3.99962 3.07977L6.50236 0.577194C6.75632 0.323227 7.16808 0.323227 7.42205 0.577194Z" fill="white"/>
</svg>
