<svg width="80" height="35" viewBox="0 0 80 35" fill="none" xmlns="http://www.w3.org/2000/svg">
<g clip-path="url(#clip0_67_601)">
<path d="M80.0002 8.98668C80.0019 9.21148 79.9588 9.43434 79.8735 9.64211C79.7931 9.84117 79.6749 10.0226 79.5255 10.1762C79.3756 10.3284 79.1986 10.4509 79.0036 10.5373C78.7985 10.6275 78.5768 10.6733 78.3529 10.6718C78.1348 10.6738 77.9186 10.6311 77.7173 10.5464C77.5161 10.4618 77.3341 10.3368 77.1824 10.1792C77.0328 10.0238 76.9134 9.84164 76.8304 9.64211C76.7009 9.33403 76.6656 8.99417 76.7288 8.6658C76.792 8.33744 76.951 8.03542 77.1854 7.7982C77.3368 7.64622 77.5156 7.5247 77.7123 7.44014C77.9172 7.35168 78.1381 7.30724 78.361 7.30966C78.5821 7.30848 78.801 7.35396 79.0036 7.44318C79.1988 7.52948 79.376 7.65236 79.5255 7.80528C79.8306 8.1219 80.0009 8.54574 80.0002 8.98668ZM79.6985 8.98668C79.7002 8.79915 79.6661 8.61303 79.5979 8.43846C79.5316 8.27093 79.4359 8.11676 79.3153 7.9833C79.1957 7.8509 79.0507 7.74424 78.8889 7.66975C78.7199 7.59302 78.5364 7.55403 78.3509 7.55545C78.1703 7.55528 77.9917 7.59499 77.828 7.67177C77.6669 7.7478 77.5218 7.85425 77.4006 7.98532C77.2784 8.11791 77.1819 8.27227 77.116 8.44049C76.9765 8.79075 76.9765 9.18159 77.116 9.53186C77.1812 9.70094 77.2766 9.85658 77.3976 9.99107C77.5176 10.1218 77.6622 10.2273 77.823 10.3016C77.9908 10.3826 78.1748 10.4238 78.361 10.422C78.5467 10.4242 78.7306 10.3844 78.899 10.3056C79.0605 10.233 79.2059 10.1284 79.3264 9.99815C79.4456 9.86347 79.539 9.70778 79.6019 9.53894C79.6702 9.36298 79.7043 9.17553 79.7025 8.98668H79.6985ZM78.7874 9.96274C78.7431 9.90408 78.6989 9.74123 78.6546 9.47926C78.6134 9.25977 78.4786 9.15054 78.2453 9.15054H78.0382V9.95971H77.7556V8.09153C77.9275 8.06592 78.1008 8.05139 78.2745 8.04804C78.4653 8.03615 78.6556 8.07856 78.8236 8.17042C78.8887 8.21446 78.9409 8.27518 78.9748 8.34631C79.0088 8.41743 79.0232 8.49639 79.0167 8.57501C79.0167 8.8036 78.896 8.95633 78.6536 9.03017V9.04534C78.6941 9.05277 78.7323 9.06964 78.7651 9.09458C78.7979 9.11952 78.8245 9.15185 78.8427 9.18897C78.8893 9.27358 78.9254 9.36359 78.9503 9.45701C78.9774 9.55816 79.0006 9.65323 79.0167 9.7473C79.0288 9.82182 79.0501 9.89453 79.08 9.96376L78.7874 9.96274ZM78.713 8.60637C78.713 8.37879 78.5581 8.26348 78.2453 8.26348C78.2061 8.26348 78.1689 8.26348 78.1347 8.26348C78.1005 8.26348 78.0653 8.27056 78.0342 8.27562V8.93307H78.2554C78.5631 8.93442 78.717 8.82552 78.717 8.60637H78.713Z" fill="#221F20"/>
<g style="mix-blend-mode:color-dodge">
<path d="M18.3672 11.9429V14.0558H20.0637V8.73145C19.0671 9.398 18.3672 10.4024 18.3672 11.9429Z" fill="#00AFD1"/>
</g>
<path d="M17.0728 21.285C17.0728 19.0345 18.345 17.582 20.0606 16.6434V14.056H18.3631V11.9431C18.3631 10.4067 19.067 9.39823 20.0606 8.73167V3.19591C20.0606 1.30548 19.25 0.490234 17.3695 0.490234H11.4694V5.86416H12.8722C13.3881 5.86416 13.6838 6.16153 13.6838 6.6794V7.9407C13.6838 8.42216 13.72 8.79337 13.72 8.79337H13.6466C13.6466 8.79337 12.5032 7.45823 8.66865 7.45823C3.61328 7.45823 0 11.3888 0 17.4293C0 23.3595 3.39304 27.4428 8.55602 27.4428C12.465 27.4428 14.0509 24.8464 14.0509 24.8464H14.1243V25.1822C14.1243 26.0713 14.788 26.9968 16.5951 26.9968H20.9888C18.6949 26.14 17.0728 24.105 17.0728 21.285ZM10.1409 22.1356C7.9285 22.1356 6.42003 20.2816 6.42003 17.4273C6.42003 14.4991 8.15376 12.8686 10.1409 12.8686C12.649 12.8686 13.8618 15.1302 13.8618 17.4273C13.8658 20.7277 12.0587 22.1356 10.1409 22.1356Z" fill="#E40088"/>
<path d="M35.5475 21.6168C35.0326 21.6168 34.7369 21.3214 34.7369 20.8025V15.2395C34.7369 10.8639 32.5607 7.45117 25.9235 7.45117C24.5306 7.45117 21.8295 7.54322 20.0605 8.72461V14.049H24.2641V13.1953C24.2641 12.4559 25.1119 12.2708 25.9235 12.2708C27.5094 12.2708 28.3571 12.9374 28.3571 14.754V14.9745H28.0987C26.3177 14.9745 22.6682 15.2081 20.0605 16.6363V20.7955C20.0605 21.3143 20.3562 21.6097 20.8721 21.6097H22.274V26.9907H20.9888C21.8016 27.2892 22.6607 27.4403 23.526 27.4368C27.5094 27.4368 28.8358 24.6572 28.8358 24.6572H28.9102V24.989C28.9102 25.8417 29.5739 26.9907 31.4173 26.9907H36.9483V21.6168H35.5475ZM28.4305 19.171C28.4305 20.7277 26.9552 22.5453 25.2959 22.5453C24.0419 22.5453 23.4858 21.8373 23.4858 20.9512C23.4858 19.434 25.8088 18.8737 27.8372 18.8737H28.4275L28.4305 19.171Z" fill="#009ACD"/>
<g style="mix-blend-mode:color-dodge">
<path d="M22.2739 21.616H20.8721C20.3562 21.616 20.0605 21.3206 20.0605 20.8017V16.6426C18.3449 17.5812 17.0728 19.0337 17.0728 21.2842C17.0728 24.1042 18.6949 26.1392 20.9887 26.9909H22.2739V21.616Z" fill="#00AFD1"/>
</g>
<path d="M20.0637 8.73145C19.0671 9.398 18.3672 10.4064 18.3672 11.9429V14.0558H20.0637V8.73145Z" fill="#F54EB4"/>
<path d="M20.8721 21.616C20.3562 21.616 20.0605 21.3206 20.0605 20.8017V16.6426C18.3449 17.5812 17.0728 19.0337 17.0728 21.2842C17.0728 24.1042 18.6949 26.1392 20.9887 26.9909H22.2739V21.616H20.8721Z" fill="#F54EB4"/>
<path d="M39.6583 16.9116C39.6739 15.4051 39.9516 13.9129 40.4789 12.5026V10.6051C40.4789 8.71469 39.6674 7.89844 37.7868 7.89844H31.8867V13.2744H33.2866C33.8035 13.2744 34.0991 13.5707 34.0991 14.0896V24.2872C34.0991 26.1767 34.9107 26.9919 36.7902 26.9919H42.6904V24.6433C40.7203 22.8135 39.6583 19.7903 39.6583 16.9116Z" fill="#4C4D4F"/>
<path d="M39.9261 0.490234H34.5791V5.67906H39.9261V0.490234Z" fill="#4C4D4F"/>
<g style="mix-blend-mode:hard-light">
<path d="M60.7944 13.2781H62.1218V8.64355C58.8555 10.2619 56.6602 13.4268 56.6602 17.503C56.6602 20.5839 57.9343 23.1247 59.9838 24.8685V13.9821C59.9838 13.538 60.3157 13.2781 60.7944 13.2781Z" fill="#FFF152"/>
</g>
<path d="M67.3542 7.4583C65.5438 7.44552 63.7547 7.85109 62.1248 8.64374V13.2783H60.7974C60.3187 13.2783 59.9868 13.5372 59.9868 13.9863V24.8667C61.9066 26.5002 64.5042 27.4358 67.3944 27.4358C73.3679 27.4358 78.1246 23.4698 78.1246 17.5012C78.1216 11.4971 73.3649 7.4583 67.3542 7.4583ZM67.3914 22.0993C65.0673 22.0993 63.0762 20.3586 63.0762 17.5032C63.0762 14.6124 65.0673 12.7958 67.3914 12.7958C69.7154 12.7958 71.7056 14.6165 71.7056 17.5032C71.7026 20.3586 69.7144 22.0993 67.3914 22.0993Z" fill="#22B14C"/>
<path d="M60.7944 13.2781H62.1218V8.64355C58.8555 10.2619 56.6602 13.4268 56.6602 17.503C56.6602 20.5839 57.9343 23.1247 59.9838 24.8685V13.9821C59.9838 13.538 60.3157 13.2781 60.7944 13.2781Z" fill="#80DA29"/>
<path d="M62.1216 8.64359V7.90218H56.3694C54.9313 7.90218 54.341 8.90353 54.341 9.41938V9.67933H54.2665C54.2665 9.67933 52.6444 7.4541 48.7727 7.4541C48.6309 7.4541 48.4982 7.46826 48.3594 7.47534C48.0899 7.48647 47.8244 7.50063 47.569 7.53198C47.5468 7.53198 47.5247 7.53805 47.5026 7.5421C42.6282 8.17224 40.271 12.3577 40.271 16.8345C40.271 21.0128 42.3487 25.0425 46.506 26.14C46.5673 26.1541 46.6247 26.1743 46.687 26.1895C46.8831 26.2371 47.0893 26.2684 47.2904 26.3018C47.4171 26.321 47.5398 26.3473 47.6685 26.3645C47.8224 26.3807 47.9843 26.3878 48.1442 26.3989C48.3604 26.412 48.5736 26.4323 48.8009 26.4323C51.0133 26.4323 52.4514 25.8385 53.5576 24.6167H53.631C53.631 24.6167 53.5948 25.0971 53.5948 25.3247V25.6221C53.5948 28.437 51.492 29.2907 49.2061 29.2907C47.3687 29.2765 45.5566 28.8588 43.8963 28.0668L42.052 33.0715C43.8963 34.0345 46.6981 34.7759 49.2434 34.7759C54.4435 34.7759 59.9746 32.2189 59.9746 25.2499V24.8665C57.9251 23.1227 56.6509 20.5819 56.6509 17.501C56.66 13.4268 58.8553 10.2599 62.1216 8.64359ZM50.3214 21.0978C47.7771 21.0978 46.6709 18.9869 46.6709 16.614C46.6709 14.4261 47.8133 12.7957 50.063 12.7957C51.9817 12.7957 53.7507 13.5371 53.7507 16.9103C53.7507 20.2471 51.9817 21.0978 50.3214 21.0978Z" fill="#FFB423"/>
</g>
<defs>
<clipPath id="clip0_67_601">
<rect width="80" height="34.2857" fill="white" transform="translate(0 0.490234)"/>
</clipPath>
</defs>
</svg>
