<svg width="38" height="36" viewBox="0 0 38 36" fill="none" xmlns="http://www.w3.org/2000/svg">
<path d="M18.6632 6.15137V28.5605C19.5719 28.0868 21.0441 27.4639 20.9531 26.2649C20.8453 24.8438 16.1552 24.4066 16.1552 22.5483C16.1552 20.9086 21.8267 19.9248 21.2802 17.8478C20.6082 15.294 15.3931 14.7871 15.3931 12.8194C15.3931 11.8356 16.0473 10.8518 17.574 10.6332C18.5647 10.4913 19.3187 10.5239 20.9543 10.5239" stroke="white" stroke-width="1.5"/>
<path d="M13.8485 1V8.85606L7.02273 4.86364L2 13.75L9.08333 17.8712L2 21.9924L7.02273 30.75L13.8485 26.7576V35H24.1515V26.7576L31.1061 30.75L36.2576 21.9924L29.303 17.8712L36.2576 13.75L31.1061 4.86364L24.1515 8.85606V1H13.8485Z" stroke="white" stroke-width="1.5"/>
</svg>
