<svg xmlns="http://www.w3.org/2000/svg" width="15" height="15" viewBox="0 0 18 15" fill="none">
    <path
        d="M16.2793 0.5C16.7723 0.5 17.1443 0.932502 16.9453 1.73696L14.532 13.1118C14.3633 13.9205 13.8746 14.1152 13.1999 13.7389L7.44327 9.4874C7.42094 9.47138 7.40275 9.45027 7.39021 9.42583C7.37766 9.40139 7.37112 9.37431 7.37112 9.34683C7.37112 9.31936 7.37766 9.29228 7.39021 9.26783C7.40275 9.24339 7.42094 9.22229 7.44327 9.20627L14.0908 3.20314C14.3936 2.93499 14.0259 2.80524 13.628 3.04744L5.28508 8.31099C5.25978 8.32749 5.23105 8.33801 5.20107 8.34176C5.1711 8.34551 5.14066 8.34238 5.11208 8.33261L1.56989 7.21243C0.782732 6.98321 0.782732 6.44258 1.74721 6.05765L15.9203 0.590825C16.0329 0.537334 16.1548 0.506475 16.2793 0.5Z"
        stroke="#1B1B1B"
        stroke-linecap="round"
        stroke-linejoin="round"
    />
</svg>
