<svg width="26" height="27" viewBox="0 0 26 27" fill="none" xmlns="http://www.w3.org/2000/svg">
    <path
        fill-rule="evenodd"
        clip-rule="evenodd"
        d="M12.999 26.667C20.1787 26.667 25.999 20.8467 25.999 13.667C25.999 6.48729 20.1787 0.666992 12.999 0.666992C5.81932 0.666992 -0.000976562 6.48729 -0.000976562 13.667C-0.000976562 20.8467 5.81932 26.667 12.999 26.667ZM16.9859 9.51253C16.842 9.49302 16.6954 9.51246 16.5615 9.56882L7.29639 13.4699C6.65054 13.7419 6.61749 14.676 7.29694 14.9578C7.79975 15.1664 8.4158 15.3376 9.08007 15.4481C9.44417 15.5088 9.74868 15.4481 10.3328 15.0927C10.9949 14.6896 12.9969 13.2575 14.2447 12.3158C14.747 11.9366 14.9409 12.1744 14.5156 12.5868C14.3682 12.7296 14.2057 12.8856 14.0346 13.0499C12.9488 14.0927 11.5194 15.4654 11.4164 15.8713C11.2777 16.4207 12.4063 17.1928 12.7747 17.4339C13.5116 17.9156 14.3309 18.3772 14.8824 18.6768C15.5418 19.035 16.3307 18.6226 16.4499 17.9037L17.6788 10.4498C17.7024 10.3065 17.6871 10.1594 17.6345 10.024C17.582 9.88855 17.4941 9.76967 17.3801 9.67972C17.266 9.58977 17.1299 9.53203 16.9859 9.51253Z"
        fill="#1B1B1B"
    />
</svg>
