<svg width="27" height="27" viewBox="0 0 27 27" fill="none" xmlns="http://www.w3.org/2000/svg">
<path fill-rule="evenodd" clip-rule="evenodd" d="M13.666 26.667C20.8457 26.667 26.666 20.8467 26.666 13.667C26.666 6.48729 20.8457 0.666992 13.666 0.666992C6.48631 0.666992 0.666016 6.48729 0.666016 13.667C0.666016 20.8467 6.48631 26.667 13.666 26.667ZM19.4367 9.87707C19.8674 9.87707 19.9573 10.0948 19.8674 10.3906H19.8668C19.6864 11.2047 17.9531 13.6021 17.9531 13.6021C17.8025 13.8388 17.7424 13.9574 17.9531 14.2234C18.0276 14.3257 18.1862 14.4782 18.3675 14.6526C18.5541 14.8321 18.7649 15.0348 18.933 15.2298C19.5434 15.9053 20.0039 16.4746 20.1328 16.8667C20.2498 17.2611 20.0461 17.4604 19.6399 17.4604H18.218C17.8367 17.4604 17.6449 17.2508 17.2303 16.7977C17.0548 16.6058 16.8392 16.3702 16.5524 16.0884C15.7084 15.2894 15.3471 15.1854 15.1359 15.1854C14.8494 15.1854 14.7638 15.265 14.7638 15.6642V16.9171C14.7638 17.2611 14.6522 17.4604 13.7481 17.4604C12.2407 17.4604 10.5859 16.5618 9.41048 14.9043C7.64735 12.4771 7.16527 10.6419 7.16527 10.2725C7.16527 10.065 7.24652 9.87707 7.65277 9.87707H9.07573C9.43919 9.87707 9.57569 10.0331 9.71056 10.4204C10.4066 12.4104 11.5793 14.1497 12.0614 14.1497C12.2423 14.1497 12.3252 14.0679 12.3252 13.6167V11.5595C12.2927 10.974 12.0844 10.7207 11.9301 10.5332C11.8349 10.4174 11.7602 10.3267 11.7602 10.1983C11.7602 10.0417 11.8962 9.87707 12.1221 9.87707H14.3581C14.6592 9.87707 14.7589 10.0352 14.7589 10.3906V13.1579C14.7589 13.4542 14.8949 13.5577 14.9853 13.5577C15.1662 13.5577 15.3168 13.4542 15.6483 13.1282C16.6726 12.0037 17.3957 10.2725 17.3957 10.2725C17.4862 10.065 17.653 9.87707 18.0149 9.87707H19.4367Z" fill="#1B1B1B"/>
</svg>
