<svg width="27" height="27" viewBox="0 0 27 27" fill="none" xmlns="http://www.w3.org/2000/svg">
<path fill-rule="evenodd" clip-rule="evenodd" d="M13.333 26.667C20.5127 26.667 26.333 20.8467 26.333 13.667C26.333 6.48729 20.5127 0.666992 13.333 0.666992C6.15331 0.666992 0.333008 6.48729 0.333008 13.667C0.333008 20.8467 6.15331 26.667 13.333 26.667ZM19.1547 10.0062C19.3526 10.1938 19.496 10.4316 19.5696 10.6941C19.7637 11.6781 19.8545 12.6791 19.8404 13.682C19.8469 14.6806 19.756 15.6775 19.5691 16.6584C19.4958 16.921 19.3525 17.1588 19.1547 17.3464C18.9512 17.5397 18.7017 17.6781 18.4299 17.7483C16.7392 17.9372 15.0384 18.0222 13.3372 18.0029C13.3372 18.0029 9.28173 18.0029 8.25094 17.7353C7.97577 17.6621 7.72552 17.524 7.52456 17.3328C7.3236 17.1416 7.17898 16.9049 7.10477 16.6454C6.92223 15.6629 6.83394 14.6667 6.84044 13.6695C6.8341 12.6714 6.9226 11.675 7.10477 10.6936C7.1806 10.4331 7.32577 10.1953 7.52619 10.0024C7.73016 9.8076 7.97912 9.66618 8.25094 9.59077C9.93954 9.40188 11.6382 9.31686 13.3372 9.33619C13.3372 9.33619 17.4127 9.33619 18.4299 9.60431C18.7017 9.67453 18.9512 9.81286 19.1547 10.0062ZM12.0415 11.8154V15.5242L15.4324 13.6701L12.0415 11.8154Z" fill="#1B1B1B"/>
</svg>
