<svg xmlns="http://www.w3.org/2000/svg" width="160" height="217" viewBox="0 0 160 217" fill="#000">
    <g fill-rule="evenodd"><path d="M110.94 134.713v-5.847a.735.735 0 111.467 0v5.847a.734.734 0 11-1.467 0m0-21.757V71.463a.734.734 0 011.467 0v41.493a.733.733 0 11-1.467 0m-45.604 36.528a.735.735 0 01.553-1.361c.005-.003 1.28.522 3.678 1.059 2.401.539 5.887 1.077 10.21 1.077 4.321 0 7.726-.538 10.046-1.075 2.318-.537 3.51-1.053 3.513-1.054a.734.734 0 11.581 1.349c-.069.029-5.254 2.249-14.14 2.249-8.89 0-14.378-2.218-14.44-2.244m10.288-13.72a.734.734 0 010-1.468h8.512a.733.733 0 110 1.468h-8.512zm.272 3.092a.733.733 0 010-1.47h7.694a.735.735 0 010 1.47h-7.694zm10.86-74.639a.735.735 0 110-1.468h20.367a.733.733 0 010 1.468H86.757z"></path><path d="M71.982 63.75a.736.736 0 01.243-.939c0-.005.183-.122.522-.436.34-.314.81-.802 1.3-1.48.982-1.353 2.06-3.455 2.4-6.477h.001a.735.735 0 011.46.165c-.586 5.183-3.185 8.01-4.323 9.016.3.504.827 1.315 1.546 2.126 1.173 1.33 2.797 2.557 4.576 2.544 1.775.013 3.374-1.209 4.53-2.54a14.092 14.092 0 001.541-2.165c-.994-1.017-3.347-3.9-4.202-9.069a.734.734 0 111.448-.24c.76 4.574 2.752 7.154 3.668 8.138.304.327.465.455.465.455a.74.74 0 01.196.895c-.07.02-2.727 5.874-7.646 5.994-4.918-.12-7.655-5.967-7.725-5.988m2.544 81.733a.734.734 0 01.338-1.431c.005-.01 1.972.472 5.24.472 1.65 0 2.858-.086 3.648-.168.788-.083 1.13-.16 1.131-.16a.734.734 0 01.311 1.436c-.05.01-1.69.36-5.09.36-3.412 0-5.534-.5-5.578-.51"></path><path d="M73.934 54.791a.735.735 0 110-1.47h11.402a.734.734 0 010 1.47H73.934zm14.582-16.592c-1.524-.527-4.383-1.198-9.133-1.198-4.503 0-7.178.607-8.64 1.112a.733.733 0 11-.48-1.387c1.644-.569 4.485-1.194 9.12-1.194 4.887 0 7.916.693 9.614 1.28a.735.735 0 11-.481 1.387M72.594 42.82a.737.737 0 01.578-.865c.047-.008 2.199-.428 6.554-.428 4.356 0 6.222.42 6.285.435a.735.735 0 01-.328 1.431c-.002.003-.393-.093-1.357-.193-.963-.1-2.47-.204-4.6-.204-2.131 0-3.71.103-4.75.204-1.041.102-1.52.196-1.52.198a.736.736 0 01-.863-.579m1.706 6.188a.734.734 0 010-1.469h10.569c.407 0 .734.328.734.735a.733.733 0 01-.734.734h-10.57zm-17.504 102.54a.732.732 0 01-.196-1.02.732.732 0 011.019-.196c4.074 2.777 13.473 5.43 21.904 5.415 8.284.015 17.924-2.52 22.175-5.278a.732.732 0 011.014.222.733.733 0 01-.22 1.013c-4.69 3-14.38 5.497-22.968 5.51-8.746-.013-18.208-2.633-22.727-5.666M.07 212.658h55.538v-1.024H.07m100.848 1.024h58.81v-1.024h-58.81m-89.257-40.89c3.683 0 10.32.853 10.32 7.493 0 1.536-.345 3.546-2.055 5.095-1.203 1.062-3.259 1.84-4.886 2.141v.078c3.942.772 5.056 3.68 5.742 6.724.982 4.151 1.966 5.56 6.162 5.56h.471v1.632c-1.202.21-2.524.34-3.637.34-1.072 0-2.697-.047-4.027-1.07-1.624-1.292-2.266-3.766-2.696-5.4-1.412-5.255-2.994-6.715-7.19-6.715-.725 0-1.624.04-2.098.083v10.185l.727.605 2.442.216v1.756H.746v-1.756l2.443-.216.725-.605v-23.579l-.725-.599-2.444-.218v-1.75h10.916zm-3.894 13.908c.515.046 1.5.084 2.57.084 1.586 0 4.154-.127 5.774-1.668 1.374-1.285 1.585-2.995 1.585-4.367 0-1.668-.295-3.418-1.925-4.622-1.587-1.2-4.11-1.367-5.947-1.367H7.767v11.94zm47.3.428c0 4.578-1.585 8.349-3.856 10.832-1.875 2.056-5.096 4.239-9.932 4.239-4.404 0-7.655-1.8-9.841-4.072-1.672-1.75-4.023-5.258-4.023-10.998 0-5.906 2.479-9.633 4.792-11.684 1.712-1.503 4.668-3.34 9.158-3.34 8.562 0 13.702 6.64 13.702 15.024m-23.16-.041c0 1.666.173 5.9 2.396 9.114 2.099 3.04 4.924 3.722 6.976 3.722 1.545 0 4.542-.43 6.767-3.465 2.352-3.167 2.523-7.534 2.523-9.24 0-4.408-1.198-8.1-3.209-10.231-2.225-2.398-5.005-2.62-6.203-2.62-6.556 0-9.25 5.958-9.25 12.72m36.151-14.296c5.353 0 8.687 1.454 10.652 2.912 2.49 1.791 5.19 5.306 5.19 11.424 0 5.524-2.276 10.058-6.597 12.544-2.568 1.456-5.31 1.843-9.245 1.843H57.483v-1.756l2.44-.216.727-.605v-23.579l-.728-.599-2.439-.218v-1.75h10.575zm-3.553 26.751h3.38c4.194 0 6.85-1.24 8.476-2.828 1.797-1.756 3.126-4.879 3.126-9.674 0-9.802-5.35-12.28-11.602-12.28h-3.38v24.782zm22.725.217l2.741-.216.731-.605v-23.58l-.73-.6-2.743-.216v-1.75h10.792v1.75l-2.744.217-.725.6v23.579l.725.605 2.744.216v1.755H87.23zm14.36 0l2.61-.345.77-.813v-23.242l-.77-.6-2.743-.217v-1.75h8.053v1.069l14.64 21.907v-20.105l-.772-.772-2.567-.35v-1.75h8.985v1.75l-2.57.35-.767.772v25.85h-2.825l-16.355-24.31v21.398l.776.813 2.562.345v1.755h-9.026zm44.296-27.309l10.273 26.792 2.573.517v1.755h-9.718v-1.755l2.655-.216.298-.605-3.085-8.17h-10.096l-3.043 8.17.43.605 2.78.216v1.755h-8.387v-1.755l2.484-.517 10.013-26.792h2.823zm-6.373 16.347h8.643l-4.407-11.857-4.236 11.857zM35.62 24.85c.009.877-.342 1.595-.94 2.176-.598.573-1.322.853-2.096.842-1.108-.018-1.711-.661-2.775-1.762-1.063-1.101-1.684-1.724-1.667-2.834.01-.776.298-1.474.908-2.068 1.218-1.166 2.69-1.054 3.802-.23l-.878.85c-.747-.494-1.522-.46-2.167.167a1.595 1.595 0 00-.502 1.168c.014.575.263.963 1.37 2.106 1.115 1.148 1.497 1.418 2.07 1.45.412.027.84-.144 1.18-.468.376-.37.567-.828.543-1.304-.022-.446-.225-.81-.58-1.177l-.31-.321-1.225 1.174-.716-.736 2.088-2.023.85.879c.716.74 1.035 1.344 1.046 2.11m5.942-3.723l-3.377-1.636-1.197.917 2.046 2.658-.956.735-4.848-6.302 2.444-1.881c1.192-.924 2.547-.736 3.375.333.694.9.585 1.905.028 2.647l3.592 1.669-1.107.86zm-5.299-4.6l-1.417 1.09 1.514 1.978 1.416-1.092c.642-.487.798-1.187.315-1.805-.473-.621-1.197-.658-1.828-.17zm11.597.545l-1.297-1.082-2.69 1.627.36 1.652-1.095.665-1.633-8.314.837-.507 6.614 5.296-1.096.663zm-4.977-4.188l.769 3.668 2.09-1.264-2.86-2.404zm11.543.987l-5.668-3.573 2.321 5.093-1.099.505-3.298-7.24 1.006-.464 5.661 3.562-2.313-5.08 1.097-.504 3.3 7.238zm7.353-3.372c-.328.633-.95 1.089-1.731 1.338l-2.67.845-2.4-7.581 2.663-.851c.789-.25 1.552-.238 2.186.094 1.079.559 1.38 1.685 1.725 2.78.347 1.092.785 2.292.228 3.375M59.3 5.42c-.424-.25-.906-.277-1.448-.1l-1.4.448 1.755 5.51 1.389-.437c.548-.18.918-.471 1.129-.921.254-.565.007-1.386-.322-2.432-.331-1.045-.57-1.75-1.103-2.068m12.225 3.897l-.519-3.437-3.194.477.513 3.436-1.194.174-1.168-7.864 1.192-.173.5 3.36 3.192-.481-.5-3.358 1.192-.176 1.177 7.865zm7.919-1.29c-.526.567-1.22.894-2.069.92-.848.029-1.55-.248-2.115-.781-.812-.755-.826-1.635-.881-3.168-.047-1.533-.094-2.412.666-3.212.53-.57 1.212-.896 2.06-.922a2.88 2.88 0 012.129.774c.805.757.813 1.638.864 3.17.052 1.532.106 2.41-.654 3.219M78.34 2.395c-.289-.292-.734-.465-1.203-.454-.464.02-.893.222-1.166.537-.373.433-.439.882-.382 2.484.049 1.6.145 2.04.55 2.449.289.292.73.47 1.201.453a1.662 1.662 0 001.166-.528c.379-.436.438-.891.388-2.486-.054-1.595-.151-2.045-.554-2.455m6.569-.235l-.443 6.863-1.206-.084.443-6.856-2.185-.143.073-1.082 5.573.363-.07 1.084zm3.126 7.184l1.307-7.848 5.016.835-.18 1.067-3.824-.64-.383 2.294 3.264.54-.174 1.065-3.265-.544-.394 2.358 3.829.636-.181 1.072zm6.631 1.218l2.095-7.675 1.164.315-1.811 6.633 3.695 1.008-.286 1.047zM108.038 15.343l-.277-.974c-.436.131-1.254.366-2.358-.13-1.506-.678-1.962-1.893-1.373-3.209.453-1.008 1.432-1.253 2.357-1.405-.16-.53-.357-1.229-.057-1.903.419-.924 1.418-1.298 2.499-.81 1.03.464 1.409 1.46.993 2.388-.256.575-.753.828-1.348.942 0 0-.47.08-.695.128l.712 2.513c.433-.261.735-.625 1.04-1.286l.997.446c-.445.912-.976 1.558-1.722 1.908l.564 1.994-1.332-.602zm-1.37-4.812c-.695.131-1.303.266-1.601.94-.323.725.008 1.481.763 1.819.49.224.967.276 1.637.062l-.798-2.821zm1.754-2.713c-.448-.203-.856-.018-1.035.397-.134.292-.062.654.116 1.244.142-.016.446-.078.446-.078.372-.064.718-.178.873-.518a.77.77 0 00-.4-1.045zm6.361 11.467c-1.004-.66-1.571-1.363-1.787-2.421l1.109-.23c.17.809.603 1.31 1.287 1.749.87.568 1.622.529 2.046-.121.188-.288.26-.583.188-.864-.062-.268-.191-.441-.545-.754l-.715-.627c-.498-.424-.804-.898-.916-1.358-.126-.524-.015-1.05.34-1.592.76-1.157 2.12-1.407 3.504-.502.882.572 1.35 1.205 1.574 2.11l-1.061.214c-.151-.66-.547-1.096-1.108-1.458-.79-.517-1.514-.35-1.902.243-.157.242-.22.505-.148.779.073.259.269.553.546.804l.685.6c.552.499.81.869.924 1.31.157.555.023 1.148-.353 1.719-.794 1.23-2.273 1.308-3.668.399m8.045 1.946l-1.4-1.143-1.975 2.425-.938-.76 5.022-6.169 2.344 1.905c1.202.98 1.328 2.407.449 3.482-.877 1.074-2.293 1.245-3.502.26m2.317-2.94l-1.357-1.104-1.672 2.051 1.35 1.101c.653.532 1.396.515 1.929-.133.529-.646.394-1.39-.25-1.915M126.73 29.141l.74-1.523-2.227-2.222-1.514.75-.912-.91 7.685-3.577.69.684-3.553 7.701-.91-.903zm2.865-5.842l-3.374 1.622 1.738 1.733 1.636-3.355zM61.79 214.045h.57l.154 1.162.128.177c.209.1.529.235 1.12.235.883 0 1.555-.323 1.555-1.256 0-.507-.235-.716-.488-.893-1.066-.698-2.93-.962-2.93-2.373 0-1.669 1.455-2.008 2.372-2.008.407 0 1.027.067 1.704.288v1.575h-.57l-.107-.964-.158-.175a1.912 1.912 0 00-.911-.21c-.72 0-1.378.428-1.378 1.218 0 .383.148.68.533.918.958.597 2.873.92 2.873 2.347 0 1.692-1.561 2.07-2.697 2.07-.893 0-1.488-.212-1.77-.325v-1.786zm13.053-1.425c0 1.09-.377 1.981-.91 2.574-.45.481-1.21 1.004-2.36 1.004-1.048 0-1.816-.43-2.334-.972-.402-.407-.958-1.245-.958-2.606 0-1.4.588-2.28 1.14-2.776.402-.356 1.104-.789 2.175-.789 2.03 0 3.247 1.573 3.247 3.565m-5.495-.012c0 .4.04 1.402.564 2.164.502.723 1.167.885 1.661.885.367 0 1.077-.1 1.6-.829.564-.742.603-1.78.603-2.192 0-1.047-.286-1.917-.76-2.426-.53-.569-1.19-.618-1.472-.618-1.557 0-2.196 1.412-2.196 3.016m12.92 3.193a6.337 6.337 0 01-2.009.355c-.824 0-1.796-.205-2.59-1.055-.314-.336-.936-1.15-.936-2.519 0-1.253.52-2.123 1.11-2.642.473-.431 1.277-.851 2.513-.851.87 0 1.53.205 1.912.351v1.564h-.564l-.157-.922-.127-.187a2.493 2.493 0 00-1.129-.26c-1.923 0-2.489 1.55-2.489 2.952 0 .96.273 1.678.64 2.132.324.414.92.9 1.98.9.365 0 .645-.062.893-.134l.162-.163.227-1.125h.564v1.604zM86.535 209.213v.422l-.63.052-.173.14v2.396h3.5v-2.396l-.176-.14-.63-.052v-.422h2.472v.422l-.584.052-.17.14v5.596l.17.14.584.056v.41h-2.473v-.41l.631-.055.176-.141v-2.73h-3.5v2.73l.173.14.63.056v.41h-2.467v-.41l.581-.055.167-.141v-5.596l-.167-.14-.58-.052v-.422zm6.065 6.406l.654-.056.17-.14v-5.596l-.17-.14-.654-.052v-.422h2.562v.422l-.65.052-.174.14v5.596l.174.14.65.056v.41H92.6zM63.815 149.038c-6.191-1.979-7.38-7.189-7.345-10.433 0-1.802.324-3.08.333-3.12a.734.734 0 011.424.361c.01.003-.29 1.133-.288 2.76.036 3.002.904 7.266 6.326 9.033a6.1 6.1 0 001.859.272c2.589.02 5.586-1.432 7.007-2.989 1.182-1.25 1.896-3.722 1.887-6.2 0-1.044-.12-2.084-.356-3.034-1.066-4.073-3.783-8.03-11.213-8.077l-.26.003c-4.203.037-8.144 2.904-12.324 5.983-4.177 3.051-8.6 6.291-14.007 6.605-.304.014-.6.024-.888.024-3.148.012-5.197-1.05-6.356-2.563-1.158-1.505-1.425-3.317-1.43-4.767.003-1.57.325-2.754.335-2.792a.734.734 0 011.417.385c.009.005-.284 1.04-.282 2.407-.003 1.271.254 2.757 1.12 3.868.869 1.105 2.346 1.982 5.196 1.993.259 0 .529-.008.809-.022 4.826-.26 9.04-3.254 13.217-6.322 4.172-3.043 8.296-6.184 13.173-6.266.089-.002.183-.004.28-.004 8.044-.046 11.577 4.692 12.638 9.191a14.11 14.11 0 01.398 3.388c-.01 2.737-.71 5.484-2.276 7.2-1.781 1.893-4.983 3.44-8.085 3.457a7.61 7.61 0 01-2.31-.34"></path><path d="M58.46 139.768c-.958-1.094-1.627-2.5-1.629-4.036-.005-1.42.6-2.908 1.944-4.193 1.23-1.17 2.99-1.698 4.513-1.706.56 0 1.092.074 1.567.244 2.188.75 3.521 2.593 3.504 4.68 0 .77-.17 1.565-.515 2.348l-.672-.294.672.296c-1.19 2.685-3.757 4.03-6.038 4.035-1.277 0-2.516-.427-3.346-1.374m1.334-7.172c-1.102 1.069-1.489 2.125-1.494 3.136-.002 1.096.49 2.184 1.265 3.07.477.549 1.28.87 2.241.87 1.72.002 3.771-1.048 4.694-3.158a4.398 4.398 0 00.391-1.756c-.015-1.472-.836-2.682-2.53-3.298-.27-.1-.649-.16-1.073-.16h-.03c-1.165 0-2.635.479-3.464 1.296"></path><path d="M36.537 146.977c-2.132 0-3.405-.413-3.463-.431a.734.734 0 01.462-1.396c0-.003.235.08.75.173.516.092 1.28.186 2.251.186 3.845-.011 10.914-1.445 18.624-10.582.811-.952 2.56-2.514 3.25-3.12a.733.733 0 11.965 1.105c-.654.57-2.428 2.17-3.094 2.962-7.905 9.403-15.47 11.103-19.703 11.103h-.042z"></path><path d="M45.495 153.543c-16.556-3.846-17.063-15.566-17.226-19.7a.734.734 0 011.466-.082c.305 4.18.332 14.551 16.1 18.352 1.143.271 2.215.388 3.217.388 5.261.007 8.694-3.267 10.084-4.916.46-.546.673-.882.673-.882a.734.734 0 111.236.791c-.048.061-4.1 6.446-11.993 6.475a15.43 15.43 0 01-3.557-.426m-2.326-15.391c-.071-.013-2.961-.161-5.434-2.115-2.277-1.806-2.688-3.295-2.718-3.448a.732.732 0 111.429-.327c.008-.001 0 .005.047.118.045.11.132.29.28.528.299.472.856 1.168 1.876 1.978 1.018.814 2.183 1.27 3.09 1.518s1.514.28 1.515.28a.735.735 0 01-.043 1.469l-.042-.001m8.194-79.887l.683-.27.683-.269c1.314 3.28 3.384 4.164 4.83 4.178.444 0 .826-.089 1.094-.215 1.19-.564 2.514-1.965 2.515-4.312 0-.33-.027-.683-.084-1.056-.392-2.663-2.78-5.125-5.093-5.08-.671.002-1.354.184-2.053.627-1.153.732-1.647 2.055-1.653 3.507 0 .817.166 1.65.444 2.351l-.683.27-.683.27a7.943 7.943 0 01-.545-2.89c-.005-1.765.629-3.657 2.33-4.747.917-.584 1.896-.857 2.843-.855 3.3.043 6.012 3.041 6.543 6.323.069.444.1.872.1 1.28.005 2.943-1.702 4.878-3.361 5.644-.495.23-1.078.35-1.713.35h-.03c-2.075 0-4.716-1.398-6.167-5.106"></path><path d="M62.134 64.125a.734.734 0 110-1.47c4.502-.013 7.246-1.475 8.988-3.835 1.74-2.366 2.453-5.773 2.45-9.667.026-9.205-8.098-19.36-18.257-19.47-.107-.004-.22-.004-.337-.004-12.135-.031-20.41 9.855-23.013 16.77a.734.734 0 11-1.373-.518c2.78-7.337 11.383-17.69 24.386-17.721.118 0 .245 0 .369.004 11.142.22 19.668 10.95 19.694 20.939-.004 4.059-.72 7.77-2.736 10.535-2.006 2.76-5.327 4.437-10.11 4.437h-.061z"></path><path d="M60.286 63.733a.734.734 0 01.438-.943c-.002-.002.04-.014.155-.068.116-.057.291-.147.506-.283a7.177 7.177 0 001.592-1.383c1.166-1.353 2.373-3.634 2.38-7.512 0-.34-.01-.69-.029-1.052-.212-3.942-1.495-8.402-4.863-11.568-3.195-3-6.495-4.14-9.653-4.146-2.722-.002-5.355.867-7.663 2.226-2.397 1.407-4.22 3.277-5.439 4.795-1.216 1.517-1.809 2.645-1.81 2.648v.002a.734.734 0 01-1.3-.685c.038-.058 2.6-4.958 7.804-8.027 2.49-1.465 5.371-2.428 8.408-2.428 3.521-.005 7.237 1.315 10.662 4.546 3.74 3.528 5.094 8.377 5.32 12.56.021.387.031.763.031 1.13.023 8.422-5.454 10.61-5.597 10.624a.732.732 0 01-.942-.436m-12.99 70.745v-5.847a.735.735 0 111.468 0v5.847a.734.734 0 11-1.468 0m0-21.885V70.914a.735.735 0 111.468 0v41.68a.734.734 0 01-1.468 0m3.548 20.569a.733.733 0 01-.73-.735l.114-66.371a.734.734 0 011.47.003l-.118 66.37a.733.733 0 01-.733.733h-.003z"></path><path d="M52.36 64.216a.733.733 0 110-1.468h20.46a.734.734 0 010 1.468H52.36zm9.4-5.136a.736.736 0 01-.55-.882c.21-.891.326-1.9.326-2.953-.007-4.35-1.926-9.35-6.702-11.115-1.194-.448-2.284-.631-3.28-.631-3.836-.016-6.482 2.783-7.56 4.218-.357.473-.522.76-.522.762a.736.736 0 01-1.272-.736c.05-.048 3.22-5.663 9.354-5.711 1.175-.002 2.447.216 3.795.723 5.56 2.094 7.659 7.773 7.654 12.49 0 1.16-.126 2.275-.362 3.287a.734.734 0 01-.881.549m-26.482 14.1c-1.675-.006-2.898-.653-2.958-.679a.735.735 0 01.68-1.3c.005-.006.22.116.637.246a5.426 5.426 0 001.64.264c1.168-.016 2.474-.375 3.642-2.039.876-1.266 1.317-2.843 1.317-4.516-.007-4.48-3.145-9.489-9.061-10.578a15.366 15.366 0 00-2.8-.272c-7.18-.009-9.324 6.021-10.035 9.208-.224 1.043-.266 1.706-.266 1.708v.001a.733.733 0 11-1.465-.096c.006-.055.196-3.03 1.744-6.087 1.52-3.048 4.582-6.22 10.021-6.2.95 0 1.972.092 3.068.295 6.663 1.234 10.266 6.891 10.26 12.021 0 1.927-.506 3.804-1.574 5.352-1.397 2.043-3.29 2.672-4.793 2.672h-.057m7.502 36.268a.734.734 0 01-.004-1.039c.683-.701 4.432-4.815 4.437-13.655 0-1.166-.065-2.412-.212-3.746-.452-4.161-2.345-8.452-4.135-11.679-1.79-3.228-3.448-5.373-3.453-5.378h.002a.734.734 0 011.161-.899c.022.055 6.883 8.85 7.885 17.794.153 1.386.22 2.689.22 3.908.005 9.272-3.984 13.811-4.861 14.689a.731.731 0 01-.522.217.73.73 0 01-.517-.212m-1.761 16.533c-2.684-.064-4.53-2.895-4.537-6.184.025-2.218 1.373-4.226 2.232-5.34-2.983-1.924-6.524-3.56-8.351-4.474-4.252-2.17-11.011-7.448-11.052-15.304-.028-8.441 6.072-11.893 7.566-13.168h.002a.735.735 0 011.034.082.735.735 0 01-.084 1.035c-1.768 1.504-7.021 4.368-7.05 12.05-.04 6.906 6.224 11.97 10.249 13.996 2.835 1.462 10.044 4.576 13.018 8.425.806 1.07 1.273 2.547 1.278 4.012 0 1.127-.288 2.273-1.045 3.159-.973 1.128-2.117 1.71-3.251 1.71h-.01zm-3.068-6.184c-.002 1.385.4 2.608.994 3.445.6.844 1.345 1.272 2.074 1.27.628-.001 1.359-.3 2.147-1.202.456-.523.69-1.317.69-2.2.006-1.136-.404-2.377-.98-3.121-.69-.922-1.737-1.837-2.95-2.707-.776.988-2.002 2.902-1.975 4.515z"></path><path d="M37.818 105.757a.732.732 0 01.015-1.038c.827-.8 3.545-3.78 3.535-8.236 0-2.036-.55-4.405-2.137-7.094-2.565-4.394-10.042-10.055-13.497-13.475-3.344-3.298-4.794-5.795-5.017-9.093-.021-.29-.03-.574-.03-.855.002-2.914 1.099-5.576 3.301-6.903 1.493-.895 2.983-1.235 4.335-1.233 3.826.021 6.495 2.573 6.558 2.617h.002a.735.735 0 01-1.006 1.072c-.002 0-.129-.123-.401-.332a9.844 9.844 0 00-1.179-.772c-1.008-.567-2.41-1.119-3.974-1.117-1.113.003-2.313.27-3.582 1.025-1.605.948-2.586 3.074-2.586 5.643 0 .247.008.495.027.748.22 2.898 1.329 4.905 4.587 8.16 3.321 3.323 10.854 8.93 13.727 13.768 1.706 2.887 2.343 5.536 2.342 7.841-.01 5.08-3.031 8.361-3.982 9.29a.733.733 0 01-1.038-.016"></path><path d="M23.239 119.69c.024-7.796 6.15-11.746 6.216-11.796a.735.735 0 01.799 1.233c.002.003-.32.205-.841.651a14.288 14.288 0 00-1.921 2.013c-1.4 1.787-2.783 4.417-2.785 7.898.007 7.297 5.81 11.808 12.237 11.832.837 0 1.687-.079 2.533-.24 6.517-1.305 10.728-4.203 10.763-10.665.02-4.08-3.044-7.684-6.58-10.56-3.535-2.895-7.348-4.932-8.798-6.304-1.493-1.429-1.99-3.07-1.981-4.425.004-1.322.417-2.366.775-2.943 1.334-2.133 3.51-2.533 3.59-2.555a.734.734 0 11.278 1.44c0 .003-.071.013-.242.068a4.536 4.536 0 00-.69.285 4.245 4.245 0 00-1.69 1.536c-.208.324-.56 1.183-.553 2.17.006 1.024.329 2.2 1.53 3.367 1.092 1.074 5.08 3.265 8.712 6.223 3.63 2.973 7.098 6.842 7.118 11.698.035 7.294-5.188 10.878-11.958 12.107-.938.177-1.878.266-2.807.266-7.095-.014-13.692-5.13-13.705-13.3m5.31-49.998l.571-.463.569-.462c1.134 1.37 1.949 1.798 3.001 1.811.239 0 .497-.024.78-.079.86-.133 2.451-1.272 2.788-3.02.053-.262.082-.559.082-.879.008-2.136-1.296-5.02-3.85-5.587a2.672 2.672 0 00-.62-.07c-1.762.004-3.818 1.588-3.821 3.921 0 1.091.431 2.411 1.64 3.902l-.569.463-.571.463c-1.37-1.686-1.97-3.338-1.968-4.828.023-3.24 2.735-5.38 5.289-5.39.322 0 .643.036.96.11 3.492.871 4.972 4.404 4.978 7.016 0 .41-.037.802-.111 1.175-.54 2.423-2.44 3.87-3.96 4.17a5.75 5.75 0 01-1.047.101h-.036c-1.56 0-2.889-.832-4.105-2.354"></path><path d="M34.778 103.49a.733.733 0 01.11-1.034c.796-.645 2.694-2.502 2.69-5.61 0-1.709-.56-3.846-2.278-6.462-4.102-6.427-16.82-11.454-18.534-23.316a28.76 28.76 0 01-.287-3.958c-.037-9.372 5.42-14.522 12.55-16.865.053-.016 2.358-.85 5.628-.853 4.821-.029 11.836 1.915 16.282 10.944.933 1.877 1.376 3.94 1.376 5.97 0 4.193-1.905 8.305-5.527 10.272-1.94 1.046-4.325 1.47-6.727 1.472-4.239-.023-8.524-1.282-10.622-3.405a.734.734 0 011.055-1.022c1.542 1.643 5.646 2.981 9.567 2.958 2.227.002 4.397-.409 6.028-1.294 3.031-1.629 4.76-5.212 4.757-8.982 0-1.815-.398-3.657-1.223-5.318-4.24-8.507-10.493-10.099-14.966-10.126-1.508 0-2.804.194-3.715.388-.91.193-1.41.377-1.428.384-6.788 2.322-11.53 6.72-11.567 15.477 0 1.171.09 2.422.272 3.756C19.651 77.71 31.8 82.571 36.527 89.578c1.838 2.797 2.521 5.23 2.52 7.267-.004 3.751-2.275 5.98-3.238 6.753h.002a.734.734 0 01-1.033-.109m-6.951 18.377a13.817 13.817 0 01-.074-1.43c.016-6.355 4.43-9.844 4.496-9.903l.002.001a.731.731 0 011.03.12.732.732 0 01-.12 1.03c.004.003-.218.172-.586.552-.371.381-.87.953-1.367 1.7-.997 1.5-1.987 3.685-1.987 6.5 0 .412.02.838.068 1.277.493 4.807 4.979 8.832 10.588 8.83 1.299 0 2.66-.216 4.054-.689a.734.734 0 11.471 1.389 14 14 0 01-4.525.77c-6.311-.005-11.453-4.516-12.05-10.147"></path><path d="M36.923 113.425c-3.833-2.298-12.876-8.1-13.59-15.605a13.18 13.18 0 01-.052-1.19c.008-7.2 5.688-10.46 8.015-11.646a.735.735 0 01.989.318.736.736 0 01-.319.989c-2.26 1.17-7.225 4.034-7.217 10.34 0 .344.015.696.047 1.065.439 6.354 9.094 12.3 12.87 14.46a.735.735 0 01-.743 1.269m14.923-84.067a.735.735 0 01.182-1.023 53.528 53.528 0 019.252-5.185.735.735 0 01.586 1.346 52.049 52.049 0 00-8.999 5.045.735.735 0 01-1.02-.183"></path><path d="M72.587 36.628c-.753-1.543-2.52-4.814-5.177-7.63a23.235 23.235 0 00-5.17-4.088c-1.46-.85-2.432-1.208-2.433-1.208a.738.738 0 01-.481-.673.737.737 0 01.451-.693c3.633-1.522 8.41-3.068 12.43-3.71a.734.734 0 11.231 1.45c-3.295.523-7.238 1.717-10.522 2.982a24.733 24.733 0 016.562 4.933c2.818 2.99 4.636 6.374 5.427 7.991h.001a.736.736 0 01-.658 1.058.734.734 0 01-.661-.412"></path><path d="M76.328 35.913c-.674-4.885-1.85-9.264-2.857-12.413-1.007-3.15-1.833-5.05-1.837-5.056a.735.735 0 011.348-.586c.014.037 3.421 7.864 4.801 17.854a.733.733 0 11-1.455.201m6.209.984a.733.733 0 01-.616-.836c1.508-9.84 4.953-18.197 4.965-18.227a.734.734 0 011.358.559c-.002.004-.845 2.047-1.879 5.32-1.036 3.271-2.254 7.753-2.992 12.57a.732.732 0 01-.836.614"></path><path d="M71.423 18.145a.734.734 0 01.592-.854 45.554 45.554 0 018.1-.72c2.592 0 5.123.218 7.594.626a.735.735 0 01-.241 1.45 44.963 44.963 0 00-7.353-.609c-2.674 0-5.296.238-7.838.7a.737.737 0 01-.854-.592M85.341 145.92c-1.565-1.715-2.263-4.46-2.273-7.195 0-1.155.132-2.312.401-3.388 1.06-4.5 4.592-9.238 12.635-9.193.098 0 .191.002.28.004 4.88.08 9.005 3.222 13.18 6.265 4.175 3.069 8.391 6.064 13.214 6.323.281.015.552.02.81.02 2.848-.01 4.323-.886 5.191-1.994.866-1.113 1.124-2.6 1.121-3.868.002-1.366-.279-2.403-.279-2.405a.734.734 0 111.416-.383c.01.039.331 1.218.331 2.788-.002 1.447-.269 3.26-1.427 4.767-1.159 1.513-3.206 2.576-6.354 2.565-.285 0-.58-.008-.887-.024-5.402-.314-9.827-3.554-14.005-6.605-4.182-3.078-8.125-5.945-12.333-5.983l-.258-.001c-7.43.045-10.146 4.003-11.208 8.079a12.462 12.462 0 00-.359 3.033c-.012 2.477.703 4.948 1.881 6.196 1.431 1.559 4.423 3.009 7.012 2.99a6.11 6.11 0 001.857-.271c5.421-1.767 6.29-6.033 6.325-9.036.002-1.625-.285-2.757-.285-2.76a.731.731 0 01.532-.89c.393-.1.791.139.89.532.01.039.332 1.317.332 3.118.035 3.244-1.152 8.455-7.345 10.434a7.562 7.562 0 01-2.306.342c-3.103-.018-6.299-1.566-8.089-3.46"></path><path d="M97.748 141.14c-2.279-.001-4.845-1.348-6.033-4.033l.673-.296.672-.296c.92 2.109 2.97 3.16 4.688 3.158.96-.001 1.764-.322 2.24-.872.772-.884 1.267-1.977 1.264-3.072-.005-1.012-.392-2.066-1.49-3.131-.844-.827-2.327-1.307-3.497-1.298-.424 0-.802.062-1.08.162-1.685.613-2.506 1.82-2.52 3.29 0 .55.123 1.146.394 1.762l-.67.297-.674.296a5.856 5.856 0 01-.519-2.354c-.017-2.086 1.317-3.925 3.495-4.675.481-.172 1.014-.245 1.574-.245 1.524.008 3.28.537 4.514 1.705 1.344 1.286 1.946 2.775 1.941 4.19 0 1.539-.672 2.945-1.626 4.039-.83.946-2.066 1.373-3.339 1.373h-.007z"></path><path d="M103.275 135.875c-.662-.791-2.44-2.392-3.096-2.964l.002.002a.734.734 0 11.967-1.106c.687.605 2.44 2.167 3.252 3.122 7.703 9.136 14.771 10.569 18.615 10.58.97 0 1.736-.094 2.252-.186.516-.093.752-.173.754-.173a.734.734 0 01.457 1.396c-.057.018-1.331.43-3.462.43h-.044c-4.233 0-11.797-1.7-19.697-11.101"></path><path d="M98.51 147.495a.735.735 0 111.237-.792c.003-.001.213.335.674.88.46.546 1.15 1.28 2.062 2.012 1.827 1.462 4.505 2.905 8.02 2.905.999 0 2.07-.115 3.216-.386 15.765-3.8 15.793-14.172 16.108-18.353a.733.733 0 111.465.085c-.171 4.13-.68 15.85-17.235 19.697-1.254.295-2.44.426-3.554.426-7.891-.028-11.944-6.414-11.993-6.474m17.099-10.033a.734.734 0 01.691-.777c-.002-.007.61-.033 1.517-.281.908-.246 2.074-.704 3.092-1.517 1.526-1.217 2.015-2.175 2.153-2.508a.733.733 0 00.046-.12v.002a.733.733 0 111.431.329c-.031.152-.443 1.64-2.715 3.446-2.474 1.956-5.369 2.102-5.439 2.115a.734.734 0 01-.776-.689zm-13.617-74.09a4.079 4.079 0 01-1.713-.351c-1.663-.766-3.366-2.7-3.363-5.64 0-.411.033-.841.103-1.284.53-3.282 3.242-6.278 6.54-6.324.949-.001 1.926.272 2.843.857 1.7 1.088 2.338 2.979 2.33 4.743a8.01 8.01 0 01-.544 2.893c-1.448 3.707-4.092 5.106-6.167 5.106h-.03m-3.52-7.048a6.77 6.77 0 00-.086 1.057c0 2.346 1.319 3.746 2.513 4.308.268.126.65.215 1.094.215 1.447-.013 3.519-.897 4.83-4.178a6.563 6.563 0 00.443-2.353c-.005-1.452-.5-2.772-1.652-3.503-.7-.444-1.384-.626-2.054-.628l-.063-.001c-2.29 0-4.64 2.44-5.025 5.083"></path><path d="M87.247 59.689c-2.014-2.765-2.729-6.477-2.732-10.536.017-9.993 8.445-20.07 19.572-20.1 14.641.016 22.152 11.606 24.843 16.799a.734.734 0 01-1.305.676c-2.623-5.052-9.786-16.026-23.538-16.007-5.097 0-9.615 2.334-12.875 5.848-3.26 3.513-5.23 8.194-5.227 12.784-.004 3.894.707 7.302 2.448 9.668 1.74 2.359 4.485 3.822 8.99 3.836a.734.734 0 010 1.468h-.063c-4.784 0-8.106-1.676-10.113-4.436"></path><path d="M98.864 64.202c-.16.017-5.262-1.159-6.079-8.919-.055-.5-.08-1.01-.08-1.53.01-4.136 1.653-8.912 4.896-11.826 3.347-2.99 7.333-4.322 11.138-4.32 2.9.001 5.698.767 8.06 2.157 5.114 3.01 6.664 5.895 6.718 6.002a.734.734 0 11-1.302.678c-.003.002-.06-.119-.256-.396-.194-.28-.509-.69-.978-1.194-.938-1.009-2.492-2.389-4.928-3.823-2.126-1.253-4.675-1.956-7.314-1.956-3.467.003-7.083 1.201-10.16 3.947-2.836 2.511-4.418 6.98-4.406 10.731 0 .47.022.928.071 1.37.608 5.328 3.147 6.9 4.306 7.433.39.17.58.201.581.202a.733.733 0 01-.133 1.456.767.767 0 01-.134-.012m8.994 68.315V66.058a.734.734 0 011.468 0v66.46a.734.734 0 01-1.468 0M51.526 67.087a.734.734 0 110-1.47h22.546a.734.734 0 010 1.47H51.526z"></path><path d="M85.068 67.086a.734.734 0 110-1.467h23.515c.405 0 .735.329.735.734 0 .404-.33.733-.735.733H85.068zm-13.921 46.567c.021-.015.055-.015.073-.027.025-.007.045-.022.082-.032a.495.495 0 00-.155.06"></path><path d="M104.573 106.577l-.06-2.208a.756.756 0 00-.236-.535c-1.953-1.773-4.039-2.372-6.146-2.28 5.504-4.32 7.444-12.25 5.89-21.787a.74.74 0 00-.473-.575c-.235-.095-.533-.067-.725.12-1.848 1.85-4.706 6.3-6.403 8.868-.138-1.543-.195-2.488-1.198-6.002-1.456-5.028-5.863-9.477-8.837-9.689-4.556 0-6.772 6.524-7.272 8.46-.039 0-2.707-7.368-5.037-8.532a.683.683 0 00-.576-.037c-6.653 2.438-8.095 8.054-8.404 10.641-2.336-1.889-5.098-3.645-6.033-4.133-.214-.112-.446-.156-.666-.065a.745.745 0 00-.448.498c-.06.244-.646 1.674-.344 7.961.307 6.77 1.597 10.106 1.966 11.037l-3.005-3.194a.738.738 0 00-.717-.202.719.719 0 00-.53.551c-.08.386-2.256 8.807 3.764 13.116-1.688 1.361-4.072 3.257-4.072 9.158 0 .406 2.141.735 6.071.605 3.92-.126 7.735-2.233 7.735-2.233 1.221 2.363 3.642 2.951 6.771 5.864.615.598 1.586 1.652 1.586 3.861l-.013 1.696c.013.821-.18 2.145 2.516 2.145.614 0 1.422-.217 1.915-.71.231-.233.606-.678.582-1.218l-.027-2.779c.008-1.834.596-2.736 2.068-3.539 1.816-.997 3.694-2.532 4.58-3.678 1.265-1.595 1.807-2.436 2.17-3.137 1.246.191 2.72.537 4.382 1.121 2.351.868 4.873 1.97 6.674.91 1.892-1.117 2.597-3.242 2.597-4.917.081-1.465.011-3.44-.045-5.162m-1.843-25.165c.15 1.278.196 3.891.166 4.99-.332 9.838-3.99 12.787-8.805 15.612-1.29.754-4.386 2.746-7.35 6.043-.996 1.176-2.005 2.566-2.825 3.682-.81 1.102-1.326 2.446-3.615 2.2v-.005c0-.015.017-.015.017-.024.01-.01 1.2-3.589 3.14-7.096 2.573-4.32 5.865-7.317 8.841-10.693.85-.928 2.063-2.306 4.211-5.48 1.993-2.952 4.752-7.315 6.22-9.229m-29.979 4.691c2.478-1.95 6.485-3.79 8.603-2.888 1.283.546 3.24 1.912 5.031 3.665 1.331 1.298 2.916 2.971 3.688 4.826.835 2.044.543 3.96-2.388 7.19-1.363 1.497-2.869 3.075-4.033 4.778-1.882 2.717-3.122 5.39-4.482 8.92-.516-9.583-2.344-15.49-6.737-22.007-.487-.655-2.329-2.375.318-4.484m9.526-8.406c.955-2.152 2.142-3.742 4.053-3.742 2.121.157 6.28 4.423 7.391 8.41.59 2.216.717 2.672.885 4.074.17 1.404.246 4.321-.754 5.755-.62.883-1.187 1.608-1.965-.119-.886-1.99-2.442-4.184-4.452-6.23-2.255-2.286-5.158-3.667-5.979-4.23 0 0-.487-1.199.821-3.918m-15.33 5.296c.257-2.437 1.417-6.952 6.71-9.075 1.16.93 3.062 5.026 3.95 7.847-4.305 1.205-7.055 4.038-8.183 5.338-1.71-1.693-2.569-2.64-2.477-4.11m-7.777-2.267c2.34 1.346 4.286 2.682 7.411 5.713.003.008.023.012.035.027 0 .012.006.02.016.023 7.418 8.201 8.445 12.286 9.875 17.943 0 0 .502 2.74 1.284 9.453 0 0-.086.374-.897.3-1.556-.116-2.077-1.654-2.077-1.654-.904-1.55-1.918-3.615-4.628-5.112-1.563-.877-3.309-1.237-3.325-1.26l-2.942-3.195c-5.3-5.839-5.097-18.7-4.752-22.238m1.418 27.157c-3.494-2.216-4.119-6.175-4.119-8.99 0-.64.042-1.173.087-1.639 1.374 1.457 4.826 5.113 4.953 5.158l3.336 3.78c-2.128.191-4.257 1.691-4.257 1.691m-3.774 9.134h-.303c0-8.498 9.2-9.186 9.2-9.186 5.136-.359 7.716 5.535 7.716 5.535-1.114-.108-1.997.087-2.427.323-1.576.505-7.015 4.287-14.186 3.328m30.531-.158c-.792 1.017-2.383 2.524-3.693 3.225-2.006 1.055-2.949 2.477-2.972 4.887v2.71c0 .16-.28.538-.912.538-1.643 0-1.143-.622-1.137-.539-.006-.079.005-1.392.005-2.62 0-2.526-2.554-4.617-4.272-5.999a100.44 100.44 0 00-2.629-1.857c-1.532-.76-1.04-2.506 1.088-2.415.772.05 2.9 1.056 6.372 1.056 3.471 0 6.15-1.325 7.306-1.393 2.256-.128 1.75 1.257.844 2.407m15.814-5.158c0 1.624-.724 3.043-1.846 3.67-1.326.723-3.587-.367-5.442-.99-5.57-1.895-7.64-1.569-9.347-1.37-.03.006-.858.172-1.96.367.24-.423.841-1.326.841-1.326s2.52-3.733 5.087-5.692c3.691-2.833 9.11-4.56 12.564-1.62.023.511.054 1.891.054 1.891.037 1.151.084 2.415.084 3.554 0 .538-.007 1.05-.035 1.516m-6.246-53.167a14.554 14.554 0 01-.378-3.321c-.016-4.487 2.06-9.588 7.525-11.626 1.478-.557 2.864-.79 4.137-.788 5.9.03 9.081 4.846 9.133 4.902h.002a.734.734 0 01-1.219.819c-.004 0-.16-.241-.512-.643a11.553 11.553 0 00-1.553-1.48c-1.367-1.076-3.339-2.132-5.85-2.132-1.097.002-2.3.199-3.622.696-4.764 1.78-6.556 6.154-6.572 10.252 0 1.042.118 2.054.34 2.982a.734.734 0 01-.716.904.738.738 0 01-.715-.565m22.519 11.974c-1.072-1.548-1.58-3.424-1.58-5.353-.005-5.129 3.6-10.784 10.257-12.02a16.916 16.916 0 013.068-.295c5.443-.02 8.504 3.152 10.027 6.201 1.548 3.054 1.736 6.032 1.743 6.086a.735.735 0 01-1.465.098c-.005-.002-.042-.666-.264-1.708-.223-1.043-.625-2.436-1.323-3.81-1.427-2.751-3.883-5.381-8.718-5.4a15.2 15.2 0 00-2.801.274c-5.91 1.087-9.05 6.095-9.055 10.575 0 1.673.44 3.252 1.319 4.517 1.165 1.666 2.469 2.024 3.633 2.04.639 0 1.223-.13 1.64-.263.418-.132.639-.248.639-.248a.733.733 0 11.678 1.3c-.057.027-1.283.674-2.957.679h-.058c-1.501 0-3.392-.63-4.783-2.672m-3.692 38.935c-.882-.878-4.877-5.42-4.873-14.695 0-1.218.069-2.518.222-3.901 1.01-8.945 7.859-17.74 7.883-17.794v.002a.734.734 0 011.164.895c0 .009-1.661 2.15-3.45 5.38-1.79 3.227-3.68 7.517-4.137 11.678a34.062 34.062 0 00-.212 3.74c.005 8.843 3.759 12.96 4.446 13.66a.735.735 0 11-1.042 1.034m-.466 14.826c-.76-.885-1.047-2.031-1.047-3.156.005-1.468.473-2.943 1.285-4.011 2.965-3.853 10.18-6.965 13.01-8.427 4.026-2.026 10.29-7.09 10.248-13.995-.03-7.682-5.276-10.548-7.047-12.051a.733.733 0 01.95-1.12c1.5 1.277 7.593 4.729 7.566 13.17-.04 7.858-6.797 13.135-11.053 15.304-1.824.915-5.366 2.55-8.349 4.477.859 1.113 2.208 3.12 2.233 5.338-.007 3.288-1.853 6.118-4.535 6.185-1.136.002-2.285-.58-3.261-1.714m1.404-6.277c-.578.744-.99 1.984-.984 3.12 0 .882.235 1.674.689 2.197.793.905 1.525 1.204 2.151 1.205.73.002 1.472-.426 2.073-1.271.593-.836.995-2.06.995-3.445.026-1.612-1.2-3.525-1.977-4.514-1.212.87-2.257 1.786-2.947 2.708"></path><path d="M120.706 105.775c-.96-.93-3.98-4.216-3.989-9.296-.002-2.305.637-4.953 2.34-7.837 2.872-4.838 10.412-10.444 13.726-13.77 3.26-3.253 4.37-5.26 4.597-8.152.014-.248.024-.488.024-.725 0-2.583-.982-4.722-2.59-5.672-1.27-.757-2.472-1.024-3.583-1.025-2.342-.008-4.328 1.256-5.148 1.89-.273.21-.4.33-.402.33h.002a.734.734 0 11-1.005-1.072c.062-.043 2.73-2.594 6.553-2.617 1.353 0 2.841.34 4.337 1.234 2.205 1.333 3.303 4.006 3.303 6.932 0 .271-.01.544-.026.824-.229 3.302-1.682 5.796-5.026 9.094-3.448 3.42-10.934 9.083-13.499 13.475-1.582 2.69-2.133 5.056-2.135 7.091-.008 4.458 2.71 7.441 3.54 8.24a.734.734 0 01-1.019 1.056"></path><path d="M119.797 132.725c-6.763-1.231-11.984-4.815-11.95-12.11.021-4.853 3.489-8.723 7.12-11.698 3.63-2.958 7.619-5.148 8.711-6.22 1.199-1.17 1.519-2.345 1.525-3.372.007-.986-.343-1.845-.547-2.17-.713-1.161-1.863-1.656-2.382-1.82a1.5 1.5 0 00-.242-.064.734.734 0 11.28-1.443c.08.024 2.255.424 3.593 2.556.351.58.761 1.622.768 2.94.006 1.356-.485 2.999-1.978 4.429-1.451 1.37-5.264 3.408-8.8 6.303-3.534 2.875-6.597 6.48-6.577 10.56.034 6.463 4.242 9.36 10.753 10.666.846.16 1.695.238 2.536.238 6.43-.023 12.238-4.534 12.243-11.83.005-5.21-3.134-8.56-4.709-9.91-.523-.448-.841-.652-.841-.654a.73.73 0 01-.217-1.013.731.731 0 011.015-.218c.064.049 6.195 3.999 6.22 11.795-.014 8.168-6.611 13.286-13.711 13.3-.932 0-1.872-.09-2.81-.265m7.067-60.679a5.75 5.75 0 01-1.04-.101c-1.523-.302-3.43-1.746-3.965-4.17a5.784 5.784 0 01-.114-1.178c.006-2.613 1.49-6.144 4.974-7.012.318-.077.64-.11.96-.11 2.555.008 5.27 2.148 5.295 5.385 0 1.49-.599 3.145-1.975 4.833l-.569-.464.568.465c-1.22 1.519-2.54 2.352-4.097 2.352h-.037zm.196-11.034c-2.548.567-3.855 3.45-3.848 5.585 0 .322.03.617.085.876.336 1.753 1.93 2.892 2.794 3.028.277.052.533.076.773.076 1.046-.013 1.854-.44 2.997-1.812v-.001c1.213-1.491 1.643-2.813 1.644-3.904-.003-2.328-2.06-3.913-3.827-3.916-.217 0-.424.023-.618.068z"></path><path d="M123.743 103.599c-.96-.773-3.23-3-3.235-6.75 0-2.04.682-4.474 2.524-7.271 4.724-7.006 16.873-11.867 18.305-22.71.184-1.336.27-2.586.27-3.758-.037-8.756-4.783-13.155-11.588-15.484-.001.004-.5-.183-1.412-.377a18.095 18.095 0 00-3.712-.387c-4.473.027-10.724 1.619-14.964 10.127a11.982 11.982 0 00-1.225 5.314c-.002 3.772 1.727 7.355 4.764 8.984 1.628.886 3.795 1.298 6.022 1.294 3.916.023 8.02-1.314 9.568-2.958a.733.733 0 111.054 1.022c-2.102 2.124-6.388 3.383-10.622 3.406-2.401-.003-4.785-.427-6.72-1.471-3.627-1.97-5.534-6.082-5.534-10.277 0-2.027.446-4.09 1.378-5.967 4.444-9.03 11.459-10.972 16.279-10.944 3.267.002 5.572.837 5.608.849 7.149 2.348 12.612 7.497 12.574 16.869 0 1.245-.093 2.563-.286 3.959-1.713 11.86-14.436 16.888-18.531 23.316-1.722 2.616-2.282 4.756-2.282 6.464-.005 3.107 1.894 4.964 2.688 5.608a.734.734 0 11-.923 1.142m-8.59 27.646a.735.735 0 11.471-1.392c1.39.474 2.752.69 4.052.69 5.605.002 10.094-4.022 10.587-8.828.045-.446.066-.873.066-1.288.004-4.209-2.237-7.044-3.35-8.19a6.008 6.008 0 00-.59-.552h.002a.733.733 0 11.91-1.152c.066.06 4.48 3.545 4.498 9.894 0 .467-.025.945-.076 1.438-.596 5.632-5.74 10.144-12.048 10.145-1.463 0-2.986-.243-4.522-.765"></path><path d="M121.625 113.162a.735.735 0 01.261-1.006c3.776-2.16 12.427-8.106 12.871-14.459.03-.37.046-.729.046-1.072.01-6.3-4.953-9.164-7.213-10.335a.734.734 0 11.672-1.306c2.324 1.185 8.001 4.444 8.01 11.641 0 .388-.019.784-.05 1.192-.72 7.508-9.76 13.31-13.593 15.606a.732.732 0 01-1.004-.261M108.3 30.702c-3.299-2.474-6.92-4.62-10.784-6.278a.736.736 0 01.58-1.35c3.98 1.71 7.698 3.916 11.084 6.452h.001a.735.735 0 01-.88 1.176"></path><path d="M85.865 37.266a.734.734 0 01-.354-.976c.69-1.473 2.559-5.107 5.566-8.298a24.671 24.671 0 016.564-4.934c-3.287-1.266-7.225-2.459-10.521-2.982a.735.735 0 01.229-1.45c4.022.641 8.797 2.187 12.433 3.71a.737.737 0 01.451.693.74.74 0 01-.48.673c0 .006-.976.358-2.438 1.208a23.235 23.235 0 00-5.17 4.088c-2.836 3.006-4.66 6.527-5.304 7.914a.733.733 0 01-.976.354m-14.676 76.357c.018-.015.052-.017.077-.029.023-.006.037-.025.066-.033-.05.018-.1.035-.143.062"></path></g>
</svg>